<?xml version="1.0" encoding="UTF-8" standalone="no"?>
<svg
   xmlns:dc="http://purl.org/dc/elements/1.1/"
   xmlns:cc="http://creativecommons.org/ns#"
   xmlns:rdf="http://www.w3.org/1999/02/22-rdf-syntax-ns#"
   xmlns:svg="http://www.w3.org/2000/svg"
   xmlns="http://www.w3.org/2000/svg"
   xmlns:sodipodi="http://sodipodi.sourceforge.net/DTD/sodipodi-0.dtd"
   xmlns:inkscape="http://www.inkscape.org/namespaces/inkscape"
   width="270"
   version="1.1"
   height="270"
   viewBox="0 0 216 216"
   id="svg2"
   inkscape:version="0.48.2 r9819"
   sodipodi:docname="linkedin-wo.svg">
  <metadata
     id="metadata23">
    <rdf:RDF>
      <cc:Work
         rdf:about="">
        <dc:format>image/svg+xml</dc:format>
        <dc:type
           rdf:resource="http://purl.org/dc/dcmitype/StillImage" />
        <dc:title />
      </cc:Work>
    </rdf:RDF>
  </metadata>
  <sodipodi:namedview
     pagecolor="#ffffff"
     bordercolor="#666666"
     borderopacity="1"
     objecttolerance="10"
     gridtolerance="10"
     guidetolerance="10"
     inkscape:pageopacity="0"
     inkscape:pageshadow="2"
     inkscape:window-width="1016"
     inkscape:window-height="607"
     id="namedview21"
     showgrid="false"
     fit-margin-top="0"
     fit-margin-left="0"
     fit-margin-right="0"
     fit-margin-bottom="0"
     inkscape:zoom="0.87407407"
     inkscape:cx="153.125"
     inkscape:cy="135"
     inkscape:window-x="0"
     inkscape:window-y="0"
     inkscape:window-maximized="0"
     inkscape:current-layer="svg2" />
  <defs
     id="defs4">
    <clipPath
       id="Clip0">
      <path
         d="m 0,0 0,216 244.001,0 0,-216 L 0,0 z"
         id="path7"
         inkscape:connector-curvature="0" />
    </clipPath>
  </defs>
  <path
     style="fill:#ffffff;fill-rule:nonzero;stroke:none"
     d="m 48.0371,29.7383 c 10.2422,0 18.5664,8.3242 18.5664,18.5703 0,10.2578 -8.3242,18.582 -18.5664,18.582 -10.2695,0 -18.5703,-8.3242 -18.5703,-18.582 0,-10.2461 8.3008,-18.5703 18.5703,-18.5703 z m -16.0273,51.2461 32.0507,0 0,103.0789 -32.0507,0 0,-103.0789 z"
     id="path13"
     inkscape:connector-curvature="0" />
  <path
     style="fill:#ffffff;fill-rule:nonzero;stroke:none"
     d="m 84.1543,80.9844 30.7347,0 0,14.0781 0.437,0 c 4.278,-8.1016 14.731,-16.6484 30.317,-16.6484 32.418,0 38.406,21.3437 38.406,49.1089 l 0,56.5401 -32,0 0,-50.1251 c 0,-11.961 -0.235,-27.336 -16.653,-27.336 -16.671,0 -19.214,13.023 -19.214,26.468 l 0,50.9931 -32.0277,0 0,-103.0787 z"
     id="path15"
     inkscape:connector-curvature="0" />
</svg>
