<?xml version="1.0" encoding="UTF-8"?>
<svg width="219pt" version="1.1" xmlns="http://www.w3.org/2000/svg" height="142pt" viewBox="0 0 219 142" xmlns:xlink="http://www.w3.org/1999/xlink">
 <defs>
  <clipPath id="Clip0">
   <path d="M0 0 L0 141.506 L218.775 141.506 L218.775 0 L0 0 Z" transform="translate(0, 0.494141)"/>
  </clipPath>
 </defs>
 <g id="Background">
  <g id="Group1" clip-path="url(#Clip0)">
   <path style="fill:#ffffff; fill-rule:nonzero;stroke:none;" d="M10.8593 0.5665 C10.8515 0.7139 10.8388 0.8692 10.8232 1.0332 C10.8066 1.2637 10.791 1.504 10.7744 1.7588 C10.7578 2.0137 10.7285 2.2549 10.6884 2.4844 C10.6474 2.7139 10.5849 2.9239 10.5039 3.1114 C10.4218 3.2999 10.3154 3.4434 10.1845 3.5411 C10.0683 3.5918 9.9668 3.5997 9.8769 3.5655 C9.7861 3.5332 9.7412 3.4688 9.7412 3.3692 C9.7412 2.6651 9.5517 2.1739 9.1757 1.8946 C8.7988 1.6153 8.291 1.4756 7.6513 1.4756 C7.372 1.4756 7.0927 1.4922 6.8154 1.5264 C6.5361 1.5586 6.249 1.5918 5.955 1.6231 C5.6923 1.6573 5.4716 1.6895 5.292 1.7227 C5.1103 1.7559 4.8896 1.7715 4.6269 1.7715 L4.6269 8.0655 L8.8564 8.0655 C8.9873 8.0655 9.1523 7.9961 9.3476 7.8575 C9.5449 7.7178 9.6836 7.5977 9.7656 7.5 C9.8642 7.418 9.9716 7.3946 10.0859 7.4258 C10.2002 7.459 10.2588 7.5332 10.2588 7.6475 C10.2256 8.2549 10.167 8.8536 10.0859 9.4434 C10.0039 10.0332 9.8965 10.6143 9.7656 11.1895 C9.75 11.254 9.7129 11.2989 9.6562 11.3243 C9.5976 11.3487 9.5361 11.3575 9.4707 11.3487 C9.4052 11.3399 9.3437 11.3204 9.2871 11.2862 C9.2295 11.254 9.2002 11.2051 9.2002 11.1387 C9.2177 10.4346 9.0488 9.9551 8.6963 9.7012 C8.3437 9.4473 7.8476 9.3194 7.209 9.3194 C7.0615 9.3194 6.9131 9.3243 6.7666 9.3321 C6.6181 9.3409 6.4629 9.3536 6.2998 9.3672 C6.1181 9.3848 5.9511 9.3975 5.7959 9.4063 C5.6386 9.4141 5.4716 9.418 5.292 9.418 C5.1591 9.418 5.0439 9.418 4.9472 9.418 C4.8652 9.418 4.7588 9.4102 4.6269 9.3936 L4.6269 15.6885 C4.6269 16.4747 4.7461 17.0528 4.9843 17.4209 C5.2216 17.7911 5.75 17.959 6.5703 17.9258 L6.6181 18.3438 C5.6357 18.3926 4.6425 18.418 3.6435 18.418 C2.6103 18.418 1.5937 18.3926 0.5947 18.3438 C0.4297 18.3438 0.3457 18.2813 0.3369 18.1592 C0.3281 18.0372 0.4052 17.959 0.5703 17.9258 C0.9297 17.8594 1.209 17.7872 1.4052 17.7051 C1.6035 17.6231 1.7509 17.504 1.8486 17.3477 C1.9472 17.1934 2.0039 16.9864 2.0205 16.7334 C2.0371 16.4805 2.0449 16.1553 2.0449 15.7618 L2.0449 2.1397 C2.0449 1.8946 2.0205 1.7012 1.9716 1.5625 C1.9218 1.4229 1.8574 1.3165 1.7754 1.2422 C1.6933 1.168 1.5986 1.1153 1.4922 1.0821 C1.3847 1.0508 1.2666 1.0176 1.1357 0.9844 C0.9873 0.9512 0.832 0.9063 0.6679 0.8497 C0.5048 0.7911 0.3408 0.7139 0.1757 0.6153 C0.0449 0.5499 0 0.4649 0.042 0.3575 C0.082 0.251 0.1679 0.1973 0.2998 0.1973 C1.3642 0.2305 2.4179 0.251 3.459 0.2598 C4.5 0.2676 5.5537 0.2715 6.6181 0.2715 L9.2002 0.2715 C9.6269 0.2715 10.0615 0.1817 10.5039 0 L10.8974 0.1973 C10.8808 0.295 10.8681 0.418 10.8593 0.5665 Z" transform="translate(40.0098, 49.7314)"/>
   <path style="fill:#ffffff; fill-rule:nonzero;stroke:none;" d="M9.9199 11.0274 C9.913 11.0684 9.9082 11.1133 9.9082 11.1622 C9.875 11.4903 9.8427 11.8145 9.8105 12.1329 C9.7763 12.4532 9.6796 12.7598 9.5156 13.0547 C9.5634 13.0723 9.5966 13.0762 9.6132 13.0684 C9.6289 13.0606 9.663 13.0645 9.7119 13.0801 L9.6386 13.5225 C9.2607 13.4893 8.8798 13.4698 8.4941 13.461 C8.1084 13.4532 7.7285 13.4483 7.3515 13.4483 C6.9589 13.4483 6.5644 13.4483 6.1709 13.4483 C5.7929 13.4483 5.4082 13.4571 5.0146 13.4727 C4.6875 13.4727 4.3515 13.4776 4.0068 13.4854 C3.663 13.4942 3.3261 13.4981 3 13.4981 C2.1464 13.4981 1.3183 13.4727 0.5166 13.4239 C0.3515 13.4082 0.2744 13.3301 0.2812 13.1914 C0.29 13.0508 0.3759 12.9825 0.541 12.9825 C0.9824 12.9659 1.2783 12.8184 1.4257 12.5391 C1.5732 12.2608 1.6464 11.9082 1.6464 11.4825 L1.6464 1.4991 C1.6464 1.1231 1.5605 0.8887 1.3886 0.7989 C1.2168 0.709 1.041 0.6553 0.8593 0.6387 C0.7128 0.6221 0.5527 0.5938 0.3798 0.5528 C0.2089 0.5118 0.0966 0.4414 0.0488 0.3418 C0 0.2618 0.0029 0.1875 0.0615 0.1211 C0.1181 0.0567 0.2041 0.0235 0.3193 0.0235 L1.6953 0.0235 C1.9423 0.0235 2.1836 0.0196 2.4209 0.0118 C2.6582 0.003 2.9003 0 3.1474 0 C3.5068 0 3.872 0.0079 4.2412 0.0235 C4.6093 0.0411 4.9668 0.0977 5.3105 0.1954 C5.4414 0.2286 5.499 0.3067 5.4824 0.4297 C5.4658 0.5528 5.3837 0.6133 5.2363 0.6133 L4.9423 0.6133 C4.663 0.5811 4.4209 0.6426 4.2168 0.7989 C4.0107 0.9532 3.9082 1.1797 3.9082 1.4747 L3.9082 10.6456 C3.9082 10.9737 3.9795 11.2618 4.1171 11.5059 C4.2578 11.752 4.4375 11.9571 4.6582 12.1211 C4.8798 12.2842 5.1337 12.4082 5.4209 12.4903 C5.708 12.5723 6 12.6123 6.2939 12.6123 C6.9003 12.6123 7.4873 12.4571 8.0517 12.1465 C8.6181 11.834 9.0556 11.3926 9.3671 10.8174 C9.4492 10.7198 9.5634 10.6817 9.7119 10.7071 C9.8584 10.7315 9.9326 10.8018 9.9326 10.9161 C9.9326 10.9483 9.9287 10.9864 9.9199 11.0274 Z" transform="translate(51.9893, 53.3232)"/>
   <path style="fill:#ffffff; fill-rule:nonzero;stroke:none;" d="M13.3633 5.0771 C13.0772 4.2988 12.6748 3.6152 12.1582 3.0244 C11.6426 2.4336 11.0186 1.9658 10.2911 1.6221 C9.5616 1.2783 8.7539 1.1064 7.8682 1.1064 C7.0489 1.1064 6.2901 1.2373 5.5948 1.5 C4.8965 1.7627 4.2989 2.1357 3.7998 2.6191 C3.2979 3.1025 2.9092 3.6846 2.6319 4.3643 C2.3526 5.0439 2.2129 5.8115 2.2129 6.6631 C2.2129 7.5322 2.3604 8.3603 2.6563 9.1465 C2.9502 9.9336 3.3633 10.626 3.8965 11.2236 C4.4297 11.8232 5.0655 12.2978 5.8028 12.6494 C6.5401 13.0039 7.3594 13.1787 8.2618 13.1787 C9.0977 13.1787 9.8555 13.0439 10.5352 12.7734 C11.2159 12.502 11.7979 12.1182 12.2823 11.6182 C12.7647 11.1172 13.1368 10.5195 13.4004 9.8232 C13.6621 9.127 13.795 8.3603 13.795 7.5244 C13.795 6.6709 13.6495 5.8564 13.3633 5.0771 Z M15.2569 10.4375 C14.7735 11.2646 14.1416 11.958 13.3633 12.5156 C12.585 13.0723 11.7071 13.4912 10.7325 13.7686 C9.7579 14.0488 8.7774 14.1875 7.795 14.1875 C6.8116 14.1875 5.8467 14.0029 4.9053 13.6338 C3.962 13.2656 3.1299 12.7607 2.4092 12.1221 C1.6875 11.4824 1.1055 10.7246 0.6641 9.8477 C0.2207 8.9717 0 8.0244 0 7.0068 C0 5.8936 0.2422 4.9014 0.7246 4.0322 C1.208 3.1631 1.8409 2.4307 2.6192 1.832 C3.3965 1.2344 4.2823 0.7783 5.2735 0.4678 C6.2657 0.1572 7.2784 0 8.3116 0 C9.3272 0 10.2979 0.2061 11.2246 0.6143 C12.1504 1.0244 12.9659 1.5732 13.6709 2.2617 C14.375 2.9502 14.9375 3.7539 15.3555 4.6719 C15.7745 5.5898 15.9815 6.5557 15.9815 7.5732 C15.9815 8.6553 15.7393 9.6094 15.2569 10.4375 Z" transform="translate(63.1025, 52.9043)"/>
   <path style="fill:#ffffff; fill-rule:nonzero;stroke:none;" d="M22.7318 0.4551 C22.7068 0.5781 22.6128 0.6318 22.4478 0.6152 L21.9568 0.5898 C21.7268 0.5742 21.5469 0.6885 21.4161 0.9346 C21.0889 1.4101 20.8018 1.9433 20.5547 2.5322 C20.3096 3.123 20.0801 3.6963 19.8663 4.2539 C19.8018 4.4179 19.7403 4.5742 19.6827 4.7207 C19.625 4.8681 19.5801 5.0078 19.5469 5.1387 C19.4161 5.5 19.2891 5.8476 19.1651 6.1846 C19.044 6.5205 18.9161 6.8613 18.7852 7.2051 C18.375 8.3193 17.962 9.4297 17.543 10.5371 C17.126 11.6426 16.6866 12.6875 16.2276 13.6709 C16.1788 13.7539 16.0957 13.7988 15.9825 13.8056 C15.8672 13.8154 15.7764 13.7783 15.712 13.6972 C15.1045 12.6465 14.5469 11.5117 14.0401 10.29 C13.5323 9.0693 13.0645 7.8847 12.6377 6.7373 C12.4073 6.1465 12.2081 5.6387 12.0362 5.2119 C11.8643 4.7871 11.6553 4.2773 11.4082 3.6885 C11.0635 4.4258 10.7286 5.1679 10.3995 5.9131 C10.0713 6.6601 9.753 7.4092 9.4414 8.1631 C9.0489 9.0976 8.6504 10.0205 8.2491 10.9297 C7.8467 11.8388 7.4258 12.7539 6.9834 13.6709 C6.917 13.7539 6.8272 13.7939 6.712 13.7939 C6.5977 13.7939 6.5079 13.7539 6.4424 13.6709 C6.2774 13.3594 6.0977 12.9619 5.9014 12.4785 C5.7041 11.9961 5.5039 11.4668 5.2989 10.8926 C5.0928 10.3193 4.8809 9.7119 4.6582 9.0722 C4.4375 8.4336 4.2286 7.8027 4.0323 7.1797 C3.8194 6.541 3.5987 5.8847 3.3682 5.2119 C3.1387 4.541 2.917 3.9179 2.7041 3.3437 C2.4913 2.7695 2.2901 2.2656 2.1016 1.832 C1.9122 1.3974 1.753 1.0996 1.6221 0.9346 C1.5401 0.8359 1.4424 0.7754 1.3272 0.75 C1.212 0.7265 1.0987 0.6963 0.9834 0.664 C0.8194 0.6318 0.6719 0.5986 0.5411 0.5654 C0.4092 0.5332 0.2784 0.4668 0.1475 0.3691 C0.0323 0.3037 0 0.2256 0.0489 0.1347 C0.0977 0.0449 0.1954 0 0.3438 0 C1.1807 0 2.0166 0.0078 2.8516 0.0254 C3.6875 0.041 4.5245 0.0664 5.3594 0.0976 C5.5235 0.0976 5.6094 0.1601 5.6172 0.2832 C5.626 0.4062 5.5577 0.4834 5.4092 0.5166 C5.2784 0.5654 5.1309 0.5986 4.9659 0.6152 C4.8838 0.6318 4.7901 0.6445 4.6846 0.6513 C4.5782 0.6611 4.4834 0.7051 4.4004 0.7871 C4.5977 2.1963 4.9248 3.5976 5.3858 4.9922 C5.8428 6.3847 6.3194 7.7461 6.8106 9.0722 C6.8594 9.1885 6.8956 9.2822 6.9209 9.3554 C6.9463 9.4297 6.9707 9.499 6.9952 9.5644 C7.0196 9.6299 7.0489 9.7051 7.0811 9.7861 C7.1133 9.8681 7.1456 9.9746 7.1797 10.1054 C7.8995 8.4502 8.6172 6.7949 9.3301 5.1387 C10.043 3.4834 10.7696 1.8369 11.5069 0.1972 C11.5557 0.1152 11.6289 0.0742 11.7286 0.0742 C11.8418 0.0742 11.9327 0.1152 11.9991 0.1972 C12.6211 1.3125 13.1788 2.4717 13.6709 3.6758 C14.1631 4.8808 14.6377 6.0732 15.0957 7.2539 C15.1954 7.5332 15.2901 7.791 15.3799 8.0273 C15.4707 8.2656 15.5547 8.4961 15.6368 8.7168 C15.7198 8.9375 15.8057 9.164 15.8965 9.3926 C15.9864 9.6221 16.0879 9.8769 16.2032 10.1543 C16.2852 9.9258 16.376 9.6953 16.4737 9.4668 C16.5713 9.2373 16.6788 8.9922 16.794 8.7285 C17.0557 8.0732 17.3301 7.3808 17.6172 6.6513 C17.9043 5.9228 18.1661 5.1992 18.4043 4.4873 C18.6416 3.7744 18.8389 3.0976 18.9942 2.458 C19.1495 1.8193 19.2286 1.2617 19.2286 0.7871 C19.2286 0.7051 19.1202 0.6484 18.9082 0.6152 C18.6954 0.582 18.5225 0.5576 18.3916 0.542 C18.3428 0.542 18.3096 0.5371 18.293 0.5293 C18.2774 0.5205 18.253 0.5166 18.2198 0.5166 C18.0547 0.5166 17.9698 0.4512 17.962 0.3183 C17.9532 0.1875 18.0313 0.1152 18.1954 0.0976 C18.5723 0.0664 18.962 0.0615 19.3633 0.0859 C19.7647 0.1103 20.1534 0.123 20.5303 0.123 C20.8916 0.123 21.2403 0.1152 21.5762 0.0976 C21.9118 0.082 22.2428 0.1152 22.5728 0.1972 C22.7028 0.2461 22.7568 0.332 22.7318 0.4551 Z" transform="translate(78.3232, 53.3467)"/>
   <path style="fill:#ffffff; fill-rule:nonzero;stroke:none;" d="M8.827 13.5078 L8.631 13.6055 C8.532 13.6387 8.344 13.6543 8.064 13.6543 C7.786 13.6543 7.487 13.6514 7.168 13.6426 C6.848 13.6348 6.545 13.627 6.258 13.6172 C5.972 13.6104 5.769 13.6055 5.656 13.6055 C5.392 13.6055 5.13 13.6104 4.868 13.6172 C4.606 13.627 4.345 13.6299 4.082 13.6299 C3.492 13.6299 2.901 13.6348 2.311 13.6426 C1.721 13.6514 1.14 13.6387 0.566 13.6055 C0.419 13.5898 0.348 13.5117 0.356 13.373 C0.365 13.2324 0.442 13.1641 0.591 13.1641 C1.049 13.1475 1.352 13.0029 1.5 12.7324 C1.647 12.4629 1.721 12.1055 1.721 11.6641 L1.721 1.582 C1.721 1.3047 1.643 1.1191 1.488 1.0293 C1.333 0.9395 1.164 0.8779 0.984 0.8438 C0.852 0.8115 0.718 0.7793 0.578 0.7471 C0.438 0.7129 0.304 0.6563 0.172 0.5742 C0.041 0.5088 0 0.4268 0.05 0.3281 C0.099 0.2305 0.197 0.1816 0.344 0.1816 C0.491 0.1816 0.685 0.1846 0.923 0.1934 C1.16 0.2012 1.427 0.2051 1.721 0.2051 C2.196 0.2227 2.713 0.2334 3.27 0.2422 C3.828 0.25 4.392 0.2549 4.967 0.2549 C5.787 0.2549 6.532 0.2383 7.205 0.2051 C7.877 0.1719 8.327 0.1152 8.557 0.0332 C8.672 0 8.769 0.0088 8.852 0.0586 C8.934 0.1074 8.967 0.1719 8.95 0.2549 C8.917 0.5645 8.868 0.8535 8.804 1.1152 C8.737 1.377 8.672 1.6397 8.606 1.9023 C8.573 2.0176 8.549 2.123 8.532 2.2217 C8.515 2.3193 8.49 2.418 8.459 2.5166 C8.426 2.6309 8.327 2.6895 8.163 2.6895 C8 2.6895 7.909 2.623 7.892 2.4912 C7.877 2.2139 7.81 1.9922 7.696 1.8281 C7.581 1.6641 7.433 1.5371 7.254 1.4473 C7.073 1.3564 6.868 1.2949 6.639 1.2627 C6.409 1.2295 6.18 1.2129 5.951 1.2129 C5.818 1.2129 5.692 1.2168 5.569 1.2246 C5.446 1.2344 5.319 1.2383 5.188 1.2383 C5.073 1.2383 4.95 1.2422 4.819 1.25 C4.688 1.2588 4.558 1.2627 4.427 1.2627 L3.983 1.2627 L3.983 5.957 L6.934 5.957 C7.017 5.957 7.123 5.9307 7.254 5.873 C7.385 5.8154 7.524 5.7617 7.672 5.7129 L7.647 5.7129 C7.778 5.6475 7.897 5.5576 8.004 5.4434 C8.11 5.3281 8.213 5.2539 8.31 5.2207 C8.426 5.1895 8.519 5.2012 8.594 5.2578 C8.668 5.3145 8.696 5.3848 8.68 5.4668 C8.645 5.6797 8.619 5.9336 8.594 6.2295 C8.569 6.5244 8.541 6.7793 8.508 6.9902 C8.475 7.1875 8.442 7.3848 8.41 7.582 C8.377 7.7793 8.344 7.9922 8.31 8.2207 C8.295 8.3027 8.237 8.3604 8.14 8.3926 C8.041 8.4258 7.95 8.4092 7.869 8.3438 C7.672 8.2295 7.577 8.1514 7.586 8.1113 C7.594 8.0703 7.589 8.0078 7.574 7.9258 C7.524 7.7793 7.471 7.6387 7.414 7.5078 C7.355 7.377 7.303 7.2949 7.254 7.2627 C7.172 7.1973 7.008 7.1436 6.762 7.1016 C6.517 7.0605 6.242 7.0322 5.938 7.0166 C5.635 7 5.335 6.9902 5.041 6.9902 C4.746 6.9902 4.5 6.9902 4.303 6.9902 L3.983 6.9902 L3.983 11.7617 C4.245 12.1221 4.613 12.3848 5.09 12.5488 C5.565 12.7129 6.016 12.7939 6.442 12.7939 C6.967 12.7939 7.45 12.668 7.892 12.4121 C8.336 12.1592 8.631 11.7461 8.778 11.1709 C8.794 11.123 8.836 11.085 8.9 11.0605 C8.967 11.0361 9.032 11.0273 9.098 11.0361 C9.163 11.0449 9.225 11.0684 9.282 11.1094 C9.34 11.1514 9.36 11.1953 9.345 11.2451 L8.827 13.5078 Z" transform="translate(102.296, 53.1416)"/>
   <path style="fill:#ffffff; fill-rule:nonzero;stroke:none;" d="M7.88 2.9629 C7.741 2.5449 7.536 2.1806 7.266 1.8691 C6.995 1.5576 6.672 1.3076 6.293 1.1191 C5.917 0.9297 5.499 0.8359 5.04 0.8359 C4.647 0.8359 4.269 0.8847 3.911 0.9844 L3.911 6.9101 C4.188 6.9433 4.479 6.9668 4.783 6.9824 C5.085 6.999 5.376 7.0078 5.656 7.0078 C6.458 7.0078 7.065 6.7617 7.474 6.2695 C7.884 5.7783 8.089 5.1152 8.089 4.2773 C8.089 3.8203 8.019 3.3808 7.88 2.9629 Z M13.229 13.7939 C12.654 13.7939 12.138 13.7041 11.679 13.5234 C11.22 13.3437 10.802 13.1054 10.426 12.8105 C10.047 12.5156 9.696 12.1797 9.369 11.8027 C9.041 11.4258 8.72 11.04 8.409 10.6465 C8.13 10.2871 7.852 9.9414 7.573 9.6142 C7.294 9.2851 7 8.9922 6.688 8.7285 C6.409 8.4834 6.053 8.332 5.619 8.2744 C5.184 8.2168 4.786 8.1875 4.426 8.1875 C4.293 8.1875 4.208 8.1846 4.167 8.1758 C4.126 8.1679 4.042 8.1719 3.911 8.1875 L3.911 11.4336 C3.911 11.5 3.922 11.6015 3.946 11.7412 C3.971 11.8808 4 12.0273 4.032 12.1836 C4.065 12.3398 4.102 12.4785 4.143 12.6015 C4.184 12.7246 4.22 12.7949 4.254 12.8105 C4.303 12.8437 4.376 12.8594 4.475 12.8594 C4.589 12.8594 4.688 12.8681 4.77 12.8847 C4.917 12.9004 5.069 12.9209 5.225 12.9463 C5.38 12.9707 5.523 13.0312 5.656 13.1308 C5.787 13.1953 5.828 13.2773 5.778 13.3769 C5.729 13.4746 5.631 13.5234 5.484 13.5234 C4.647 13.5234 3.815 13.5195 2.987 13.5117 C2.16 13.5019 1.328 13.4746 0.492 13.4248 C0.343 13.4092 0.266 13.3398 0.258 13.2168 C0.25 13.0928 0.319 13.0156 0.467 12.9824 C0.729 12.9492 0.938 12.9131 1.094 12.8721 C1.25 12.831 1.369 12.7607 1.452 12.664 C1.532 12.5644 1.585 12.4199 1.61 12.2324 C1.635 12.0449 1.648 11.7929 1.648 11.4824 L1.648 1.5 C1.648 1.1074 1.561 0.8691 1.389 0.7871 C1.216 0.7051 1.041 0.6553 0.86 0.6387 C0.68 0.623 0.524 0.5986 0.393 0.5654 C0.261 0.5332 0.155 0.4512 0.075 0.3183 C0.008 0.2383 0 0.164 0.05 0.0976 C0.099 0.0332 0.188 0 0.319 0 L0.688 0 C0.869 0 1.057 0 1.253 0 C1.452 0 1.648 0.0078 1.844 0.0254 C2.106 0.041 2.352 0.0498 2.582 0.0498 C2.812 0.0498 3.057 0.0498 3.319 0.0498 L3.834 0.0498 C4 0.0498 4.159 0.0449 4.315 0.0371 C4.471 0.0283 4.638 0.0254 4.82 0.0254 C5.426 0.0254 6.061 0.0586 6.726 0.123 C7.389 0.1875 7.991 0.3359 8.532 0.5654 C9.073 0.7949 9.519 1.1308 9.873 1.5742 C10.224 2.0166 10.401 2.6152 10.401 3.3691 C10.401 3.7461 10.331 4.123 10.192 4.5 C10.052 4.8769 9.873 5.2383 9.651 5.582 C9.429 5.9258 9.183 6.25 8.914 6.5527 C8.643 6.8554 8.368 7.1308 8.089 7.3769 C8.335 7.623 8.577 7.8808 8.815 8.1504 C9.052 8.4219 9.294 8.7041 9.541 9 C9.933 9.4746 10.352 9.958 10.794 10.4502 C11.237 10.9424 11.695 11.3847 12.171 11.7773 C12.647 12.1719 13.13 12.4863 13.622 12.7246 C14.114 12.9619 14.605 13.0488 15.097 12.9824 L15.244 13.4004 C14.622 13.6631 13.949 13.7939 13.229 13.7939 Z" transform="translate(112.771, 53.3467)"/>
   <path style="fill:#ffffff; fill-rule:nonzero;stroke:none;" d="M7.671 11.8496 C7.295 12.3262 6.827 12.7276 6.269 13.0547 C5.712 13.3828 5.11 13.6328 4.463 13.8047 C3.815 13.9766 3.229 14.0635 2.705 14.0635 C2.442 14.0635 2.155 14.0391 1.845 13.9893 C1.532 13.9395 1.241 13.8496 0.97 13.7188 C0.7 13.5879 0.471 13.4112 0.283 13.1905 C0.094 12.9697 0 12.6865 0 12.3418 C0 12.1787 0.02 12.0098 0.061 11.8379 C0.102 11.666 0.155 11.4903 0.221 11.3086 C0.303 11.1299 0.352 10.9004 0.369 10.6211 C0.369 10.5557 0.401 10.5108 0.467 10.4854 C0.532 10.4619 0.597 10.4492 0.664 10.4492 C0.728 10.4492 0.791 10.4649 0.847 10.4981 C0.906 10.5313 0.934 10.5801 0.934 10.6465 L0.934 10.9405 C0.901 11.2842 0.962 11.584 1.119 11.8379 C1.274 12.0918 1.483 12.3047 1.746 12.4766 C2.008 12.6494 2.299 12.7764 2.619 12.8584 C2.938 12.9414 3.254 12.9824 3.565 12.9824 C3.827 12.9824 4.118 12.9356 4.438 12.8457 C4.757 12.7559 5.056 12.6289 5.336 12.4649 C5.615 12.3008 5.843 12.0957 6.024 11.8496 C6.204 11.6045 6.294 11.3184 6.294 10.9903 C6.294 10.6953 6.209 10.3994 6.037 10.1045 C5.864 9.8096 5.643 9.5069 5.373 9.1953 C5.102 8.8838 4.798 8.5801 4.463 8.2852 C4.126 7.9893 3.786 7.6953 3.442 7.4004 C3.05 7.0723 2.659 6.7363 2.274 6.3916 C1.888 6.0469 1.541 5.6992 1.229 5.3457 C0.918 4.9942 0.668 4.6426 0.479 4.2891 C0.29 3.9375 0.196 3.5723 0.196 3.1953 C0.196 2.5889 0.389 2.0801 0.775 1.6699 C1.159 1.2608 1.631 0.9336 2.188 0.6875 C2.745 0.4414 3.332 0.2656 3.946 0.1592 C4.561 0.0528 5.09 0 5.532 0 C6.237 0 6.926 0.0723 7.597 0.2207 C7.777 0.2539 7.851 0.336 7.819 0.4668 L7.819 1.1543 C7.819 1.4824 7.806 1.8145 7.782 2.1504 C7.758 2.4863 7.646 2.7608 7.45 2.9746 C7.351 3.0567 7.242 3.0801 7.118 3.0469 C6.995 3.0156 6.933 2.9414 6.933 2.8262 C6.933 2.5147 6.864 2.2451 6.724 2.0156 C6.585 1.7862 6.405 1.5899 6.184 1.4258 C5.963 1.2608 5.717 1.1387 5.446 1.0557 C5.176 0.9737 4.901 0.9336 4.623 0.9336 C4.344 0.9336 4.069 0.9795 3.799 1.0684 C3.528 1.1582 3.287 1.2852 3.073 1.4492 C2.859 1.6143 2.687 1.8184 2.556 2.0645 C2.426 2.3096 2.36 2.5889 2.36 2.9004 C2.36 3.1797 2.438 3.458 2.593 3.7363 C2.75 4.0147 2.955 4.2891 3.209 4.5606 C3.463 4.8301 3.745 5.0889 4.056 5.334 C4.368 5.5801 4.672 5.8184 4.967 6.0469 C5.343 6.3428 5.728 6.6406 6.122 6.9434 C6.515 7.2481 6.869 7.5723 7.179 7.916 C7.491 8.2608 7.745 8.6211 7.942 8.9981 C8.138 9.376 8.237 9.7764 8.237 10.2031 C8.237 10.8262 8.048 11.375 7.671 11.8496 Z" transform="translate(129.343, 53.0283)"/>
   <path style="fill:#ffffff; fill-rule:nonzero;stroke:none;" d="M13.363 5.0771 C13.077 4.2988 12.676 3.6152 12.158 3.0244 C11.643 2.4336 11.019 1.9658 10.291 1.6221 C9.561 1.2783 8.753 1.1064 7.869 1.1064 C7.05 1.1064 6.291 1.2373 5.595 1.5 C4.897 1.7627 4.299 2.1357 3.8 2.6191 C3.299 3.1025 2.91 3.6846 2.632 4.3643 C2.353 5.0439 2.214 5.8115 2.214 6.6631 C2.214 7.5322 2.36 8.3603 2.655 9.1465 C2.951 9.9336 3.364 10.626 3.897 11.2236 C4.431 11.8232 5.065 12.2978 5.803 12.6494 C6.54 13.0039 7.36 13.1787 8.262 13.1787 C9.099 13.1787 9.856 13.0439 10.536 12.7734 C11.216 12.502 11.799 12.1182 12.281 11.6182 C12.765 11.1172 13.138 10.5195 13.401 9.8232 C13.663 9.127 13.795 8.3603 13.795 7.5244 C13.795 6.6709 13.65 5.8564 13.363 5.0771 Z M15.258 10.4375 C14.773 11.2646 14.143 11.958 13.363 12.5156 C12.585 13.0723 11.708 13.4912 10.732 13.7686 C9.758 14.0488 8.778 14.1875 7.795 14.1875 C6.811 14.1875 5.848 14.0029 4.906 13.6338 C3.963 13.2656 3.131 12.7607 2.41 12.1221 C1.688 11.4824 1.106 10.7246 0.665 9.8477 C0.221 8.9717 0 8.0244 0 7.0068 C0 5.8936 0.242 4.9014 0.726 4.0322 C1.209 3.1631 1.841 2.4307 2.619 1.832 C3.397 1.2344 4.282 0.7783 5.274 0.4678 C6.267 0.1572 7.278 0 8.311 0 C9.327 0 10.299 0.2061 11.225 0.6143 C12.15 1.0244 12.966 1.5732 13.671 2.2617 C14.376 2.9502 14.937 3.7539 15.355 4.6719 C15.773 5.5898 15.982 6.5557 15.982 7.5732 C15.982 8.6553 15.74 9.6094 15.258 10.4375 Z" transform="translate(144.71, 52.9043)"/>
   <path style="fill:#ffffff; fill-rule:nonzero;stroke:none;" d="M9.159 0.2461 C9.159 0.2793 9.154 0.332 9.147 0.4063 C9.138 0.4785 9.131 0.5566 9.122 0.6387 C9.113 0.7207 9.11 0.7871 9.11 0.8359 C9.11 1 9.098 1.1797 9.072 1.377 C9.048 1.5742 9.016 1.7578 8.975 1.9297 C8.934 2.1016 8.876 2.2578 8.803 2.3965 C8.728 2.5371 8.643 2.6387 8.544 2.7041 C8.446 2.7539 8.348 2.7578 8.249 2.7168 C8.151 2.6758 8.102 2.6055 8.102 2.5078 C8.085 1.9844 7.913 1.6348 7.586 1.4629 C7.257 1.291 6.864 1.2051 6.405 1.2051 C6.175 1.2051 5.938 1.2168 5.692 1.2422 C5.446 1.2666 5.2 1.2949 4.955 1.3281 C4.725 1.3613 4.553 1.3848 4.438 1.4023 C4.323 1.418 4.159 1.4258 3.946 1.4258 L3.946 5.9238 L7.414 5.9238 C7.495 5.9238 7.618 5.8731 7.782 5.7656 C7.945 5.6592 8.068 5.5664 8.151 5.4834 C8.249 5.418 8.355 5.4063 8.471 5.4473 C8.585 5.4863 8.643 5.5566 8.643 5.6553 L8.643 5.9502 C8.643 6.1309 8.639 6.3398 8.631 6.5772 C8.622 6.8145 8.602 7.0527 8.569 7.29 C8.537 7.5273 8.482 7.75 8.409 7.9551 C8.335 8.1602 8.233 8.3027 8.102 8.3848 C8.003 8.4502 7.905 8.4629 7.807 8.4219 C7.709 8.3809 7.658 8.3106 7.658 8.2129 C7.676 7.7051 7.523 7.3633 7.204 7.1914 C6.885 7.0195 6.495 6.9336 6.036 6.9336 C5.905 6.9336 5.774 6.9375 5.643 6.9453 C5.512 6.9551 5.372 6.9668 5.225 6.9834 C5.094 6.999 4.962 7.0107 4.831 7.0195 C4.7 7.0273 4.56 7.0332 4.414 7.0332 C4.331 7.0332 4.25 7.0332 4.167 7.0332 C4.102 7.0332 4.028 7.0244 3.946 7.0078 L3.946 11.5566 C3.946 12.1797 4.048 12.6055 4.254 12.8359 C4.458 13.0645 4.873 13.1621 5.495 13.1309 C5.658 13.1309 5.749 13.1992 5.766 13.3398 C5.781 13.4785 5.708 13.5566 5.545 13.5723 C5.135 13.6055 4.725 13.6211 4.314 13.6211 C3.905 13.6211 3.495 13.6211 3.086 13.6211 C2.659 13.6211 2.237 13.6182 1.819 13.6094 C1.4 13.6016 0.978 13.5898 0.554 13.5723 C0.406 13.5723 0.323 13.5068 0.307 13.376 C0.291 13.2451 0.356 13.1621 0.504 13.1309 C0.766 13.0977 0.976 13.0566 1.131 13.0078 C1.286 12.957 1.405 12.8838 1.487 12.7852 C1.569 12.6875 1.623 12.5488 1.647 12.3682 C1.672 12.1875 1.684 11.9414 1.684 11.6309 L1.684 1.6231 C1.684 1.3106 1.606 1.1065 1.451 1.0078 C1.295 0.9092 1.126 0.8447 0.947 0.8106 C0.815 0.7783 0.688 0.7422 0.566 0.7012 C0.442 0.6602 0.315 0.6065 0.185 0.541 C0.053 0.5078 0 0.4346 0.024 0.3203 C0.049 0.2051 0.135 0.1484 0.283 0.1484 C1.069 0.1797 1.84 0.1973 2.594 0.1973 C3.364 0.1973 4.143 0.1973 4.931 0.1973 L7.709 0.1973 C7.889 0.1973 8.068 0.1836 8.249 0.1602 C8.43 0.1348 8.602 0.082 8.766 0 L9.159 0.2217 C9.159 0.1895 9.159 0.1973 9.159 0.2461 Z" transform="translate(161.836, 53.1748)"/>
   <path style="fill:#ffffff; fill-rule:nonzero;stroke:none;" d="M12.663 2.7676 C12.629 2.8808 12.531 2.9394 12.367 2.9394 C12.219 2.9394 12.13 2.8808 12.097 2.7676 C11.981 2.1933 11.716 1.8281 11.298 1.6728 C10.881 1.5156 10.408 1.4394 9.884 1.4394 C9.753 1.4394 9.622 1.4394 9.491 1.4394 C9.358 1.4394 9.219 1.4472 9.072 1.4629 C8.925 1.4804 8.768 1.4883 8.605 1.4883 C8.441 1.4883 8.277 1.4883 8.114 1.4883 C7.982 1.4883 7.905 1.4961 7.881 1.5136 C7.855 1.5293 7.785 1.5215 7.672 1.4883 L7.672 11.6679 C7.672 11.7168 7.683 11.8125 7.708 11.9502 C7.732 12.0898 7.757 12.2373 7.782 12.3926 C7.806 12.5488 7.835 12.6875 7.867 12.8105 C7.9 12.9345 7.933 13.0039 7.966 13.0195 L7.99 13.0195 C8.055 13.0527 8.158 13.0781 8.298 13.0937 C8.436 13.1103 8.555 13.1269 8.654 13.1426 C8.835 13.1601 9.003 13.1836 9.159 13.2158 C9.314 13.25 9.426 13.332 9.491 13.4629 C9.54 13.5449 9.54 13.6181 9.491 13.6836 C9.442 13.749 9.35 13.7822 9.219 13.7822 C8.384 13.7822 7.552 13.7734 6.724 13.7578 C5.896 13.7422 5.064 13.7168 4.229 13.6836 C4.081 13.6836 4.004 13.6181 3.995 13.4873 C3.987 13.3564 4.056 13.2734 4.205 13.2422 C4.45 13.209 4.655 13.1719 4.818 13.1308 C4.982 13.0898 5.105 13.0195 5.186 12.9219 C5.269 12.8232 5.326 12.6875 5.359 12.5156 C5.392 12.3428 5.409 12.1094 5.409 11.8144 L5.409 1.4629 L2.286 1.4629 C1.926 1.4629 1.594 1.5791 1.291 1.8066 C0.987 2.0381 0.745 2.3164 0.565 2.6435 C0.5 2.7412 0.4 2.7832 0.269 2.7676 C0.138 2.75 0.056 2.6924 0.024 2.5947 C0.007 2.5449 0 2.4385 0 2.2744 C0 2.0615 0.04 1.8164 0.122 1.5371 C0.204 1.2588 0.286 0.9961 0.369 0.75 C0.4 0.6679 0.429 0.5781 0.454 0.4804 C0.479 0.3808 0.508 0.2832 0.541 0.1855 C0.572 0.1025 0.631 0.0488 0.713 0.0254 C0.795 0 0.876 0.0058 0.958 0.0371 C1.024 0.0869 1.136 0.1308 1.291 0.1728 C1.446 0.2138 1.606 0.25 1.77 0.2832 C1.932 0.3164 2.093 0.3447 2.25 0.3691 C2.405 0.3935 2.532 0.4062 2.631 0.4062 L11.409 0.4062 C11.49 0.4062 11.596 0.3906 11.728 0.3574 C11.859 0.3242 11.99 0.291 12.122 0.2597 L12.097 0.2597 C12.146 0.2265 12.212 0.2051 12.294 0.1972 C12.376 0.1894 12.466 0.1777 12.563 0.1601 C12.776 0.1289 12.883 0.2011 12.883 0.3808 L12.883 0.7744 C12.883 1.4472 12.81 2.1113 12.663 2.7676 Z" transform="translate(178.052, 53.0635)"/>
   <path style="fill:#ffffff; fill-rule:nonzero;stroke:none;" d="M15.811 13.5225 C15.5 13.5059 15.192 13.502 14.889 13.5098 C14.585 13.5186 14.287 13.5225 13.992 13.5225 L12.763 13.5225 C12.483 13.5225 12.131 13.5137 11.705 13.4981 C11.278 13.4825 10.951 13.4161 10.722 13.3008 L10.992 12.9082 C11.123 12.9727 11.213 13.0059 11.263 13.0059 C11.393 13.0059 11.504 12.9532 11.595 12.8467 C11.684 12.7403 11.758 12.6045 11.816 12.4405 C11.873 12.2774 11.914 12.1084 11.938 11.9366 C11.963 11.7647 11.975 11.6133 11.975 11.4825 L11.975 6.5879 L3.911 6.5879 L3.911 11.4317 C3.911 12.0567 4.016 12.4815 4.23 12.711 C4.442 12.9414 4.861 13.0391 5.484 13.0059 L5.51 13.4483 C5.083 13.4649 4.669 13.4776 4.267 13.4854 C3.865 13.4942 3.46 13.4981 3.051 13.4981 C2.624 13.4981 2.206 13.4942 1.796 13.4854 C1.387 13.4776 0.968 13.4649 0.542 13.4483 C0.379 13.4483 0.288 13.3829 0.272 13.252 C0.255 13.1211 0.329 13.0391 0.492 13.0059 C0.755 12.9561 0.963 12.9122 1.12 12.8711 C1.275 12.8301 1.394 12.7579 1.477 12.6485 C1.558 12.544 1.611 12.4004 1.637 12.2198 C1.661 12.0391 1.674 11.793 1.674 11.4825 L1.674 1.4991 C1.674 1.1231 1.584 0.8926 1.402 0.8106 C1.223 0.7286 1.042 0.6788 0.861 0.6622 C0.698 0.6465 0.546 0.6221 0.407 0.5889 C0.267 0.5567 0.157 0.4747 0.075 0.3418 C0.01 0.2618 0 0.1875 0.051 0.1211 C0.1 0.0567 0.189 0.0235 0.321 0.0235 C1.107 0.0235 1.902 0.0274 2.707 0.0352 C3.509 0.044 4.305 0.0821 5.091 0.1465 C5.255 0.1622 5.332 0.2364 5.324 0.3672 C5.316 0.4991 5.23 0.5655 5.065 0.5655 C4.787 0.5811 4.525 0.6592 4.279 0.7989 C4.033 0.9375 3.911 1.1622 3.911 1.4747 L3.911 5.5547 L11.975 5.5547 L11.975 1.4991 C11.975 1.3028 11.947 1.1465 11.889 1.0313 C11.832 0.917 11.758 0.8272 11.669 0.7608 C11.578 0.6963 11.479 0.6553 11.373 0.6387 C11.266 0.6221 11.164 0.6133 11.065 0.6133 C10.869 0.5811 10.701 0.5567 10.561 0.5401 C10.422 0.5245 10.337 0.4239 10.304 0.2452 C10.27 0.0821 10.361 0 10.574 0 C11.378 0 12.181 0.0079 12.984 0.0235 C13.786 0.0411 14.582 0.0733 15.369 0.1211 C15.532 0.1387 15.618 0.2041 15.627 0.3184 C15.635 0.4336 15.557 0.5069 15.392 0.5401 C15.082 0.5889 14.807 0.6622 14.569 0.7608 C14.331 0.8594 14.214 1.0977 14.214 1.4747 L14.214 11.4317 C14.214 11.4981 14.222 11.6006 14.238 11.7393 C14.254 11.8789 14.278 12.0274 14.311 12.1817 C14.345 12.3379 14.382 12.4815 14.422 12.6123 C14.463 12.7442 14.509 12.8184 14.558 12.834 C14.64 12.8506 14.725 12.8623 14.815 12.8711 C14.906 12.8789 14.991 12.8829 15.073 12.8829 C15.221 12.8829 15.373 12.8956 15.528 12.92 C15.683 12.9444 15.837 13.0137 15.983 13.1289 L15.811 13.5225 Z" transform="translate(192.213, 53.3232)"/>
   <path style="fill:#ffffff; fill-rule:nonzero;stroke:none;" d="M8.827 13.5078 L8.631 13.6055 C8.532 13.6387 8.344 13.6543 8.065 13.6543 C7.786 13.6543 7.486 13.6514 7.168 13.6426 C6.847 13.6348 6.544 13.627 6.258 13.6172 C5.97 13.6104 5.769 13.6055 5.656 13.6055 C5.392 13.6055 5.13 13.6104 4.868 13.6172 C4.606 13.627 4.345 13.6299 4.081 13.6299 C3.492 13.6299 2.901 13.6348 2.311 13.6426 C1.72 13.6514 1.139 13.6387 0.565 13.6055 C0.418 13.5898 0.347 13.5117 0.356 13.373 C0.365 13.2324 0.442 13.1641 0.59 13.1641 C1.049 13.1475 1.352 13.0029 1.5 12.7324 C1.648 12.4629 1.72 12.1055 1.72 11.6641 L1.72 1.582 C1.72 1.3047 1.643 1.1191 1.488 1.0293 C1.332 0.9395 1.164 0.8779 0.983 0.8438 C0.852 0.8115 0.717 0.7793 0.578 0.7471 C0.438 0.7129 0.303 0.6563 0.172 0.5742 C0.041 0.5088 0 0.4268 0.049 0.3281 C0.097 0.2305 0.197 0.1816 0.344 0.1816 C0.491 0.1816 0.684 0.1846 0.923 0.1934 C1.16 0.2012 1.427 0.2051 1.72 0.2051 C2.196 0.2227 2.713 0.2334 3.27 0.2422 C3.827 0.25 4.392 0.2549 4.967 0.2549 C5.787 0.2549 6.532 0.2383 7.205 0.2051 C7.876 0.1719 8.327 0.1152 8.556 0.0332 C8.672 0 8.769 0.0088 8.851 0.0586 C8.933 0.1074 8.967 0.1719 8.95 0.2549 C8.917 0.5645 8.868 0.8535 8.803 1.1152 C8.737 1.377 8.672 1.6397 8.606 1.9023 C8.573 2.0176 8.549 2.123 8.532 2.2217 C8.514 2.3193 8.49 2.418 8.459 2.5166 C8.425 2.6309 8.327 2.6895 8.163 2.6895 C8 2.6895 7.908 2.623 7.892 2.4912 C7.876 2.2139 7.81 1.9922 7.696 1.8281 C7.581 1.6641 7.433 1.5371 7.254 1.4473 C7.074 1.3564 6.868 1.2949 6.638 1.2627 C6.409 1.2295 6.179 1.2129 5.951 1.2129 C5.818 1.2129 5.692 1.2168 5.569 1.2246 C5.446 1.2344 5.319 1.2383 5.188 1.2383 C5.073 1.2383 4.95 1.2422 4.819 1.25 C4.688 1.2588 4.557 1.2627 4.427 1.2627 L3.983 1.2627 L3.983 5.957 L6.934 5.957 C7.016 5.957 7.123 5.9307 7.254 5.873 C7.385 5.8154 7.524 5.7617 7.672 5.7129 L7.646 5.7129 C7.777 5.6475 7.897 5.5576 8.004 5.4434 C8.11 5.3281 8.213 5.2539 8.311 5.2207 C8.425 5.1895 8.519 5.2012 8.593 5.2578 C8.668 5.3145 8.696 5.3848 8.679 5.4668 C8.645 5.6797 8.619 5.9336 8.593 6.2295 C8.568 6.5244 8.54 6.7793 8.508 6.9902 C8.474 7.1875 8.442 7.3848 8.409 7.582 C8.377 7.7793 8.344 7.9922 8.311 8.2207 C8.294 8.3027 8.237 8.3604 8.138 8.3926 C8.041 8.4258 7.95 8.4092 7.869 8.3438 C7.672 8.2295 7.576 8.1514 7.586 8.1113 C7.594 8.0703 7.589 8.0078 7.574 7.9258 C7.524 7.7793 7.47 7.6387 7.414 7.5078 C7.355 7.377 7.303 7.2949 7.254 7.2627 C7.172 7.1973 7.008 7.1436 6.762 7.1016 C6.516 7.0605 6.242 7.0322 5.938 7.0166 C5.635 7 5.335 6.9902 5.041 6.9902 C4.746 6.9902 4.499 6.9902 4.303 6.9902 L3.983 6.9902 L3.983 11.7617 C4.245 12.1221 4.613 12.3848 5.09 12.5488 C5.565 12.7129 6.014 12.7939 6.441 12.7939 C6.966 12.7939 7.45 12.668 7.892 12.4121 C8.336 12.1592 8.631 11.7461 8.778 11.1709 C8.794 11.123 8.835 11.085 8.9 11.0605 C8.967 11.0361 9.031 11.0273 9.098 11.0361 C9.162 11.0449 9.224 11.0684 9.282 11.1094 C9.34 11.1514 9.36 11.1953 9.345 11.2451 L8.827 13.5078 Z" transform="translate(209.426, 53.1416)"/>
   <path style="fill:#ffffff; fill-rule:nonzero;stroke:none;" d="M19.1299 18.1827 C19.0811 18.2569 18.9912 18.293 18.8604 18.293 L15.3926 18.293 C15.2451 18.293 15.0489 18.293 14.8028 18.293 C14.5733 18.293 14.3262 18.2852 14.0645 18.2686 C13.8028 18.252 13.5576 18.2237 13.3272 18.1827 C13.0967 18.1426 12.917 18.0889 12.7862 18.0235 C12.6387 17.9571 12.6094 17.8633 12.7002 17.7403 C12.7901 17.6172 12.9004 17.5811 13.0323 17.6299 C13.1963 17.6954 13.3272 17.7276 13.4258 17.7276 C13.6065 17.7276 13.753 17.6465 13.8682 17.4825 C13.9834 17.3184 14.0782 17.1211 14.1504 16.8926 C14.2237 16.6622 14.2744 16.4297 14.2989 16.1914 C14.3233 15.9541 14.336 15.7539 14.336 15.5899 L14.336 8.8262 L4.5489 8.8262 L4.5489 15.5157 C4.5489 15.9092 4.5733 16.2481 4.624 16.5362 C4.6729 16.8223 4.7666 17.0557 4.9053 17.2364 C5.0449 17.417 5.2412 17.5518 5.4951 17.6416 C5.749 17.7325 6.0821 17.7618 6.4912 17.7276 C6.6553 17.712 6.7461 17.7774 6.7627 17.9258 C6.7783 18.0723 6.7041 18.1543 6.541 18.17 C5.5576 18.2207 4.5655 18.2442 3.5655 18.2442 C2.5323 18.2442 1.5157 18.2207 0.5166 18.17 C0.3692 18.1543 0.291 18.084 0.2832 17.961 C0.2744 17.8389 0.3438 17.7618 0.4922 17.7276 C0.8535 17.6641 1.1319 17.5899 1.3282 17.5069 C1.5244 17.4248 1.6729 17.3106 1.7705 17.1622 C1.8701 17.0157 1.9268 16.8184 1.9424 16.5723 C1.959 16.3262 1.9668 15.9991 1.9668 15.5899 L1.9668 1.9668 C1.9668 1.6885 1.9385 1.4668 1.8819 1.3038 C1.8242 1.1397 1.7461 1.0206 1.6485 0.9463 C1.5498 0.8731 1.4385 0.8243 1.3164 0.7989 C1.1934 0.7745 1.0742 0.7539 0.96 0.7383 C0.7295 0.7217 0.5371 0.6875 0.3809 0.6387 C0.2256 0.5899 0.1143 0.4834 0.0498 0.3194 C0 0.2373 0.0049 0.1641 0.0615 0.0987 C0.1192 0.0332 0.2041 0 0.3203 0 C1.2871 0 2.2412 0.0118 3.1846 0.0372 C4.127 0.0616 5.0742 0.1153 6.0244 0.1963 C6.1709 0.2129 6.2412 0.2911 6.2334 0.4307 C6.2246 0.5694 6.1475 0.6387 5.999 0.6387 C5.6231 0.6563 5.291 0.7706 5.0049 0.9844 C4.7158 1.1963 4.5733 1.5166 4.5733 1.9414 L4.5733 7.5977 L14.336 7.5977 L14.336 1.9668 C14.336 1.6885 14.294 1.4375 14.2119 1.2168 C14.1299 0.9961 13.9668 0.8526 13.7207 0.7872 C13.6231 0.7539 13.5323 0.7383 13.4492 0.7383 C13.2041 0.7217 12.9619 0.6875 12.7246 0.6387 C12.4873 0.5899 12.3526 0.459 12.3194 0.2461 C12.3028 0.1807 12.3282 0.1231 12.3936 0.0733 C12.459 0.0245 12.5323 0 12.6143 0 C13.5821 0 14.544 0.0088 15.503 0.0245 C16.4619 0.0411 17.417 0.0821 18.3682 0.1475 C18.5157 0.1641 18.5938 0.2325 18.6006 0.3565 C18.6094 0.4795 18.5401 0.5567 18.3916 0.5899 C17.9658 0.6719 17.6143 0.7901 17.336 0.9463 C17.0567 1.1036 16.918 1.4356 16.918 1.9414 L16.918 15.5157 C16.918 15.5977 16.9326 15.7403 16.9658 15.9454 C16.999 16.1504 17.0391 16.3633 17.0899 16.585 C17.1377 16.8067 17.1953 17.0079 17.2617 17.1875 C17.3272 17.3672 17.3916 17.4659 17.459 17.4825 C17.4903 17.5157 17.5684 17.5352 17.6914 17.543 C17.8155 17.5518 17.917 17.5645 17.999 17.5811 C18.1787 17.5967 18.3633 17.625 18.5528 17.6661 C18.7403 17.7081 18.9082 17.8018 19.0567 17.9493 C19.1553 18.0313 19.1787 18.1094 19.1299 18.1827 Z" transform="translate(69.7656, 79.3857)"/>
   <path style="fill:#ffffff; fill-rule:nonzero;stroke:none;" d="M8.8271 13.5068 L8.6309 13.6054 C8.5322 13.6386 8.3437 13.6543 8.0644 13.6543 C7.7861 13.6543 7.4873 13.6513 7.168 13.6435 C6.8476 13.6347 6.5439 13.6269 6.2578 13.6181 C5.9707 13.6103 5.7695 13.6054 5.6553 13.6054 C5.3935 13.6054 5.1299 13.6103 4.8682 13.6181 C4.6055 13.6269 4.3437 13.6308 4.081 13.6308 C3.4922 13.6308 2.9014 13.6347 2.3115 13.6435 C1.7207 13.6513 1.1387 13.6386 0.5654 13.6054 C0.418 13.5888 0.3476 13.5117 0.3564 13.373 C0.3652 13.2334 0.4424 13.163 0.5898 13.163 C1.0488 13.1474 1.3525 13.0039 1.5 12.7324 C1.6475 12.4629 1.7207 12.1054 1.7207 11.663 L1.7207 1.583 C1.7207 1.3037 1.6435 1.1191 1.4873 1.0293 C1.333 0.9394 1.1641 0.8769 0.9834 0.8447 C0.8516 0.8125 0.7168 0.7793 0.5781 0.7461 C0.4385 0.7129 0.3027 0.6562 0.1728 0.5742 C0.04 0.5088 0 0.4257 0.0488 0.3281 C0.0986 0.2304 0.1973 0.1816 0.3437 0.1816 C0.4912 0.1816 0.6846 0.1855 0.9228 0.1933 C1.1601 0.2011 1.4267 0.205 1.7207 0.205 C2.1963 0.2226 2.7129 0.2343 3.2695 0.2421 C3.8271 0.25 4.3926 0.2539 4.9678 0.2539 C5.7871 0.2539 6.5322 0.2382 7.2051 0.205 C7.8769 0.1718 8.3271 0.1152 8.5566 0.0332 C8.6719 0 8.7695 0.0097 8.8516 0.0576 C8.9346 0.1064 8.9658 0.1718 8.9502 0.2539 C8.918 0.5654 8.8691 0.8535 8.8027 1.1152 C8.7383 1.3769 8.6719 1.6406 8.6064 1.9023 C8.5723 2.0175 8.5488 2.123 8.5322 2.2207 C8.5156 2.3203 8.4902 2.4179 8.459 2.5156 C8.4248 2.6318 8.3271 2.6884 8.1631 2.6884 C8 2.6884 7.9082 2.623 7.8926 2.4921 C7.8769 2.2129 7.8105 1.9921 7.6963 1.8281 C7.582 1.664 7.4336 1.5371 7.2539 1.4472 C7.0732 1.3574 6.8682 1.2959 6.6387 1.2627 C6.4092 1.2304 6.1797 1.2129 5.9502 1.2129 C5.8184 1.2129 5.6924 1.2168 5.5693 1.2246 C5.4453 1.2343 5.3184 1.2382 5.1875 1.2382 C5.0732 1.2382 4.9502 1.2421 4.8193 1.25 C4.6885 1.2578 4.5576 1.2627 4.4267 1.2627 L3.9824 1.2627 L3.9824 5.958 L6.9336 5.958 C7.0166 5.958 7.123 5.9306 7.2539 5.873 C7.3848 5.8154 7.5244 5.7617 7.6709 5.7129 L7.6465 5.7129 C7.7773 5.6474 7.8965 5.5576 8.0029 5.4433 C8.1103 5.3281 8.2129 5.2548 8.3105 5.2216 C8.4248 5.1884 8.5195 5.2002 8.5937 5.2578 C8.668 5.3154 8.6963 5.3857 8.6797 5.4677 C8.6465 5.6806 8.6182 5.9336 8.5937 6.2285 C8.5693 6.5244 8.54 6.7793 8.5078 6.9921 C8.4746 7.1884 8.4414 7.3847 8.4092 7.582 C8.376 7.7773 8.3437 7.9921 8.3105 8.2207 C8.2939 8.3027 8.2373 8.3603 8.1387 8.3925 C8.04 8.4257 7.9502 8.4091 7.8682 8.3437 C7.6709 8.2285 7.5771 8.1523 7.585 8.1113 C7.5937 8.0683 7.5889 8.0078 7.5732 7.9257 C7.5244 7.7773 7.4707 7.6406 7.4131 7.5078 C7.3564 7.3769 7.3027 7.2949 7.2539 7.2617 C7.1709 7.1963 7.0078 7.1425 6.7617 7.1015 C6.5166 7.0615 6.2412 7.0332 5.9385 7.0175 C5.6338 7 5.3359 6.9921 5.04 6.9921 C4.7461 6.9921 4.5 6.9921 4.3027 6.9921 L3.9824 6.9921 L3.9824 11.7617 C4.2451 12.123 4.6142 12.3847 5.0898 12.5488 C5.5654 12.7129 6.0156 12.7949 6.4414 12.7949 C6.9668 12.7949 7.4502 12.6679 7.8926 12.413 C8.335 12.1601 8.6309 11.7451 8.7783 11.1709 C8.7939 11.123 8.835 11.0859 8.9004 11.0615 C8.9658 11.0361 9.0312 11.0273 9.0976 11.0361 C9.1621 11.0449 9.2246 11.0693 9.2822 11.1093 C9.3398 11.1513 9.3594 11.1972 9.3437 11.2461 L8.8271 13.5068 Z" transform="translate(89.3379, 82.6475)"/>
   <path style="fill:#ffffff; fill-rule:nonzero;stroke:none;" d="M7.6717 11.8516 C7.2937 12.3282 6.8257 12.7285 6.2697 13.0576 C5.7127 13.3848 5.1097 13.6348 4.4617 13.8067 C3.8147 13.9785 3.2287 14.0655 2.7037 14.0655 C2.4427 14.0655 2.1557 14.041 1.8437 13.9922 C1.5317 13.9414 1.2407 13.8516 0.9707 13.7207 C0.6997 13.5889 0.4707 13.4141 0.2827 13.1934 C0.0947 12.9707 0 12.6875 0 12.3438 C0 12.1807 0.0195 12.0117 0.0605 11.8399 C0.1015 11.668 0.1552 11.4922 0.2207 11.3125 C0.3027 11.1309 0.3517 10.9024 0.3677 10.6231 C0.3677 10.5576 0.4017 10.5117 0.4657 10.4883 C0.5317 10.4639 0.5977 10.4512 0.6637 10.4512 C0.7287 10.4512 0.7897 10.4678 0.8477 10.5 C0.9047 10.5332 0.9337 10.5821 0.9337 10.6485 L0.9337 10.9434 C0.9007 11.2862 0.9627 11.586 1.1177 11.8399 C1.2737 12.0948 1.4837 12.3067 1.7447 12.4785 C2.0077 12.6514 2.2987 12.7793 2.6177 12.8604 C2.9387 12.9434 3.2537 12.9834 3.5657 12.9834 C3.8267 12.9834 4.1177 12.9385 4.4377 12.8477 C4.7577 12.7578 5.0567 12.6319 5.3347 12.4668 C5.6137 12.3028 5.8437 12.0987 6.0237 11.8516 C6.2037 11.6055 6.2937 11.3203 6.2937 10.9922 C6.2937 10.6973 6.2077 10.4004 6.0357 10.1065 C5.8647 9.8125 5.6427 9.5088 5.3717 9.1973 C5.1017 8.8848 4.7977 8.5821 4.4617 8.2871 C4.1267 7.9922 3.7857 7.6973 3.4417 7.4014 C3.0477 7.0742 2.6577 6.7383 2.2747 6.3926 C1.8887 6.0489 1.5397 5.7012 1.2297 5.3487 C0.9177 4.9961 0.6667 4.6446 0.4797 4.292 C0.2907 3.9395 0.1962 3.5752 0.1962 3.1973 C0.1962 2.5899 0.3897 2.0821 0.7737 1.6729 C1.1587 1.2637 1.6297 0.9346 2.1887 0.6895 C2.7447 0.4434 3.3307 0.2676 3.9467 0.1612 C4.5607 0.0537 5.0897 0 5.5317 0 C6.2377 0 6.9247 0.0742 7.5977 0.2217 C7.7777 0.2559 7.8517 0.3379 7.8187 0.4688 L7.8187 1.1563 C7.8187 1.4844 7.8067 1.8164 7.7817 2.1524 C7.7567 2.4883 7.6467 2.7637 7.4497 2.9756 C7.3517 3.0576 7.2397 3.0821 7.1177 3.0489 C6.9947 3.0166 6.9337 2.9434 6.9337 2.8282 C6.9337 2.5176 6.8637 2.2461 6.7237 2.0176 C6.5857 1.7881 6.4057 1.5918 6.1827 1.4278 C5.9617 1.2637 5.7167 1.1407 5.4467 1.0586 C5.1757 0.9756 4.9007 0.9346 4.6217 0.9346 C4.3427 0.9346 4.0697 0.9805 3.7987 1.0703 C3.5287 1.1602 3.2857 1.2881 3.0737 1.4512 C2.8607 1.6153 2.6877 1.8203 2.5567 2.0664 C2.4247 2.3125 2.3607 2.5899 2.3607 2.9024 C2.3607 3.1817 2.4377 3.461 2.5937 3.7383 C2.7497 4.0176 2.9527 4.292 3.2077 4.5625 C3.4617 4.8321 3.7447 5.0908 4.0567 5.3369 C4.3667 5.583 4.6707 5.8203 4.9657 6.0489 C5.3437 6.3438 5.7287 6.6436 6.1217 6.9473 C6.5157 7.25 6.8667 7.5742 7.1797 7.918 C7.4907 8.2617 7.7447 8.6231 7.9417 9 C8.1377 9.378 8.2377 9.7793 8.2377 10.2051 C8.2377 10.8282 8.0477 11.377 7.6717 11.8516 Z" transform="translate(99.7393, 82.5322)"/>
   <path style="fill:#ffffff; fill-rule:nonzero;stroke:none;" d="M9.786 4.9541 C9.54 5.4883 9.212 5.9512 8.802 6.3438 C8.392 6.7373 7.913 7.0489 7.364 7.2774 C6.814 7.5079 6.245 7.6211 5.655 7.6211 C5.441 7.6211 5.237 7.6075 5.04 7.5723 C4.844 7.5411 4.655 7.5079 4.474 7.4746 C4.311 7.4414 4.236 7.3643 4.254 7.2413 C4.269 7.1182 4.36 7.0567 4.524 7.0567 L4.991 7.0567 C5.434 7.0567 5.846 6.9913 6.232 6.8604 C6.618 6.7295 6.954 6.5411 7.241 6.295 C7.527 6.0489 7.753 5.7452 7.918 5.3848 C8.08 5.0245 8.162 4.6075 8.162 4.1309 C8.162 3.6885 8.09 3.2715 7.942 2.877 C7.794 2.4834 7.589 2.1387 7.327 1.8438 C7.064 1.5508 6.749 1.3125 6.38 1.1309 C6.012 0.9512 5.606 0.8614 5.163 0.8614 C4.932 0.8614 4.717 0.8809 4.512 0.9219 C4.306 0.9629 4.105 1.0166 3.909 1.0821 L3.909 11.4092 C3.909 11.458 3.922 11.5528 3.945 11.6914 C3.97 11.8321 4.004 11.9746 4.045 12.1231 C4.085 12.2696 4.123 12.4082 4.155 12.5401 C4.187 12.6719 4.22 12.7539 4.254 12.7852 C4.336 12.8194 4.442 12.8399 4.573 12.8477 C4.704 12.8555 4.811 12.8682 4.892 12.8848 C5.09 12.917 5.265 12.9454 5.421 12.9707 C5.577 12.9952 5.687 13.0733 5.754 13.2041 C5.803 13.2862 5.803 13.3594 5.754 13.4258 C5.703 13.4903 5.621 13.5235 5.508 13.5235 C4.671 13.5235 3.839 13.5157 3.012 13.5 C2.183 13.4825 1.351 13.458 0.516 13.4258 C0.352 13.4258 0.266 13.3594 0.258 13.2286 C0.249 13.0967 0.328 13.0157 0.492 12.9825 C0.754 12.9336 0.963 12.8887 1.118 12.8477 C1.273 12.8067 1.392 12.7325 1.474 12.626 C1.557 12.5196 1.61 12.377 1.635 12.1954 C1.659 12.0157 1.671 11.7696 1.671 11.458 L1.671 1.4024 C1.671 1.0577 1.586 0.8496 1.414 0.7735 C1.242 0.7012 1.065 0.6553 0.885 0.6397 C0.72 0.6231 0.565 0.5996 0.417 0.5655 C0.269 0.5332 0.155 0.4512 0.073 0.3194 C0.008 0.2383 0 0.1641 0.049 0.0977 C0.097 0.0332 0.187 0 0.319 0 L0.737 0 L2.311 0 C2.491 0 2.658 0.0039 2.815 0.0127 C2.97 0.0215 3.138 0.0254 3.319 0.0254 L4.081 0.0254 C4.245 0.0254 4.401 0.0215 4.549 0.0127 C4.696 0.0039 4.86 0 5.04 0 C5.647 0 6.253 0.0332 6.86 0.0977 C7.466 0.1641 8.015 0.3106 8.507 0.5411 C8.999 0.7715 9.396 1.0987 9.7 1.5254 C10.004 1.9512 10.154 2.5332 10.154 3.2715 C10.154 3.8604 10.031 4.4229 9.786 4.9541 Z" transform="translate(109.009, 82.8525)"/>
   <path style="fill:#ffffff; fill-rule:nonzero;stroke:none;" d="M8.828 13.5068 L8.631 13.6054 C8.534 13.6386 8.344 13.6543 8.066 13.6543 C7.787 13.6543 7.488 13.6513 7.168 13.6435 C6.848 13.6347 6.545 13.6269 6.259 13.6181 C5.971 13.6103 5.771 13.6054 5.656 13.6054 C5.394 13.6054 5.131 13.6103 4.869 13.6181 C4.608 13.6269 4.344 13.6308 4.082 13.6308 C3.492 13.6308 2.902 13.6347 2.313 13.6435 C1.722 13.6513 1.14 13.6386 0.567 13.6054 C0.419 13.5888 0.35 13.5117 0.357 13.373 C0.367 13.2334 0.444 13.163 0.591 13.163 C1.05 13.1474 1.354 13.0039 1.501 12.7324 C1.649 12.4629 1.722 12.1054 1.722 11.663 L1.722 1.583 C1.722 1.3037 1.645 1.1191 1.49 1.0293 C1.332 0.9394 1.164 0.8769 0.985 0.8447 C0.854 0.8125 0.718 0.7793 0.578 0.7461 C0.44 0.7129 0.304 0.6562 0.173 0.5742 C0.042 0.5088 0 0.4257 0.05 0.3281 C0.099 0.2304 0.198 0.1816 0.345 0.1816 C0.493 0.1816 0.686 0.1855 0.923 0.1933 C1.16 0.2011 1.427 0.205 1.722 0.205 C2.198 0.2226 2.713 0.2343 3.272 0.2421 C3.828 0.25 4.394 0.2539 4.968 0.2539 C5.787 0.2539 6.534 0.2382 7.205 0.205 C7.877 0.1718 8.327 0.1152 8.558 0.0332 C8.671 0 8.771 0.0097 8.853 0.0576 C8.935 0.1064 8.967 0.1718 8.951 0.2539 C8.918 0.5654 8.869 0.8535 8.804 1.1152 C8.739 1.3769 8.671 1.6406 8.607 1.9023 C8.575 2.0175 8.549 2.123 8.534 2.2207 C8.516 2.3203 8.492 2.4179 8.459 2.5156 C8.427 2.6318 8.327 2.6884 8.164 2.6884 C8 2.6884 7.909 2.623 7.894 2.4921 C7.877 2.2129 7.811 1.9921 7.697 1.8281 C7.582 1.664 7.435 1.5371 7.255 1.4472 C7.074 1.3574 6.869 1.2959 6.639 1.2627 C6.409 1.2304 6.181 1.2129 5.951 1.2129 C5.82 1.2129 5.694 1.2168 5.571 1.2246 C5.447 1.2343 5.321 1.2382 5.19 1.2382 C5.075 1.2382 4.951 1.2421 4.821 1.25 C4.689 1.2578 4.557 1.2627 4.426 1.2627 L3.985 1.2627 L3.985 5.958 L6.935 5.958 C7.016 5.958 7.123 5.9306 7.255 5.873 C7.386 5.8154 7.525 5.7617 7.672 5.7129 L7.648 5.7129 C7.779 5.6474 7.899 5.5576 8.005 5.4433 C8.112 5.3281 8.213 5.2548 8.313 5.2216 C8.427 5.1884 8.521 5.2002 8.594 5.2578 C8.669 5.3154 8.698 5.3857 8.681 5.4677 C8.647 5.6806 8.618 5.9336 8.594 6.2285 C8.57 6.5244 8.54 6.7793 8.509 6.9921 C8.476 7.1884 8.444 7.3847 8.409 7.582 C8.376 7.7773 8.344 7.9921 8.313 8.2207 C8.295 8.3027 8.238 8.3603 8.141 8.3925 C8.041 8.4257 7.951 8.4091 7.869 8.3437 C7.672 8.2285 7.577 8.1523 7.586 8.1113 C7.595 8.0683 7.59 8.0078 7.575 7.9257 C7.525 7.7773 7.471 7.6406 7.414 7.5078 C7.357 7.3769 7.304 7.2949 7.255 7.2617 C7.173 7.1963 7.008 7.1425 6.763 7.1015 C6.517 7.0615 6.242 7.0332 5.939 7.0175 C5.635 7 5.337 6.9921 5.041 6.9921 C4.745 6.9921 4.501 6.9921 4.304 6.9921 L3.985 6.9921 L3.985 11.7617 C4.246 12.123 4.615 12.3847 5.09 12.5488 C5.566 12.7129 6.017 12.7949 6.443 12.7949 C6.967 12.7949 7.451 12.6679 7.894 12.413 C8.336 12.1601 8.631 11.7451 8.778 11.1709 C8.795 11.123 8.836 11.0859 8.902 11.0615 C8.967 11.0361 9.033 11.0273 9.098 11.0361 C9.163 11.0449 9.226 11.0693 9.283 11.1093 C9.34 11.1513 9.361 11.1972 9.344 11.2461 L8.828 13.5068 Z" transform="translate(120.195, 82.6475)"/>
   <path style="fill:#ffffff; fill-rule:nonzero;stroke:none;" d="M7.88 2.9639 C7.741 2.545 7.536 2.1797 7.266 1.8692 C6.995 1.5577 6.671 1.3077 6.294 1.1182 C5.916 0.9307 5.499 0.836 5.04 0.836 C4.647 0.836 4.269 0.8848 3.91 0.9844 L3.91 6.9092 C4.187 6.9434 4.478 6.9668 4.782 6.9834 C5.085 7 5.376 7.0079 5.654 7.0079 C6.458 7.0079 7.065 6.7618 7.475 6.2696 C7.884 5.7793 8.089 5.1143 8.089 4.2784 C8.089 3.8194 8.019 3.3809 7.88 2.9639 Z M13.228 13.795 C12.654 13.795 12.139 13.7032 11.68 13.5235 C11.22 13.3428 10.803 13.1055 10.426 12.8106 C10.048 12.5157 9.696 12.1797 9.368 11.8028 C9.039 11.4258 8.72 11.0411 8.409 10.6465 C8.13 10.2871 7.851 9.9424 7.572 9.6153 C7.294 9.2871 6.999 8.9922 6.686 8.7286 C6.408 8.4825 6.052 8.3321 5.618 8.2735 C5.183 8.2168 4.786 8.1875 4.425 8.1875 C4.294 8.1875 4.208 8.1836 4.168 8.1758 C4.126 8.168 4.041 8.1719 3.91 8.1875 L3.91 11.4336 C3.91 11.4991 3.922 11.6026 3.946 11.7413 C3.971 11.8809 3.999 12.0274 4.032 12.1836 C4.065 12.3399 4.101 12.4786 4.143 12.6016 C4.183 12.7246 4.221 12.795 4.254 12.8106 C4.304 12.8438 4.376 12.8594 4.475 12.8594 C4.59 12.8594 4.686 12.8682 4.769 12.8848 C4.917 12.9004 5.068 12.9219 5.225 12.9454 C5.38 12.9707 5.523 13.0323 5.654 13.1299 C5.785 13.1954 5.827 13.2774 5.778 13.376 C5.729 13.4746 5.63 13.5235 5.483 13.5235 C4.647 13.5235 3.814 13.5196 2.987 13.5118 C2.16 13.503 1.328 13.4746 0.492 13.4258 C0.344 13.4102 0.267 13.3399 0.258 13.2168 C0.25 13.0938 0.319 13.0157 0.468 12.9825 C0.729 12.9502 0.938 12.9141 1.094 12.8731 C1.249 12.8321 1.368 12.7618 1.451 12.6631 C1.531 12.5645 1.586 12.4219 1.61 12.2325 C1.635 12.045 1.646 11.795 1.646 11.4825 L1.646 1.5 C1.646 1.1075 1.561 0.8692 1.389 0.7871 C1.218 0.7051 1.04 0.6553 0.86 0.6397 C0.68 0.6231 0.523 0.5996 0.392 0.5655 C0.262 0.5332 0.155 0.4512 0.073 0.3194 C0.008 0.2383 0 0.1641 0.049 0.0977 C0.099 0.0332 0.188 0 0.319 0 L0.688 0 C0.868 0 1.057 0 1.253 0 C1.451 0 1.646 0.0079 1.845 0.0254 C2.106 0.0411 2.351 0.0489 2.581 0.0489 C2.811 0.0489 3.058 0.0489 3.319 0.0489 L3.835 0.0489 C3.999 0.0489 4.158 0.045 4.315 0.0371 C4.471 0.0293 4.639 0.0254 4.819 0.0254 C5.426 0.0254 6.061 0.0586 6.725 0.1231 C7.388 0.1885 7.991 0.336 8.532 0.5655 C9.073 0.795 9.518 1.1309 9.872 1.5743 C10.225 2.0157 10.401 2.6153 10.401 3.3692 C10.401 3.7461 10.331 4.1221 10.191 4.5 C10.053 4.877 9.872 5.2383 9.65 5.5821 C9.43 5.9258 9.183 6.2491 8.913 6.5528 C8.643 6.8565 8.368 7.1309 8.089 7.377 C8.336 7.6211 8.576 7.8809 8.815 8.1504 C9.052 8.4219 9.294 8.7051 9.54 8.9991 C9.933 9.4746 10.35 9.959 10.795 10.4512 C11.236 10.9414 11.694 11.3848 12.171 11.7784 C12.645 12.1719 13.13 12.4873 13.622 12.7246 C14.113 12.9629 14.605 13.0489 15.097 12.9825 L15.244 13.4004 C14.622 13.6631 13.95 13.795 13.228 13.795 Z" transform="translate(130.671, 82.8525)"/>
   <path style="fill:#ffffff; fill-rule:nonzero;stroke:none;" d="M5.208 13.4571 C4.913 13.4415 4.622 13.4415 4.335 13.4571 C4.048 13.4747 3.749 13.4747 3.437 13.4571 L2.503 13.4336 C2.372 13.4336 2.209 13.4415 2.011 13.4571 C1.815 13.4747 1.606 13.4903 1.384 13.5059 C1.164 13.5225 0.95 13.5274 0.745 13.5196 C0.54 13.5108 0.381 13.4825 0.266 13.4336 C0.119 13.3829 0.077 13.2813 0.142 13.125 C0.208 12.9698 0.314 12.9082 0.463 12.9405 C0.545 12.9737 0.613 12.9786 0.672 12.9532 C0.729 12.9288 0.773 12.9161 0.807 12.9161 C0.938 12.9161 1.048 12.8633 1.139 12.7559 C1.229 12.6504 1.299 12.5157 1.347 12.3516 C1.396 12.1875 1.434 12.0235 1.459 11.8594 C1.483 11.6954 1.495 11.5479 1.495 11.4161 L1.495 1.4082 C1.495 1.0821 1.36 0.8477 1.09 0.7071 C0.819 0.5694 0.537 0.4825 0.242 0.4512 C0.077 0.4336 0 0.3633 0.007 0.2403 C0.016 0.1192 0.101 0.0489 0.266 0.0313 C0.66 0 1.052 0 1.446 0.0313 C1.84 0.0645 2.224 0.0821 2.601 0.0821 C2.978 0.0821 3.347 0.0645 3.708 0.0313 C4.068 0 4.437 0 4.815 0.0313 C4.964 0.0489 5.04 0.1133 5.048 0.2286 C5.056 0.3438 4.987 0.4161 4.84 0.4512 C4.511 0.4991 4.233 0.5733 4.003 0.6719 C3.773 0.7696 3.659 1.0157 3.659 1.4082 L3.659 11.3428 C3.659 11.4082 3.671 11.5069 3.696 11.6377 C3.72 11.7696 3.749 11.9082 3.782 12.0567 C3.814 12.2032 3.855 12.3418 3.905 12.4737 C3.954 12.6055 3.994 12.6954 4.027 12.7442 C4.077 12.7608 4.151 12.7774 4.249 12.793 C4.347 12.8096 4.437 12.8184 4.519 12.8184 C4.7 12.8184 4.859 12.8301 5 12.8555 C5.138 12.879 5.273 12.9493 5.405 13.0635 L5.208 13.4571 Z" transform="translate(147.223, 82.9189)"/>
   <path style="fill:#ffffff; fill-rule:nonzero;stroke:none;" d="M12.611 4.5352 C12.208 3.7402 11.671 3.084 11 2.5684 C10.328 2.0508 9.549 1.6641 8.664 1.4014 C7.78 1.1387 6.853 1.0078 5.886 1.0078 C5.558 1.0078 5.23 1.0234 4.903 1.0566 C4.575 1.0898 4.247 1.1543 3.919 1.2539 L3.919 10.7441 C3.919 11.2031 3.98 11.5635 4.104 11.8262 C4.226 12.0879 4.407 12.2852 4.645 12.416 C4.882 12.5469 5.164 12.6299 5.492 12.6621 C5.821 12.6953 6.189 12.7109 6.599 12.7109 C7.467 12.7109 8.304 12.6133 9.108 12.416 C9.909 12.2188 10.615 11.9043 11.221 11.4688 C11.828 11.0352 12.312 10.4766 12.673 9.7969 C13.032 9.1172 13.213 8.2852 13.213 7.3008 C13.213 6.2529 13.012 5.3301 12.611 4.5352 Z M14.738 9.9316 C14.261 10.834 13.622 11.5635 12.82 12.1211 C12.017 12.6777 11.081 13.0801 10.016 13.3252 C8.95 13.5723 7.836 13.6953 6.673 13.6953 C6.197 13.6953 5.717 13.6816 5.234 13.6572 C4.751 13.6338 4.271 13.6055 3.795 13.5723 C3.271 13.5391 2.721 13.5059 2.149 13.4727 C1.575 13.4404 1.033 13.4336 0.526 13.4492 C0.362 13.4492 0.271 13.3828 0.255 13.252 C0.239 13.1201 0.313 13.0391 0.477 13.0059 C0.968 12.9238 1.283 12.7773 1.423 12.5635 C1.562 12.3516 1.632 11.9648 1.632 11.4082 L1.632 1.4258 C1.632 1.0977 1.533 0.8926 1.336 0.8105 C1.14 0.7285 0.944 0.6719 0.747 0.6377 C0.6 0.6055 0.455 0.5703 0.317 0.5283 C0.177 0.4873 0.082 0.416 0.034 0.3184 C0 0.2373 0.009 0.168 0.059 0.1094 C0.107 0.0527 0.19 0.0234 0.304 0.0234 C0.534 0.0234 0.759 0.0273 0.981 0.0361 C1.201 0.0449 1.427 0.0566 1.658 0.0723 C1.951 0.0898 2.263 0.1064 2.59 0.1211 C2.918 0.1387 3.221 0.1465 3.5 0.1465 C4.205 0.1465 4.918 0.1211 5.64 0.0723 C5.984 0.0566 6.357 0.041 6.758 0.0234 C7.159 0.0078 7.533 0 7.878 0 C8.533 0 9.28 0.1348 10.115 0.4043 C10.95 0.6758 11.746 1.043 12.5 1.5107 C13.253 1.9785 13.906 2.5313 14.454 3.1719 C15.003 3.8105 15.319 4.4902 15.401 5.2119 C15.435 5.4414 15.45 5.6787 15.45 5.9238 C15.45 6.1543 15.45 6.3838 15.45 6.6133 C15.45 7.9238 15.213 9.0322 14.738 9.9316 Z" transform="translate(153.946, 82.8291)"/>
   <path style="fill:#ffffff; fill-rule:nonzero;stroke:none;" d="M8.826 13.5068 L8.629 13.6054 C8.531 13.6386 8.343 13.6543 8.064 13.6543 C7.786 13.6543 7.486 13.6513 7.167 13.6435 C6.847 13.6347 6.544 13.6269 6.257 13.6181 C5.97 13.6103 5.768 13.6054 5.654 13.6054 C5.392 13.6054 5.129 13.6103 4.867 13.6181 C4.604 13.6269 4.343 13.6308 4.081 13.6308 C3.491 13.6308 2.9 13.6347 2.31 13.6435 C1.72 13.6513 1.139 13.6386 0.564 13.6054 C0.417 13.5888 0.347 13.5117 0.355 13.373 C0.363 13.2334 0.441 13.163 0.59 13.163 C1.048 13.1474 1.351 13.0039 1.498 12.7324 C1.646 12.4629 1.72 12.1054 1.72 11.663 L1.72 1.583 C1.72 1.3037 1.642 1.1191 1.486 1.0293 C1.331 0.9394 1.163 0.8769 0.982 0.8447 C0.851 0.8125 0.716 0.7793 0.577 0.7461 C0.437 0.7129 0.303 0.6562 0.172 0.5742 C0.04 0.5088 0 0.4257 0.048 0.3281 C0.097 0.2304 0.195 0.1816 0.344 0.1816 C0.49 0.1816 0.684 0.1855 0.921 0.1933 C1.159 0.2011 1.425 0.205 1.72 0.205 C2.195 0.2226 2.712 0.2343 3.269 0.2421 C3.826 0.25 4.392 0.2539 4.965 0.2539 C5.785 0.2539 6.531 0.2382 7.203 0.205 C7.876 0.1718 8.326 0.1152 8.556 0.0332 C8.671 0 8.768 0.0097 8.85 0.0576 C8.933 0.1064 8.966 0.1718 8.95 0.2539 C8.916 0.5654 8.867 0.8535 8.802 1.1152 C8.736 1.3769 8.671 1.6406 8.604 1.9023 C8.572 2.0175 8.547 2.123 8.531 2.2207 C8.515 2.3203 8.49 2.4179 8.457 2.5156 C8.424 2.6318 8.326 2.6884 8.162 2.6884 C7.999 2.6884 7.908 2.623 7.892 2.4921 C7.876 2.2129 7.809 1.9921 7.696 1.8281 C7.58 1.664 7.433 1.5371 7.252 1.4472 C7.072 1.3574 6.867 1.2959 6.639 1.2627 C6.408 1.2304 6.179 1.2129 5.95 1.2129 C5.818 1.2129 5.69 1.2168 5.568 1.2246 C5.445 1.2343 5.318 1.2382 5.187 1.2382 C5.072 1.2382 4.949 1.2421 4.818 1.25 C4.687 1.2578 4.556 1.2627 4.425 1.2627 L3.982 1.2627 L3.982 5.958 L6.933 5.958 C7.015 5.958 7.121 5.9306 7.252 5.873 C7.384 5.8154 7.523 5.7617 7.67 5.7129 L7.646 5.7129 C7.777 5.6474 7.895 5.5576 8.003 5.4433 C8.108 5.3281 8.212 5.2548 8.309 5.2216 C8.424 5.1884 8.519 5.2002 8.593 5.2578 C8.666 5.3154 8.695 5.3857 8.678 5.4677 C8.645 5.6806 8.617 5.9336 8.593 6.2285 C8.568 6.5244 8.54 6.7793 8.506 6.9921 C8.474 7.1884 8.441 7.3847 8.408 7.582 C8.375 7.7773 8.343 7.9921 8.309 8.2207 C8.293 8.3027 8.236 8.3603 8.138 8.3925 C8.04 8.4257 7.949 8.4091 7.868 8.3437 C7.67 8.2285 7.576 8.1523 7.585 8.1113 C7.592 8.0683 7.588 8.0078 7.572 7.9257 C7.523 7.7773 7.47 7.6406 7.412 7.5078 C7.354 7.3769 7.302 7.2949 7.252 7.2617 C7.17 7.1963 7.007 7.1425 6.76 7.1015 C6.516 7.0615 6.241 7.0332 5.937 7.0175 C5.634 7 5.334 6.9921 5.04 6.9921 C4.745 6.9921 4.499 6.9921 4.301 6.9921 L3.982 6.9921 L3.982 11.7617 C4.245 12.123 4.613 12.3847 5.089 12.5488 C5.564 12.7129 6.015 12.7949 6.44 12.7949 C6.966 12.7949 7.449 12.6679 7.892 12.413 C8.334 12.1601 8.629 11.7451 8.777 11.1709 C8.793 11.123 8.835 11.0859 8.899 11.0615 C8.966 11.0361 9.03 11.0273 9.098 11.0361 C9.162 11.0449 9.224 11.0693 9.281 11.1093 C9.338 11.1513 9.359 11.1972 9.343 11.2461 L8.826 13.5068 Z" transform="translate(170.504, 82.6475)"/>
   <path style="fill:#ffffff; fill-rule:nonzero;stroke:none;" d="M7.673 11.8516 C7.294 12.3282 6.828 12.7285 6.272 13.0576 C5.713 13.3848 5.111 13.6348 4.464 13.8067 C3.816 13.9785 3.23 14.0655 2.705 14.0655 C2.443 14.0655 2.156 14.041 1.845 13.9922 C1.534 13.9414 1.243 13.8516 0.972 13.7207 C0.701 13.5889 0.472 13.4141 0.285 13.1934 C0.095 12.9707 0 12.6875 0 12.3438 C0 12.1807 0.021 12.0117 0.063 11.8399 C0.103 11.668 0.156 11.4922 0.222 11.3125 C0.304 11.1309 0.353 10.9024 0.369 10.6231 C0.369 10.5576 0.403 10.5117 0.468 10.4883 C0.534 10.4639 0.599 10.4512 0.664 10.4512 C0.73 10.4512 0.791 10.4678 0.849 10.5 C0.907 10.5332 0.935 10.5821 0.935 10.6485 L0.935 10.9434 C0.903 11.2862 0.963 11.586 1.119 11.8399 C1.276 12.0948 1.485 12.3067 1.746 12.4785 C2.008 12.6514 2.299 12.7793 2.619 12.8604 C2.94 12.9434 3.254 12.9834 3.567 12.9834 C3.828 12.9834 4.12 12.9385 4.439 12.8477 C4.758 12.7578 5.058 12.6319 5.337 12.4668 C5.616 12.3028 5.844 12.0987 6.025 11.8516 C6.205 11.6055 6.295 11.3203 6.295 10.9922 C6.295 10.6973 6.209 10.4004 6.037 10.1065 C5.866 9.8125 5.644 9.5088 5.373 9.1973 C5.103 8.8848 4.8 8.5821 4.464 8.2871 C4.127 7.9922 3.788 7.6973 3.444 7.4014 C3.05 7.0742 2.66 6.7383 2.275 6.3926 C1.889 6.0489 1.542 5.7012 1.23 5.3487 C0.919 4.9961 0.668 4.6446 0.481 4.292 C0.291 3.9395 0.198 3.5752 0.198 3.1973 C0.198 2.5899 0.391 2.0821 0.776 1.6729 C1.16 1.2637 1.632 0.9346 2.19 0.6895 C2.745 0.4434 3.332 0.2676 3.949 0.1612 C4.562 0.0537 5.09 0 5.534 0 C6.237 0 6.926 0.0742 7.599 0.2217 C7.779 0.2559 7.852 0.3379 7.82 0.4688 L7.82 1.1563 C7.82 1.4844 7.808 1.8164 7.784 2.1524 C7.759 2.4883 7.648 2.7637 7.451 2.9756 C7.353 3.0576 7.243 3.0821 7.119 3.0489 C6.996 3.0166 6.936 2.9434 6.936 2.8282 C6.936 2.5176 6.866 2.2461 6.726 2.0176 C6.586 1.7881 6.407 1.5918 6.185 1.4278 C5.963 1.2637 5.718 1.1407 5.447 1.0586 C5.178 0.9756 4.903 0.9346 4.623 0.9346 C4.345 0.9346 4.071 0.9805 3.8 1.0703 C3.529 1.1602 3.287 1.2881 3.075 1.4512 C2.862 1.6153 2.69 1.8203 2.558 2.0664 C2.426 2.3125 2.362 2.5899 2.362 2.9024 C2.362 3.1817 2.439 3.461 2.595 3.7383 C2.75 4.0176 2.955 4.292 3.209 4.5625 C3.464 4.8321 3.746 5.0908 4.057 5.3369 C4.369 5.583 4.673 5.8203 4.968 6.0489 C5.345 6.3438 5.731 6.6436 6.123 6.9473 C6.516 7.25 6.868 7.5742 7.18 7.918 C7.493 8.2617 7.745 8.6231 7.943 9 C8.139 9.378 8.238 9.7793 8.238 10.2051 C8.238 10.8282 8.049 11.377 7.673 11.8516 Z" transform="translate(180.903, 82.5322)"/>
   <path style="fill:#ffffff; fill-rule:nonzero;stroke:none;" d="M55.3271 16.043 L51.5087 8.20313 C52.04 7.12696 51.3974 3.99024 50.7011 2.42774 C49.8955 0.639649 48.6445 0.438477 47.4677 0.981446 C46.2705 1.48731 45.7128 2.67286 46.6376 4.38965 C47.4619 5.89747 49.538 8.25977 50.7431 8.54493 L54.6621 16.3408 C54.7666 16.5469 54.9951 16.6445 55.1796 16.5645 C55.3603 16.4805 55.4287 16.2481 55.3271 16.043 Z M39.8203 15.4297 L45.1523 22.3369 C45.291 22.5195 45.5371 22.5723 45.7001 22.4551 C45.8623 22.3379 45.8828 22.0967 45.7451 21.9121 L40.5039 14.9453 C40.8154 13.7822 39.5849 10.8223 38.6054 9.41993 C37.4716 7.82325 36.2128 7.86524 35.163 8.625 C34.0908 9.36329 33.7334 10.583 34.9873 12.1143 C36.0673 13.4199 38.583 15.3789 39.8203 15.4297 Z M25.0195 21.9053 C26.3242 22.9824 29.1826 24.4473 30.4033 24.2588 L36.9404 30.0332 C37.1123 30.1836 37.3652 30.1895 37.5009 30.0449 C37.6386 29.8975 37.6123 29.6543 37.4423 29.502 L30.9775 23.6504 C31.0634 22.4492 29.2919 19.7725 28.0634 18.582 C26.6474 17.2266 25.4209 17.5078 24.538 18.4531 C23.6376 19.3887 23.496 20.6377 25.0195 21.9053 Z M23.2656 33.9981 C23.124 32.7988 20.8779 30.5039 19.4462 29.5635 C17.7998 28.5 16.6494 29.0069 15.9619 30.1035 C15.2636 31.1953 15.3408 32.4395 17.0791 33.4024 C18.5625 34.211 21.6543 35.1152 22.8164 34.7031 L30.3212 39.1387 C30.5195 39.2559 30.7666 39.2129 30.874 39.0469 C30.9834 38.875 30.9111 38.6445 30.7148 38.5235 L23.2656 33.9981 Z M17.6386 45.6074 C17.2724 44.459 14.6337 42.6289 13.0498 41.9766 C11.2334 41.2393 10.2001 41.957 9.7334 43.167 C9.26758 44.374 9.55078 45.5742 11.4423 46.1914 C13.0488 46.7051 16.2753 47.0176 17.3339 46.3887 L25.5429 49.3281 C25.7597 49.4053 25.9931 49.3164 26.0654 49.1328 C26.1406 48.9453 26.0244 48.7295 25.8095 48.6485 L17.6386 45.6074 Z M14.3183 58.0762 C13.7363 57.0176 10.7949 55.7207 9.11621 55.3828 C7.19336 55.0039 6.31836 55.9063 6.09571 57.1826 C5.87012 58.461 6.3877 59.586 8.33106 59.8301 C10.0303 60.0293 13.249 59.7188 14.1679 58.9024 L22.791 60.2246 C23.0146 60.2608 23.2294 60.1299 23.2626 59.9336 C23.2998 59.7363 23.1445 59.5479 22.9189 59.5098 L14.3183 58.0762 Z M13.4365 70.9492 C12.6572 70.0205 9.51465 69.3086 7.80078 69.293 C5.84082 69.2891 5.16211 70.3389 5.19434 71.6348 C5.22559 72.9317 5.95606 73.9365 7.91114 73.8037 C9.61621 73.6797 12.7168 72.7637 13.4541 71.7861 L22.1669 71.4473 C22.3955 71.4395 22.5761 71.2695 22.5722 71.0703 C22.5673 70.8672 22.3798 70.711 22.1503 70.7168 L13.4365 70.9492 Z M23.5117 81.8916 L14.9921 83.7529 C14.038 82.9912 10.8154 82.8819 9.13086 83.1914 C7.20508 83.5547 6.74414 84.7139 7.03223 85.9746 C7.32227 87.2363 8.23828 88.0811 10.1337 87.586 C11.788 87.1426 14.6533 85.6641 15.1806 84.5684 L23.6757 82.6035 C23.8964 82.5508 24.04 82.3526 23.997 82.1572 C23.9531 81.961 23.7343 81.8418 23.5117 81.8916 Z M26.9248 92.6065 L18.9121 96.0449 C17.8212 95.4805 14.625 95.9863 13.0302 96.6055 C11.2089 97.3291 10.9853 98.5469 11.5214 99.7276 C12.0556 100.911 13.1259 101.565 14.8925 100.72 C16.4326 99.9711 18.9541 97.9805 19.2587 96.8096 L27.2275 93.2715 C27.4375 93.1787 27.541 92.9551 27.455 92.7715 C27.373 92.5908 27.1347 92.5195 26.9248 92.6065 Z M22.0595 112.716 C23.4277 111.688 25.5234 109.254 25.5927 108.049 L32.7402 103.061 C32.9306 102.928 32.9863 102.692 32.8701 102.53 C32.7509 102.366 32.5039 102.34 32.3144 102.468 L25.1044 107.369 C23.9209 107.026 20.8671 108.141 19.4423 109.039 C17.7646 110.112 17.8027 111.334 18.5478 112.393 C19.3046 113.448 20.4863 113.883 22.0595 112.716 Z M31.3671 123.129 C32.5166 121.86 34.1123 119.074 33.9501 117.879 L40.0253 111.626 C40.1845 111.461 40.1953 111.218 40.0488 111.08 C39.9023 110.946 39.6513 110.967 39.4892 111.128 L33.3378 117.309 C32.1074 117.201 29.3408 118.853 28.1113 120.008 C26.6699 121.376 26.9091 122.599 27.8584 123.481 C28.7998 124.37 30.0419 124.572 31.3671 123.129 Z M44.0146 125.954 L48.8046 118.668 C48.9277 118.477 48.8935 118.237 48.7216 118.13 C48.5527 118.025 48.3115 118.094 48.1826 118.281 L43.3037 125.513 C42.0742 125.641 39.6777 127.772 38.6845 129.141 C37.5283 130.755 37.9794 131.927 39.0869 132.602 C40.1806 133.297 41.4375 133.261 42.4658 131.596 C43.3584 130.131 44.4003 127.097 44.0146 125.954 Z M41.6347 8.14063 L49.373 20.0518 C49.5029 20.2481 49.746 20.3272 49.9169 20.2246 C50.0849 20.1231 50.121 19.8779 49.9951 19.6777 L42.4072 7.68067 C42.8574 6.48926 41.8544 3.31446 40.9599 1.78516 C39.9267 0.043945 38.5957 0 37.413 0.72168 C36.2236 1.42774 35.707 2.65332 36.871 4.33985 C37.875 5.77344 40.3339 8.00293 41.6347 8.14063 Z M30.7939 16.7481 L40.6376 26.9883 C40.8007 27.1572 41.0556 27.1895 41.2021 27.0567 C41.3496 26.9219 41.3388 26.6738 41.1757 26.5049 L31.4638 16.1455 C31.6806 14.8867 30.1015 11.9619 28.9355 10.6309 C27.5888 9.11329 26.2753 9.32422 25.2539 10.2549 C24.2236 11.1807 23.9326 12.4668 25.3964 13.9063 C26.6474 15.1221 29.4941 16.8594 30.7939 16.7481 Z M15.9238 25.4688 C17.3828 26.4258 20.5283 27.6104 21.7763 27.2481 L33.3701 35.4434 C33.5654 35.5811 33.8173 35.5615 33.9365 35.4024 C34.0566 35.2442 33.999 35.0039 33.8085 34.8652 L22.3134 26.5274 C22.288 25.249 20.1835 22.6719 18.788 21.586 C17.1816 20.3477 15.9306 20.8057 15.1044 21.916 C14.2783 23.0283 14.2089 24.3301 15.9238 25.4688 Z M8.80762 38.6309 C10.4462 39.3027 13.75 39.8633 14.9082 39.2686 L27.8505 45.1094 C28.0654 45.2051 28.3105 45.1416 28.3964 44.9639 C28.4834 44.7832 28.3798 44.5596 28.165 44.459 L15.2988 38.457 C15.0273 37.207 12.4668 35.0762 10.8896 34.2715 C9.07813 33.3633 7.94043 34.0488 7.34375 35.3027 C6.7461 36.5508 6.93653 37.8516 8.80762 38.6309 Z M4.36524 52.9151 C6.10157 53.2637 9.4541 53.1836 10.4648 52.376 L24.2783 55.6494 C24.5087 55.7041 24.7353 55.5918 24.7822 55.4004 C24.833 55.209 24.6875 55.0059 24.458 54.9483 L10.6826 51.5059 C10.1709 50.3281 7.24707 48.7207 5.5459 48.2344 C3.59473 47.6865 2.61621 48.5801 2.27735 49.9229 C1.93946 51.2666 2.38086 52.5059 4.36524 52.9151 Z M8.56836 66.0801 L22.7568 66.7012 C22.9912 66.711 23.1904 66.5606 23.1992 66.3604 C23.208 66.1621 23.0253 65.9902 22.788 65.9766 L8.61231 65.1817 C7.87696 64.1201 4.69239 63.0938 2.92871 62.9346 C0.90918 62.7637 0.128906 63.8223 0.0644532 65.2012 C0 66.583 0.676758 67.7168 2.7041 67.7481 C4.47364 67.7656 7.73438 67.0596 8.56836 66.0801 Z M9.2666 79.8945 L23.3125 77.8262 C23.5478 77.7901 23.7128 77.6035 23.6826 77.4102 C23.6494 77.2129 23.4335 77.0811 23.2001 77.1113 L9.12793 79.0078 C8.19336 78.1074 4.86621 77.6973 3.1045 77.8731 C1.08985 78.086 0.53418 79.2754 0.744141 80.6436 C0.955078 82.0156 1.84571 83 3.84082 82.6465 C5.58399 82.3281 8.64746 81.0166 9.2666 79.8945 Z M12.582 93.336 L25.9755 88.627 C26.1992 88.5469 26.3232 88.334 26.2539 88.1485 C26.1865 87.9639 25.9482 87.874 25.7246 87.9473 L12.2714 92.4912 C11.1757 91.7881 7.81543 92.0274 6.14844 92.5254 C4.17969 93.127 3.88672 94.3906 4.3545 95.6973 C4.8291 96.9981 5.89649 97.792 7.78711 97.0654 C9.4375 96.4219 12.1914 94.5527 12.582 93.336 Z M30.6503 98.7363 C30.8544 98.6152 30.9375 98.3828 30.833 98.2139 C30.7275 98.044 30.4785 98.002 30.2724 98.1172 L17.9238 105.129 C16.7099 104.649 13.4824 105.505 11.9355 106.314 C10.121 107.28 10.0371 108.593 10.7607 109.774 C11.4716 110.958 12.6738 111.533 14.3945 110.462 C15.8935 109.518 18.2412 107.162 18.3916 105.896 L30.6503 98.7363 Z M37.1591 107.789 C37.3369 107.633 37.373 107.389 37.2373 107.244 C37.1044 107.097 36.8496 107.101 36.6679 107.254 L25.8593 116.469 C24.5751 116.227 21.58 117.665 20.2119 118.754 C18.6152 120.042 18.7617 121.363 19.7041 122.376 C20.6289 123.405 21.914 123.742 23.4033 122.366 C24.6962 121.158 26.5556 118.405 26.4668 117.134 L37.1591 107.789 Z M45.2568 115.453 C45.4013 115.266 45.3896 115.019 45.2304 114.903 C45.0712 114.784 44.8222 114.837 44.6718 115.025 L35.791 126.112 C34.4794 126.121 31.8222 128.084 30.6806 129.41 C29.3584 130.974 29.7373 132.263 30.8623 133.072 C31.9658 133.907 33.2968 133.993 34.498 132.364 C35.541 130.93 36.8457 127.877 36.5175 126.647 L45.2568 115.453 Z M54.6425 121.444 L48.1875 134.093 C48.746 135.237 48.0449 138.477 47.2959 140.08 C46.4248 141.91 45.1025 142.08 43.8544 141.473 C42.5888 140.903 41.9912 139.67 42.9873 137.902 C43.8652 136.366 46.0888 133.958 47.373 133.704 L53.9873 121.131 C54.0996 120.924 54.3339 120.824 54.5126 120.908 C54.6923 120.993 54.75 121.234 54.6425 121.444 Z" transform="translate(-0.0605469, 0.211914)"/>
  </g>
 </g>
</svg>
