<?xml version="1.0" standalone="no"?>
<!DOCTYPE svg PUBLIC "-//W3C//DTD SVG 1.1//EN" "http://www.w3.org/Graphics/SVG/1.1/DTD/svg11.dtd" >
<svg xmlns="http://www.w3.org/2000/svg">
<metadata>
Created by FontForge 20120731 at Fri Jul  5 22:36:12 2013
 By U-Satellite\Mark Steward,S-1-5-21-1128129371-352943777-2290033669-1000
Copyright (c) 2001, Jeremy Tankard. All rights reserved.
</metadata>
<defs>
<font id="Bliss-Regular" horiz-adv-x="524" >
  <font-face 
    font-family="Bliss"
    font-weight="400"
    font-stretch="normal"
    units-per-em="1000"
    panose-1="2 0 5 3 0 0 0 0 0 0"
    ascent="800"
    descent="-200"
    x-height="473"
    cap-height="659"
    bbox="-50 -237 1141 853"
    underline-thickness="20"
    underline-position="-133"
    unicode-range="U+0020-FB02"
  />
<missing-glyph horiz-adv-x="500" 
 />
    <glyph glyph-name=".notdef" horiz-adv-x="500" 
 />
    <glyph glyph-name=".null" horiz-adv-x="0" 
 />
    <glyph glyph-name="nonmarkingreturn" horiz-adv-x="333" 
 />
    <glyph glyph-name="space" unicode=" " horiz-adv-x="246" 
 />
    <glyph glyph-name="exclam" unicode="!" horiz-adv-x="276" 
d="M184 601q0 -180 -4.5 -256.5t-19.5 -170.5h-42q-15 91 -19.5 167.5t-4.5 260.5v57h90v-58zM198 49q0 -26 -17 -43.5t-42 -17.5t-42 17.5t-17 43.5t17 44t42 18t42 -18t17 -44z" />
    <glyph glyph-name="quotedbl" unicode="&#x22;" horiz-adv-x="362" 
d="M306 708l-11 -219h-66l-13 219h90zM148 708l-11 -219h-66l-13 219h90z" />
    <glyph glyph-name="numbersign" unicode="#" horiz-adv-x="678" 
d="M642 419h-142l-36 -168h126v-76h-142l-38 -175h-86l37 175h-113l-38 -175h-86l37 175h-123v76h139l36 168h-123v76h139l36 164h86l-35 -164h114l35 164h86l-35 -164h126v-76zM413 419h-113l-36 -168h113z" />
    <glyph glyph-name="dollar" unicode="$" 
d="M453 181q0 -64 -43.5 -107.5t-115.5 -55.5v-98h-76v96q-82 6 -147 49l39 70q64 -45 135 -45q46 0 80 21t34 64q0 33 -25 60.5t-58 44t-75 42.5t-66 52q-46 50 -46 117q0 58 39 100.5t107 53.5v95h75v-93q66 -5 112 -30v-86q-69 42 -141 42q-46 0 -74.5 -20t-28.5 -59
q0 -33 28.5 -60t69 -48.5t80.5 -46.5t68.5 -65.5t28.5 -92.5z" />
    <glyph glyph-name="percent" unicode="%" horiz-adv-x="843" 
d="M780 169q0 -85 -44.5 -131.5t-112.5 -46.5t-110.5 46t-42.5 131t44.5 131.5t112.5 46.5t110.5 -46t42.5 -131zM375 491q0 -85 -44.5 -131.5t-113.5 -46.5q-67 0 -110 46t-43 130q0 85 44.5 132t112.5 47t111 -46.5t43 -130.5zM699 168q0 118 -76 118q-35 0 -53.5 -30.5
t-18.5 -85.5q0 -119 76 -119q72 0 72 117zM293 489q0 118 -76 118q-34 0 -52.5 -30.5t-18.5 -84.5q0 -119 75 -119q72 0 72 116zM688 676l-446 -696h-89l446 696h89z" />
    <glyph glyph-name="ampersand" unicode="&#x26;" horiz-adv-x="724" 
d="M707 7q-22 -13 -60 -13q-64 0 -161 82q-102 -87 -228 -87q-92 0 -147.5 55.5t-55.5 133.5q0 128 146 189q-42 45 -60.5 78t-18.5 79q0 59 48.5 100.5t125.5 41.5t123.5 -40.5t46.5 -104.5q0 -57 -35.5 -98t-101.5 -76q27 -32 77.5 -84.5t87.5 -84.5q31 33 58.5 77.5
t36.5 76.5l75 -19q-27 -91 -115 -184q84 -77 141 -66zM377 516q0 30 -20.5 54.5t-63.5 24.5q-40 0 -61 -22t-21 -49t15 -53.5t53 -70.5q98 51 98 116zM427 124q-103 95 -179 187q-100 -42 -100 -127q0 -52 35.5 -86t95.5 -34q35 0 76 15.5t72 44.5z" />
    <glyph glyph-name="quotesingle" unicode="'" horiz-adv-x="204" 
d="M148 708l-11 -219h-66l-13 219h90z" />
    <glyph glyph-name="parenleft" unicode="(" horiz-adv-x="322" 
d="M298 -194l-63 -43q-89 106 -124.5 229t-35.5 276t36 277.5t124 229.5l62 -43q-71 -102 -99.5 -199t-28.5 -265q0 -167 29 -263.5t100 -198.5z" />
    <glyph glyph-name="parenright" unicode=")" horiz-adv-x="322" 
d="M247 268q0 -153 -35.5 -276t-124.5 -229l-63 43q71 102 100 198.5t29 263.5q0 168 -28.5 265t-99.5 199l62 43q88 -105 124 -229.5t36 -277.5z" />
    <glyph glyph-name="asterisk" unicode="*" horiz-adv-x="484" 
d="M422 466l-38 -65q-24 13 -69.5 51t-53.5 43q1 -11 11 -68.5t9 -85.5l-75 -1q-1 27 8.5 85.5t10.5 68.5q-10 -6 -55 -43t-69 -51l-38 65q23 14 77.5 34.5t65.5 26.5q-10 5 -65 25.5t-78 34.5l38 65q24 -13 68.5 -50.5t53.5 -43.5q-1 10 -10 68t-8 86h75q1 -26 -8.5 -83.5
t-10.5 -68.5q10 6 55 42.5t68 49.5l38 -65q-23 -14 -78 -34t-65 -25q12 -6 65.5 -26.5t77.5 -34.5z" />
    <glyph glyph-name="plus" unicode="+" horiz-adv-x="615" 
d="M544 213h-192v-213h-87v213h-194v79h194v209h87v-209h192v-79z" />
    <glyph glyph-name="comma" unicode="," horiz-adv-x="209" 
d="M146 116q41 -142 -75 -271l-49 27q38 63 45 119t-9 107z" />
    <glyph glyph-name="hyphen" unicode="-" horiz-adv-x="363" 
d="M314 210h-263v75h263v-75z" />
    <glyph glyph-name="period" unicode="." horiz-adv-x="209" 
d="M165 49q0 -26 -17 -43.5t-42 -17.5t-42 17.5t-17 43.5t17 44t42 18t42 -18t17 -44z" />
    <glyph glyph-name="slash" unicode="/" horiz-adv-x="361" 
d="M363 696l-254 -729h-98l265 729h87z" />
    <glyph glyph-name="zero" unicode="0" 
d="M494 326q0 -159 -64.5 -247.5t-171.5 -88.5q-105 0 -166.5 88t-61.5 248t64 249t170 89t168 -89t62 -249zM403 318q0 128 -39 200t-104 72q-69 0 -103.5 -72t-34.5 -183q0 -128 38.5 -199t104.5 -71q68 0 103 71t35 182z" />
    <glyph glyph-name="one" unicode="1" 
d="M374 0h-86v569l-157 -71l-25 67l200 99h68v-664z" />
    <glyph glyph-name="two" unicode="2" 
d="M464 0h-417q6 73 27.5 131.5t50 96t62 68t65.5 52.5t58.5 43t42.5 46.5t16 56.5q0 46 -29.5 69t-78.5 23q-82 0 -165 -47l-27 72q100 53 206 53q92 0 141 -46t49 -117q0 -55 -28 -98.5t-69.5 -74.5t-85 -62.5t-79.5 -79t-47 -108.5l308 6v-84z" />
    <glyph glyph-name="three" unicode="3" 
d="M476 195q0 -88 -67 -146.5t-193 -58.5q-95 0 -172 35l26 69q70 -31 151 -31q63 0 111.5 31.5t48.5 88.5q0 112 -165 112h-86v74l69 2q88 3 126.5 35.5t38.5 84.5q0 43 -30.5 69t-82.5 26q-73 0 -165 -46l-23 70q110 54 205 54q90 0 139 -47t49 -117q0 -54 -28 -93.5
t-75 -60.5v-1q55 -9 89 -49.5t34 -100.5z" />
    <glyph glyph-name="four" unicode="4" 
d="M516 170h-99v-172h-87v172h-294v66l322 428h59v-416h99v-78zM334 513l-199 -268q61 0 84 1l111 2l1 181q0 36 3 84z" />
    <glyph glyph-name="five" unicode="5" 
d="M474 657l-20 -82l-256 5v-181q143 9 208.5 -48.5t65.5 -145.5q0 -93 -66.5 -154t-194.5 -61q-89 0 -147 30l27 70q49 -27 127 -27q68 0 114 34.5t46 97.5q0 130 -181 130h-87v332h364z" />
    <glyph glyph-name="six" unicode="6" 
d="M491 211q0 -101 -63 -162t-157 -61q-104 0 -170.5 76.5t-66.5 232.5q0 154 79 260.5t209 106.5q74 0 133 -27l-25 -73q-52 26 -101 26q-80 0 -134.5 -60.5t-63.5 -165.5q82 52 156 52q85 0 144.5 -54t59.5 -151zM276 338q-76 0 -146 -50q-4 -99 38 -162t107 -63
q56 0 91 37t35 103q0 62 -36 98.5t-89 36.5z" />
    <glyph glyph-name="seven" unicode="7" 
d="M507 623q-224 -303 -281 -625h-91q47 282 253 587l-293 -5l-20 79h432v-36z" />
    <glyph glyph-name="eight" unicode="8" 
d="M494 177q0 -81 -64 -134t-172 -53t-167 48t-59 135q0 112 119 165v1q-91 56 -91 150q0 76 57.5 125.5t156.5 49.5q98 0 148 -51.5t50 -118.5q0 -39 -20 -74t-39.5 -51.5t-40.5 -28.5v-1q122 -44 122 -162zM150 495q0 -56 39 -84.5t103 -43.5q87 51 87 122q0 43 -30.5 74
t-82.5 31q-51 0 -83.5 -28t-32.5 -71zM400 172q0 56 -47.5 88.5t-120.5 43.5q-38 -12 -73 -45t-35 -81q0 -56 39.5 -86.5t100.5 -30.5q57 0 96.5 30t39.5 81z" />
    <glyph glyph-name="nine" unicode="9" 
d="M490 355q0 -169 -77.5 -267t-213.5 -98q-75 0 -142 28l25 74q57 -28 119 -28q86 0 138.5 62t57.5 172h-1q-75 -59 -157 -59q-80 0 -139.5 50.5t-59.5 153.5q0 95 62 158t156 63q106 0 169 -78.5t63 -230.5zM396 383q-1 97 -39.5 152.5t-102.5 55.5q-58 0 -91 -38t-33 -99
q0 -65 34 -102t96 -37q41 0 78 20t58 48z" />
    <glyph glyph-name="colon" unicode=":" horiz-adv-x="209" 
d="M165 394q0 -26 -17 -43.5t-42 -17.5t-42 17.5t-17 43.5t17 44t42 18t42 -18t17 -44zM165 49q0 -26 -17 -43.5t-42 -17.5t-42 17.5t-17 43.5t17 44t42 18t42 -18t17 -44z" />
    <glyph glyph-name="semicolon" unicode=";" horiz-adv-x="209" 
d="M165 394q0 -26 -17 -43.5t-42 -17.5t-42 17.5t-17 43.5t17 44t42 18t42 -18t17 -44zM146 116q41 -142 -75 -271l-49 27q38 63 45 119t-9 107z" />
    <glyph glyph-name="less" unicode="&#x3c;" horiz-adv-x="603" 
d="M501 33l-434 189v76l434 189v-85l-293 -122l-56 -19v-2l56 -19l293 -122v-85z" />
    <glyph glyph-name="equal" unicode="=" horiz-adv-x="615" 
d="M544 307h-473v79h473v-79zM544 121h-473v79h473v-79z" />
    <glyph glyph-name="greater" unicode="&#x3e;" horiz-adv-x="603" 
d="M536 222l-434 -189v85l293 122l56 19v2l-56 19l-293 122v85l434 -189v-76z" />
    <glyph glyph-name="question" unicode="?" horiz-adv-x="462" 
d="M409 533q0 -40 -21 -76t-51.5 -61.5t-61 -47.5t-51.5 -43.5t-21 -39.5q0 -23 26 -55l-67 -42q-45 45 -45 99q0 31 20.5 59.5t50 50.5t58.5 44t49.5 50t20.5 58q0 34 -22.5 54t-58.5 20q-68 0 -132 -61l-42 56q79 79 186 79q76 0 119 -39t43 -105zM259 49q0 -26 -17 -43.5
t-42 -17.5t-42 17.5t-17 43.5t17 44t42 18t42 -18t17 -44z" />
    <glyph glyph-name="at" unicode="@" horiz-adv-x="777" 
d="M736 367q0 -110 -47 -168t-126 -58q-38 0 -64.5 22.5t-32.5 59.5h-1q-12 -28 -51.5 -54.5t-84.5 -26.5q-52 0 -87.5 37t-35.5 115q0 102 58 164.5t148 62.5q72 0 142 -43l-23 -165q-10 -44 -1 -77t44 -33q40 0 64.5 44t24.5 119q0 103 -69 176.5t-195 73.5t-204 -84
t-78 -227q0 -126 66 -197.5t171 -71.5q82 0 131 25l24 -63q-71 -27 -163 -27q-137 0 -220 90.5t-83 238.5q0 172 102 276.5t256 104.5q145 0 240 -87t95 -227zM473 438q-32 20 -64 20q-52 0 -88 -44t-36 -114q0 -92 62 -92q38 0 71 31.5t42 103.5z" />
    <glyph glyph-name="A" unicode="A" horiz-adv-x="595" 
d="M583 0h-93l-67 172h-255l-62 -172h-90l253 661h57zM393 249l-69 199q-17 47 -25 82h-1q-9 -35 -26 -81l-73 -200h194z" />
    <glyph glyph-name="B" unicode="B" horiz-adv-x="529" 
d="M490 198q0 -81 -56 -139.5t-176 -58.5h-179v659h192q86 0 132 -49t46 -114q0 -100 -84 -144v-2q53 -7 89 -49t36 -103zM243 580h-75v-204h80q43 0 75.5 28.5t32.5 76.5q0 47 -28.5 73t-84.5 26zM395 193q0 46 -33.5 75t-94.5 29h-99v-218h91q65 0 100.5 31.5t35.5 82.5z
" />
    <glyph glyph-name="C" unicode="C" horiz-adv-x="589" 
d="M558 43q-93 -53 -195 -53q-147 0 -234 93t-87 239t94.5 244t243.5 98q104 0 169 -38l-1 -90q-79 49 -169 49q-109 0 -175 -74t-66 -185q0 -114 64 -186t173 -72q80 0 157 42z" />
    <glyph glyph-name="D" unicode="D" horiz-adv-x="644" 
d="M602 336q0 -148 -93 -242t-268 -94h-162v659h162q178 0 269.5 -88.5t91.5 -234.5zM509 336q0 108 -66.5 176t-194.5 68h-80v-501h79q70 0 122 20.5t82 57t44 81.5t14 98z" />
    <glyph glyph-name="E" unicode="E" horiz-adv-x="468" 
d="M418 0h-339v659h337l-29 -79h-219v-204h217v-78h-217v-219h250v-79z" />
    <glyph glyph-name="F" unicode="F" horiz-adv-x="460" 
d="M417 659l-30 -79h-219v-207h217v-78h-217v-295h-89v659h338z" />
    <glyph glyph-name="G" unicode="G" horiz-adv-x="669" 
d="M600 42q-95 -52 -222 -52q-153 0 -244.5 88t-91.5 239q0 155 97 251t254 96q102 0 187 -38l-1 -91q-96 50 -184 50q-124 0 -190.5 -72t-66.5 -192q0 -116 66.5 -184t183.5 -68q82 0 123 24v230h89v-281z" />
    <glyph glyph-name="H" unicode="H" horiz-adv-x="683" 
d="M604 0h-89v295h-347v-295h-89v659h89v-285h347v285h89v-659z" />
    <glyph glyph-name="I" unicode="I" horiz-adv-x="247" 
d="M168 0h-89v659h89v-659z" />
    <glyph glyph-name="J" unicode="J" horiz-adv-x="306" 
d="M228 25q0 -101 -38.5 -153.5t-136.5 -52.5q-39 0 -70 11l17 72q21 -8 57 -8q47 0 64.5 34.5t17.5 104.5v626h89v-634z" />
    <glyph glyph-name="K" unicode="K" horiz-adv-x="548" 
d="M536 0h-114l-253 295h-1v-295h-89v659h88v-296h2l238 294h107l-268 -322z" />
    <glyph glyph-name="L" unicode="L" horiz-adv-x="424" 
d="M413 0h-334v659h89v-580h245v-79z" />
    <glyph glyph-name="M" unicode="M" horiz-adv-x="794" 
d="M715 0h-89v448q0 39 2 70h-1q-11 -28 -36 -66l-163 -260h-52l-174 261q-24 37 -36 65h-2q4 -31 4 -69v-449h-89v659h87l200 -297q29 -46 36 -62h2q18 38 34 63l188 296h89v-659z" />
    <glyph glyph-name="N" unicode="N" horiz-adv-x="719" 
d="M640 0h-83l-322 425q-49 62 -68 98h-2q3 -33 3 -82v-441h-89v659h91l309 -409q59 -78 72 -105h2q-2 50 -2 86v428h89v-659z" />
    <glyph glyph-name="O" unicode="O" horiz-adv-x="743" 
d="M42 325q0 149 93 245q94 94 236 94q155 0 247 -103q83 -94 83 -234q0 -153 -97 -248q-92 -89 -233 -89q-136 0 -226 82q-103 95 -103 253zM605 326q0 115 -62 186.5t-172 71.5q-107 0 -170.5 -70t-63.5 -188t63.5 -188t170.5 -70t170.5 70t63.5 188z" />
    <glyph glyph-name="P" unicode="P" horiz-adv-x="488" 
d="M452 451q0 -94 -60 -155.5t-183 -61.5h-41v-234h-89v659h146q105 0 166 -55t61 -153zM359 451q0 59 -36.5 94t-105.5 35h-49v-267h54q69 0 103 37t34 101z" />
    <glyph glyph-name="Q" unicode="Q" horiz-adv-x="743" 
d="M701 327q0 -162 -108 -257q-78 -71 -196 -81q39 -39 74 -57t84 -18q40 0 78 14l19 -65q-48 -21 -120 -21q-79 0 -136.5 41.5t-112.5 114.5q-84 22 -142 76q-99 97 -99 251q0 146 91 242q92 97 238 97q139 0 231 -87q99 -94 99 -250zM605 326q0 115 -62 186.5t-172 71.5
q-107 0 -170.5 -70t-63.5 -188t63.5 -188t170.5 -70t170.5 70t63.5 188z" />
    <glyph glyph-name="R" unicode="R" horiz-adv-x="539" 
d="M527 0h-105q-14 23 -32.5 53.5t-30 49t-26.5 42.5t-24 38t-20 30.5t-18 25.5t-15 17t-13.5 11.5t-10.5 3.5h-64v-271h-89v659h150q114 0 168.5 -50t54.5 -131q0 -67 -34.5 -112t-91.5 -64v-2q22 -11 171 -252q20 -31 30 -48zM359 469q0 49 -31 80t-98 31h-62v-230h61
q56 0 93 34.5t37 84.5z" />
    <glyph glyph-name="S" unicode="S" horiz-adv-x="486" 
d="M446 167q0 -79 -61.5 -128t-154.5 -49q-106 0 -188 55l40 69q64 -48 145 -48q49 0 86.5 23.5t37.5 68.5q0 37 -27 67.5t-62 48.5t-80 46t-70 56q-46 49 -46 119q0 73 53 121t145 48q86 0 152 -33l-1 -88q-70 44 -147 44q-49 0 -80.5 -21t-31.5 -62q0 -38 30 -68
t72.5 -53.5t85 -49.5t72.5 -68.5t30 -97.5z" />
    <glyph glyph-name="T" unicode="T" horiz-adv-x="514" 
d="M510 659l-27 -79h-184v-580h-90v580h-189v79h490z" />
    <glyph glyph-name="U" unicode="U" horiz-adv-x="669" 
d="M586 229q0 -108 -62 -171q-66 -68 -196 -68q-121 0 -184 60q-64 63 -64 189v420h89v-418q0 -85 44 -130q41 -43 117 -43q87 0 128 43q39 42 39 124v424h89v-430z" />
    <glyph glyph-name="V" unicode="V" horiz-adv-x="628" 
d="M616 659l-284 -662h-56l-263 662h94l161 -417q17 -46 38 -107h2q24 68 40 106l174 418h94z" />
    <glyph glyph-name="W" unicode="W" horiz-adv-x="922" 
d="M911 659l-225 -662h-69l-116 323q-24 69 -33 100h-2q-16 -56 -33 -99l-120 -324h-69l-231 662h98l141 -426q23 -72 30 -99h2q7 25 33 98l108 299l-45 128h92l145 -420q33 -94 35 -101h2q14 56 28 98l136 423h93z" />
    <glyph glyph-name="X" unicode="X" horiz-adv-x="591" 
d="M302 398l184 261h101l-232 -329l219 -330h-102l-174 260l-184 -260h-101l231 328l-221 331h106z" />
    <glyph glyph-name="Y" unicode="Y" horiz-adv-x="551" 
d="M540 659l-217 -396v-263h-89v265l-221 394h98l113 -204q55 -104 56 -106h2q21 45 53 105l111 205h94z" />
    <glyph glyph-name="Z" unicode="Z" horiz-adv-x="558" 
d="M528 0h-485l332 582l-301 -3l-26 80h468l-328 -581l340 2v-80z" />
    <glyph glyph-name="bracketleft" unicode="[" horiz-adv-x="286" 
d="M263 -233h-179v1004h179v-72h-96v-859h96v-73z" />
    <glyph glyph-name="backslash" unicode="\" horiz-adv-x="371" 
d="M358 -33h-89l-254 729h89z" />
    <glyph glyph-name="bracketright" unicode="]" horiz-adv-x="286" 
d="M204 -233h-179v73h96v859h-96v72h179v-1004z" />
    <glyph glyph-name="asciicircum" unicode="^" horiz-adv-x="596" 
d="M499 287h-84l-97 231l-19 56h-2l-19 -56l-97 -231h-84l163 372h76z" />
    <glyph glyph-name="underscore" unicode="_" horiz-adv-x="450" 
d="M450 -124h-450v60h450v-60z" />
    <glyph glyph-name="grave" unicode="`" horiz-adv-x="542" 
d="M208 678h110l58 -147h-74z" />
    <glyph glyph-name="a" unicode="a" horiz-adv-x="471" 
d="M423 0h-74l-19 45q-59 -55 -143 -55q-62 0 -105 40.5t-43 106.5q0 71 50 111.5t143 43.5l92 3v18q0 99 -98 99q-66 0 -124 -41l-33 60q76 54 173 54q171 0 171 -164v-159q0 -138 10 -162zM324 110v114l-86 -3q-110 -4 -110 -77q0 -35 22.5 -57.5t64.5 -22.5q63 0 109 46z
" />
    <glyph glyph-name="b" unicode="b" horiz-adv-x="504" 
d="M466 253q0 -120 -76 -191.5t-188 -71.5q-88 0 -140 31v687h88v-243q53 20 102 20q90 0 152 -60.5t62 -171.5zM378 248q0 69 -37.5 113.5t-103.5 44.5q-40 0 -87 -21v-309q28 -11 70 -11q67 0 112.5 53t45.5 130z" />
    <glyph glyph-name="c" unicode="c" horiz-adv-x="443" 
d="M418 38q-72 -48 -156 -48q-106 0 -165 69.5t-59 172.5q0 106 64 179.5t174 73.5q68 0 125 -31l-1 -79q-53 36 -122 36t-110 -49t-41 -125q0 -75 40 -124t110 -49q59 0 116 35z" />
    <glyph glyph-name="d" unicode="d" horiz-adv-x="510" 
d="M448 25q-63 -35 -162 -35q-107 0 -177.5 62.5t-70.5 178.5q0 110 72 182t178 72q40 0 71 -7v230h89v-683zM359 75v325q-30 10 -67 10q-70 0 -117.5 -48t-47.5 -126t44.5 -125t126.5 -47q35 0 61 11z" />
    <glyph glyph-name="e" unicode="e" horiz-adv-x="472" 
d="M434 218h-303q0 -66 40 -110t109 -44q56 0 115 35l25 -61q-67 -48 -157 -48q-109 0 -167 73t-58 180q0 104 55.5 173t144.5 69q92 0 144 -66t52 -178v-23zM340 287q0 50 -27 88t-76 38q-48 0 -77.5 -36.5t-29.5 -89.5h210z" />
    <glyph glyph-name="f" unicode="f" horiz-adv-x="316" 
d="M323 690l-18 -68q-26 13 -58 13q-61 0 -61 -76v-86h124l-28 -72h-96v-401h-89v401h-62v72h62v78q0 46 14 78.5t37.5 48.5t47 23t49.5 7q43 0 78 -18z" />
    <glyph glyph-name="g" unicode="g" horiz-adv-x="483" 
d="M482 -82q0 -65 -62 -110t-182 -45q-103 0 -163 40.5t-60 100.5q0 73 89 116q-33 18 -33 59q0 46 56 89q-37 20 -58 59t-21 85q0 73 51.5 123t130.5 50q53 0 86 -17q6 -3 12 1q49 47 137 35l-22 -74q-44 10 -68 -1q51 -51 51 -122q0 -77 -53 -125t-135 -48q-35 0 -62 10
q-20 -25 -20 -49q0 -19 33.5 -28t81.5 -14.5t96 -15.5t81.5 -40t33.5 -79zM234 413q-43 0 -70.5 -27.5t-27.5 -73.5t27.5 -76t72.5 -30q44 0 72 27.5t28 76.5q0 45 -28.5 74t-73.5 29zM384 -91q0 34 -40.5 50.5t-105.5 23.5t-80 12q-58 -37 -58 -79q0 -36 40 -60t105 -24
q64 0 101.5 21t37.5 56z" />
    <glyph glyph-name="h" unicode="h" horiz-adv-x="516" 
d="M454 0h-89v288q0 53 -16.5 84.5t-63.5 31.5q-58 0 -135 -66v-338h-88v708h88v-289q87 66 163 66q60 0 100.5 -41t40.5 -133v-311z" />
    <glyph glyph-name="i" unicode="i" horiz-adv-x="240" 
d="M120 680q24 0 41.5 -17t17.5 -41t-17.5 -41.5t-41.5 -17.5q-25 0 -42 17t-17 42q0 24 17.5 41t41.5 17zM164 0h-88v473h88v-473z" />
    <glyph glyph-name="j" unicode="j" horiz-adv-x="252" 
d="M132 680q25 0 42 -17t17 -41t-17 -41.5t-42 -17.5t-42 17t-17 42q0 24 17.5 41t41.5 17zM176 -65q0 -89 -40 -130.5t-102 -41.5q-49 0 -84 19l20 66q28 -13 52 -13q65 0 65 109v529h89v-538z" />
    <glyph glyph-name="k" unicode="k" horiz-adv-x="445" 
d="M452 0h-109l-191 237h-2v-237h-88v708h88v-400h2l166 165h110l-203 -196z" />
    <glyph glyph-name="l" unicode="l" horiz-adv-x="247" 
d="M227 9q-35 -19 -73 -19q-46 0 -68.5 25.5t-22.5 67.5v625h88v-586q0 -30 8 -41t29 -11q15 0 28 4z" />
    <glyph glyph-name="m" unicode="m" horiz-adv-x="812" 
d="M750 0h-89v304q0 50 -15.5 76.5t-57.5 26.5q-62 0 -138 -65q1 -7 1 -24v-318h-89v302q0 50 -16 77.5t-58 27.5q-62 0 -137 -66v-341h-89v473h74l11 -55q86 67 167 67q43 0 74 -21t45 -56q85 77 171 77q63 0 104.5 -36t41.5 -117v-332z" />
    <glyph glyph-name="n" unicode="n" horiz-adv-x="517" 
d="M455 0h-89v287q0 52 -16 84.5t-62 32.5q-62 0 -138 -66v-338h-88v473h74l11 -54q89 66 168 66q58 0 99 -42t41 -126v-317z" />
    <glyph glyph-name="o" unicode="o" horiz-adv-x="521" 
d="M260 485q97 0 158 -64q65 -68 65 -184t-67 -185q-60 -62 -157 -62q-93 0 -153 58q-68 68 -68 188q0 116 67 186q61 63 155 63zM259 412q-63 0 -97 -47t-34 -127t35.5 -127.5t97.5 -47.5q61 0 96 48t35 127q0 80 -35 127t-98 47z" />
    <glyph glyph-name="p" unicode="p" horiz-adv-x="505" 
d="M467 243q0 -118 -70 -185.5t-171 -67.5q-39 0 -76 14v-241h-88v690q91 32 164 32q113 0 177 -65t64 -177zM376 240q0 83 -43 125.5t-110 42.5q-36 0 -73 -11v-317q32 -16 72 -16q71 0 112.5 47.5t41.5 128.5z" />
    <glyph glyph-name="q" unicode="q" horiz-adv-x="516" 
d="M454 -237h-89v263q-55 -36 -125 -36q-82 0 -142 62.5t-60 174.5q0 117 76.5 187.5t187.5 70.5q80 0 152 -31v-691zM365 105v294q-30 11 -71 11q-75 0 -120.5 -51t-45.5 -128t38 -121t94 -44t105 39z" />
    <glyph glyph-name="r" unicode="r" horiz-adv-x="329" 
d="M334 469l-35 -82q-22 11 -47 11q-44 0 -102 -52v-346h-88v473h73l12 -53q71 65 130 65q33 0 57 -16z" />
    <glyph glyph-name="s" unicode="s" horiz-adv-x="388" 
d="M355 132q0 -72 -51 -107t-133 -35q-87 0 -151 39l31 67q59 -37 119 -37q42 0 68 17t26 47q0 29 -22 48t-54 32t-64 28.5t-54 46.5t-22 77q0 57 42.5 93.5t121.5 36.5q67 0 126 -25v-76q-70 29 -122 29q-81 0 -81 -54q0 -26 22.5 -44.5t55 -31.5t65 -29.5t55 -47
t22.5 -74.5z" />
    <glyph glyph-name="t" unicode="t" horiz-adv-x="356" 
d="M341 38q-66 -48 -136 -48q-54 0 -80.5 28t-26.5 76v308h-79v71h79v106l89 28v-134h146l-29 -71h-117v-278q0 -57 46 -57q40 0 82 31z" />
    <glyph glyph-name="u" unicode="u" horiz-adv-x="515" 
d="M453 0h-72l-19 48q-68 -58 -151 -58q-26 0 -50 8t-47.5 25.5t-37.5 53.5t-14 85v311h89v-304q0 -105 89 -105q67 0 115 55v354h88v-297q0 -146 10 -176z" />
    <glyph glyph-name="v" unicode="v" horiz-adv-x="461" 
d="M456 473l-197 -476h-67l-185 476h90l129 -360h2l141 360h87z" />
    <glyph glyph-name="w" unicode="w" horiz-adv-x="714" 
d="M709 473l-162 -476h-74l-114 362h-3l-114 -362h-73l-162 476h90l111 -357h3l112 357h75l114 -358h3l109 358h85z" />
    <glyph glyph-name="x" unicode="x" horiz-adv-x="459" 
d="M236 303l127 170h94l-172 -233l169 -240h-99l-123 174l-129 -174h-96l175 237l-167 236h101z" />
    <glyph glyph-name="y" unicode="y" horiz-adv-x="492" 
d="M479 473l-181 -509q-42 -119 -94 -160t-121 -41q-50 0 -95 19l22 68q32 -16 71 -16q94 0 141 164l-214 475h94l162 -370h3l124 370h88z" />
    <glyph glyph-name="z" unicode="z" horiz-adv-x="420" 
d="M392 0h-363l226 401l-199 -2l-22 74h353l-220 -400l225 2v-75z" />
    <glyph glyph-name="braceleft" unicode="{" horiz-adv-x="322" 
d="M49 239v68q14 1 21.5 2t19 7t17 20t5.5 37q0 33 -0.5 112t-0.5 104q0 78 37.5 122.5t128.5 58.5l17 -83q-51 -7 -71.5 -31.5t-20.5 -72.5q0 -23 0.5 -90t0.5 -96q0 -59 -20.5 -88.5t-47.5 -34.5v-2q27 -5 47.5 -34.5t20.5 -88.5q0 -29 -0.5 -96t-0.5 -90
q0 -48 20.5 -72.5t71.5 -31.5l-17 -83q-91 14 -128.5 58.5t-37.5 122.5q0 152 1 216q0 23 -5 37t-17 20t-19.5 7t-21.5 2z" />
    <glyph glyph-name="bar" unicode="|" horiz-adv-x="252" 
d="M168 -237h-84v1017h84v-1017z" />
    <glyph glyph-name="braceright" unicode="}" horiz-adv-x="322" 
d="M274 239q-14 -1 -21.5 -2t-19.5 -7t-17 -20t-5 -37q1 -64 1 -216q0 -78 -37.5 -122.5t-128.5 -58.5l-17 83q51 7 71.5 31.5t20.5 72.5q0 23 -0.5 90t-0.5 96q0 59 20.5 88.5t47.5 34.5v2q-27 5 -47.5 34.5t-20.5 88.5q0 29 0.5 96t0.5 90q0 48 -20.5 72.5t-71.5 31.5
l17 83q91 -14 128.5 -58.5t37.5 -122.5q0 -25 -0.5 -104t-0.5 -112q0 -23 5.5 -37t17 -20t19 -7t21.5 -2v-68z" />
    <glyph glyph-name="asciitilde" unicode="~" horiz-adv-x="611" 
d="M534 241q-79 -57 -133 -57q-35 0 -81 18l-50 19q-39 14 -61 14q-33 0 -92 -41l-40 66q77 57 132 57q35 0 82 -18l50 -19q36 -15 61 -15q32 0 91 42z" />
    <glyph glyph-name="Adieresis" unicode="&#xc4;" horiz-adv-x="595" 
d="M583 0h-93l-67 172h-255l-62 -172h-90l253 661h57zM393 249l-69 199q-17 47 -25 82h-1q-9 -35 -26 -81l-73 -200h194zM441 759q0 -22 -15 -37.5t-37 -15.5t-37 15.5t-15 37.5t15 37.5t37 15.5t37 -15.5t15 -37.5zM266 759q0 -22 -15.5 -37.5t-37.5 -15.5
q-21 0 -36.5 15.5t-15.5 37.5t15.5 37.5t36.5 15.5q22 0 37.5 -15.5t15.5 -37.5z" />
    <glyph glyph-name="Aring" unicode="&#xc5;" horiz-adv-x="595" 
d="M328 655l255 -655h-93l-67 172h-255l-62 -172h-90l251 656q-31 8 -48.5 32.5t-17.5 59.5q0 42 27.5 68t71.5 26q43 0 70.5 -26t27.5 -68q0 -35 -19 -60t-51 -33zM393 249l-69 199q-17 47 -25 82h-1q-9 -35 -26 -81l-73 -200h194zM346 749q0 24 -12.5 38.5t-34.5 14.5
t-35 -14.5t-13 -38.5q0 -25 13 -39.5t35 -14.5q47 0 47 54z" />
    <glyph glyph-name="Ccedilla" unicode="&#xc7;" horiz-adv-x="589" 
d="M548 536q-79 49 -169 49q-109 0 -175 -74t-66 -185q0 -114 64 -186t173 -72q80 0 157 42l27 -67q-91 -51 -187 -53l-11 -35q68 -5 68 -61q0 -35 -31.5 -54.5t-69.5 -19.5t-64 13l15 42q21 -12 46 -12q16 0 27.5 8t11.5 21q0 24 -45 26l-29 1l24 75q-126 16 -198.5 105.5
t-72.5 222.5q0 146 94.5 244t243.5 98q104 0 169 -38z" />
    <glyph glyph-name="Eacute" unicode="&#xc9;" horiz-adv-x="468" 
d="M418 0h-339v659h337l-29 -79h-219v-204h217v-78h-217v-219h250v-79zM368 843l-94 -147h-74l58 147h110z" />
    <glyph glyph-name="Ntilde" unicode="&#xd1;" horiz-adv-x="719" 
d="M640 0h-83l-322 425q-49 62 -68 98h-2q3 -33 3 -82v-441h-89v659h91l309 -409q59 -78 72 -105h2q-2 50 -2 86v428h89v-659zM490 796q0 -33 -20 -54t-50 -21q-27 0 -57 15l-30 13q-26 12 -39 12q-23 0 -23 -25v-9h-54v23q0 33 20 54t51 21q24 0 56 -14l29 -13
q28 -13 40 -13q22 0 22 25v10h55v-24z" />
    <glyph glyph-name="Odieresis" unicode="&#xd6;" horiz-adv-x="743" 
d="M42 325q0 149 93 245q94 94 236 94q155 0 247 -103q83 -94 83 -234q0 -153 -97 -248q-92 -89 -233 -89q-136 0 -226 82q-103 95 -103 253zM605 326q0 115 -62 186.5t-172 71.5q-107 0 -170.5 -70t-63.5 -188t63.5 -188t170.5 -70t170.5 70t63.5 188zM510 759
q0 -22 -15 -37.5t-37 -15.5t-37 15.5t-15 37.5t15 37.5t37 15.5t37 -15.5t15 -37.5zM335 759q0 -22 -15.5 -37.5t-37.5 -15.5q-21 0 -36.5 15.5t-15.5 37.5t15.5 37.5t36.5 15.5q22 0 37.5 -15.5t15.5 -37.5z" />
    <glyph glyph-name="Udieresis" unicode="&#xdc;" horiz-adv-x="669" 
d="M586 229q0 -108 -62 -171q-66 -68 -196 -68q-121 0 -184 60q-64 63 -64 189v420h89v-418q0 -85 44 -130q41 -43 117 -43q87 0 128 43q39 42 39 124v424h89v-430zM473 759q0 -22 -15 -37.5t-37 -15.5t-37 15.5t-15 37.5t15 37.5t37 15.5t37 -15.5t15 -37.5zM298 759
q0 -22 -15.5 -37.5t-37.5 -15.5q-21 0 -36.5 15.5t-15.5 37.5t15.5 37.5t36.5 15.5q22 0 37.5 -15.5t15.5 -37.5z" />
    <glyph glyph-name="aacute" unicode="&#xe1;" horiz-adv-x="471" 
d="M423 0h-74l-19 45q-59 -55 -143 -55q-62 0 -105 40.5t-43 106.5q0 71 50 111.5t143 43.5l92 3v18q0 99 -98 99q-66 0 -124 -41l-33 60q76 54 173 54q171 0 171 -164v-159q0 -138 10 -162zM324 110v114l-86 -3q-110 -4 -110 -77q0 -35 22.5 -57.5t64.5 -22.5q63 0 109 46z
M364 678l-94 -147h-74l58 147h110z" />
    <glyph glyph-name="agrave" unicode="&#xe0;" horiz-adv-x="471" 
d="M423 0h-74l-19 45q-59 -55 -143 -55q-62 0 -105 40.5t-43 106.5q0 71 50 111.5t143 43.5l92 3v18q0 99 -98 99q-66 0 -124 -41l-33 60q76 54 173 54q171 0 171 -164v-159q0 -138 10 -162zM324 110v114l-86 -3q-110 -4 -110 -77q0 -35 22.5 -57.5t64.5 -22.5q63 0 109 46z
M122 678h110l58 -147h-74z" />
    <glyph glyph-name="acircumflex" unicode="&#xe2;" horiz-adv-x="471" 
d="M423 0h-74l-19 45q-59 -55 -143 -55q-62 0 -105 40.5t-43 106.5q0 71 50 111.5t143 43.5l92 3v18q0 99 -98 99q-66 0 -124 -41l-33 60q76 54 173 54q171 0 171 -164v-159q0 -138 10 -162zM324 110v114l-86 -3q-110 -4 -110 -77q0 -35 22.5 -57.5t64.5 -22.5q63 0 109 46z
M381 531h-82l-62 91l-61 -91h-81l103 147h78z" />
    <glyph glyph-name="adieresis" unicode="&#xe4;" horiz-adv-x="471" 
d="M423 0h-74l-19 45q-59 -55 -143 -55q-62 0 -105 40.5t-43 106.5q0 71 50 111.5t143 43.5l92 3v18q0 99 -98 99q-66 0 -124 -41l-33 60q76 54 173 54q171 0 171 -164v-159q0 -138 10 -162zM324 110v114l-86 -3q-110 -4 -110 -77q0 -35 22.5 -57.5t64.5 -22.5q63 0 109 46z
M377 609q0 -22 -15 -37.5t-37 -15.5t-37 15.5t-15 37.5t15 37.5t37 15.5t37 -15.5t15 -37.5zM202 609q0 -22 -15.5 -37.5t-37.5 -15.5q-21 0 -36.5 15.5t-15.5 37.5t15.5 37.5t36.5 15.5q22 0 37.5 -15.5t15.5 -37.5z" />
    <glyph glyph-name="atilde" unicode="&#xe3;" horiz-adv-x="471" 
d="M423 0h-74l-19 45q-59 -55 -143 -55q-62 0 -105 40.5t-43 106.5q0 71 50 111.5t143 43.5l92 3v18q0 99 -98 99q-66 0 -124 -41l-33 60q76 54 173 54q171 0 171 -164v-159q0 -138 10 -162zM324 110v114l-86 -3q-110 -4 -110 -77q0 -35 22.5 -57.5t64.5 -22.5q63 0 109 46z
M378 623q0 -33 -20 -54t-50 -21q-27 0 -57 15l-30 13q-26 12 -39 12q-23 0 -23 -25v-9h-54v23q0 33 20 54t51 21q24 0 56 -14l29 -13q28 -13 40 -13q22 0 22 25v10h55v-24z" />
    <glyph glyph-name="aring" unicode="&#xe5;" horiz-adv-x="471" 
d="M423 0h-74l-19 45q-59 -55 -143 -55q-62 0 -105 40.5t-43 106.5q0 71 50 111.5t143 43.5l92 3v18q0 99 -98 99q-66 0 -124 -41l-33 60q76 54 173 54q171 0 171 -164v-159q0 -138 10 -162zM324 110v114l-86 -3q-110 -4 -110 -77q0 -35 22.5 -57.5t64.5 -22.5q63 0 109 46z
M337 619q0 -43 -28 -69.5t-71 -26.5q-44 0 -71 26.5t-27 69.5q0 42 27.5 68t71.5 26q43 0 70.5 -26t27.5 -68zM285 620q0 24 -12.5 38.5t-34.5 14.5t-35 -14.5t-13 -38.5q0 -25 13 -39.5t35 -14.5q47 0 47 54z" />
    <glyph glyph-name="ccedilla" unicode="&#xe7;" horiz-adv-x="443" 
d="M421 39q-59 -40 -132 -48l-12 -36q68 -5 68 -61q0 -35 -31 -54.5t-69 -19.5q-41 0 -65 14l15 41q22 -12 46 -12q16 0 27.5 8t11.5 21q0 24 -44 26l-30 1l23 73q-91 12 -140.5 79.5t-49.5 160.5q0 106 64 179.5t175 73.5q71 0 126 -31v-79q-56 37 -123 37
q-70 0 -111.5 -49t-41.5 -125t40 -124.5t111 -48.5q60 0 117 34z" />
    <glyph glyph-name="eacute" unicode="&#xe9;" horiz-adv-x="472" 
d="M434 218h-303q0 -66 40 -110t109 -44q56 0 115 35l25 -61q-67 -48 -157 -48q-109 0 -167 73t-58 180q0 104 55.5 173t144.5 69q92 0 144 -66t52 -178v-23zM340 287q0 50 -27 88t-76 38q-48 0 -77.5 -36.5t-29.5 -89.5h210zM371 678l-94 -147h-74l58 147h110z" />
    <glyph glyph-name="egrave" unicode="&#xe8;" horiz-adv-x="472" 
d="M434 218h-303q0 -66 40 -110t109 -44q56 0 115 35l25 -61q-67 -48 -157 -48q-109 0 -167 73t-58 180q0 104 55.5 173t144.5 69q92 0 144 -66t52 -178v-23zM340 287q0 50 -27 88t-76 38q-48 0 -77.5 -36.5t-29.5 -89.5h210zM125 678h110l58 -147h-74z" />
    <glyph glyph-name="ecircumflex" unicode="&#xea;" horiz-adv-x="472" 
d="M434 218h-303q0 -66 40 -110t109 -44q56 0 115 35l25 -61q-67 -48 -157 -48q-109 0 -167 73t-58 180q0 104 55.5 173t144.5 69q92 0 144 -66t52 -178v-23zM340 287q0 50 -27 88t-76 38q-48 0 -77.5 -36.5t-29.5 -89.5h210zM380 531h-82l-62 91l-61 -91h-81l103 147h78z
" />
    <glyph glyph-name="edieresis" unicode="&#xeb;" horiz-adv-x="472" 
d="M434 218h-303q0 -66 40 -110t109 -44q56 0 115 35l25 -61q-67 -48 -157 -48q-109 0 -167 73t-58 180q0 104 55.5 173t144.5 69q92 0 144 -66t52 -178v-23zM340 287q0 50 -27 88t-76 38q-48 0 -77.5 -36.5t-29.5 -89.5h210zM376 609q0 -22 -15 -37.5t-37 -15.5t-37 15.5
t-15 37.5t15 37.5t37 15.5t37 -15.5t15 -37.5zM201 609q0 -22 -15.5 -37.5t-37.5 -15.5q-21 0 -36.5 15.5t-15.5 37.5t15.5 37.5t36.5 15.5q22 0 37.5 -15.5t15.5 -37.5z" />
    <glyph glyph-name="iacute" unicode="&#xed;" horiz-adv-x="240" 
d="M164 0h-88v473h88v-473zM245 678l-94 -147h-74l58 147h110z" />
    <glyph glyph-name="igrave" unicode="&#xec;" horiz-adv-x="240" 
d="M164 0h-88v473h88v-473zM-7 678h110l58 -147h-74z" />
    <glyph glyph-name="icircumflex" unicode="&#xee;" horiz-adv-x="240" 
d="M164 0h-88v473h88v-473zM266 531h-82l-62 91l-61 -91h-81l103 147h78z" />
    <glyph glyph-name="idieresis" unicode="&#xef;" horiz-adv-x="240" 
d="M164 0h-88v473h88v-473zM261 609q0 -22 -15 -37.5t-37 -15.5t-37 15.5t-15 37.5t15 37.5t37 15.5t37 -15.5t15 -37.5zM86 609q0 -22 -15.5 -37.5t-37.5 -15.5q-21 0 -36.5 15.5t-15.5 37.5t15.5 37.5t36.5 15.5q22 0 37.5 -15.5t15.5 -37.5z" />
    <glyph glyph-name="ntilde" unicode="&#xf1;" horiz-adv-x="517" 
d="M455 0h-89v287q0 52 -16 84.5t-62 32.5q-62 0 -138 -66v-338h-88v473h74l11 -54q89 66 168 66q58 0 99 -42t41 -126v-317zM399 623q0 -33 -20 -54t-50 -21q-27 0 -57 15l-30 13q-26 12 -39 12q-23 0 -23 -25v-9h-54v23q0 33 20 54t51 21q24 0 56 -14l29 -13
q28 -13 40 -13q22 0 22 25v10h55v-24z" />
    <glyph glyph-name="oacute" unicode="&#xf3;" horiz-adv-x="521" 
d="M260 485q97 0 158 -64q65 -68 65 -184t-67 -185q-60 -62 -157 -62q-93 0 -153 58q-68 68 -68 188q0 116 67 186q61 63 155 63zM259 412q-63 0 -97 -47t-34 -127t35.5 -127.5t97.5 -47.5q61 0 96 48t35 127q0 80 -35 127t-98 47zM391 678l-94 -147h-74l58 147h110z" />
    <glyph glyph-name="ograve" unicode="&#xf2;" horiz-adv-x="521" 
d="M260 485q97 0 158 -64q65 -68 65 -184t-67 -185q-60 -62 -157 -62q-93 0 -153 58q-68 68 -68 188q0 116 67 186q61 63 155 63zM259 412q-63 0 -97 -47t-34 -127t35.5 -127.5t97.5 -47.5q61 0 96 48t35 127q0 80 -35 127t-98 47zM137 678h110l58 -147h-74z" />
    <glyph glyph-name="ocircumflex" unicode="&#xf4;" horiz-adv-x="521" 
d="M260 485q97 0 158 -64q65 -68 65 -184t-67 -185q-60 -62 -157 -62q-93 0 -153 58q-68 68 -68 188q0 116 67 186q61 63 155 63zM259 412q-63 0 -97 -47t-34 -127t35.5 -127.5t97.5 -47.5q61 0 96 48t35 127q0 80 -35 127t-98 47zM406 531h-82l-62 91l-61 -91h-81l103 147
h78z" />
    <glyph glyph-name="odieresis" unicode="&#xf6;" horiz-adv-x="521" 
d="M260 485q97 0 158 -64q65 -68 65 -184t-67 -185q-60 -62 -157 -62q-93 0 -153 58q-68 68 -68 188q0 116 67 186q61 63 155 63zM259 412q-63 0 -97 -47t-34 -127t35.5 -127.5t97.5 -47.5q61 0 96 48t35 127q0 80 -35 127t-98 47zM401 609q0 -22 -15 -37.5t-37 -15.5
t-37 15.5t-15 37.5t15 37.5t37 15.5t37 -15.5t15 -37.5zM226 609q0 -22 -15.5 -37.5t-37.5 -15.5q-21 0 -36.5 15.5t-15.5 37.5t15.5 37.5t36.5 15.5q22 0 37.5 -15.5t15.5 -37.5z" />
    <glyph glyph-name="otilde" unicode="&#xf5;" horiz-adv-x="521" 
d="M260 485q97 0 158 -64q65 -68 65 -184t-67 -185q-60 -62 -157 -62q-93 0 -153 58q-68 68 -68 188q0 116 67 186q61 63 155 63zM259 412q-63 0 -97 -47t-34 -127t35.5 -127.5t97.5 -47.5q61 0 96 48t35 127q0 80 -35 127t-98 47zM395 623q0 -33 -20 -54t-50 -21
q-27 0 -57 15l-30 13q-26 12 -39 12q-23 0 -23 -25v-9h-54v23q0 33 20 54t51 21q24 0 56 -14l29 -13q28 -13 40 -13q22 0 22 25v10h55v-24z" />
    <glyph glyph-name="uacute" unicode="&#xfa;" horiz-adv-x="515" 
d="M453 0h-72l-19 48q-68 -58 -151 -58q-26 0 -50 8t-47.5 25.5t-37.5 53.5t-14 85v311h89v-304q0 -105 89 -105q67 0 115 55v354h88v-297q0 -146 10 -176zM383 678l-94 -147h-74l58 147h110z" />
    <glyph glyph-name="ugrave" unicode="&#xf9;" horiz-adv-x="515" 
d="M453 0h-72l-19 48q-68 -58 -151 -58q-26 0 -50 8t-47.5 25.5t-37.5 53.5t-14 85v311h89v-304q0 -105 89 -105q67 0 115 55v354h88v-297q0 -146 10 -176zM130 678h110l58 -147h-74z" />
    <glyph glyph-name="ucircumflex" unicode="&#xfb;" horiz-adv-x="515" 
d="M453 0h-72l-19 48q-68 -58 -151 -58q-26 0 -50 8t-47.5 25.5t-37.5 53.5t-14 85v311h89v-304q0 -105 89 -105q67 0 115 55v354h88v-297q0 -146 10 -176zM395 531h-82l-62 91l-61 -91h-81l103 147h78z" />
    <glyph glyph-name="udieresis" unicode="&#xfc;" horiz-adv-x="515" 
d="M453 0h-72l-19 48q-68 -58 -151 -58q-26 0 -50 8t-47.5 25.5t-37.5 53.5t-14 85v311h89v-304q0 -105 89 -105q67 0 115 55v354h88v-297q0 -146 10 -176zM392 609q0 -22 -15 -37.5t-37 -15.5t-37 15.5t-15 37.5t15 37.5t37 15.5t37 -15.5t15 -37.5zM217 609
q0 -22 -15.5 -37.5t-37.5 -15.5q-21 0 -36.5 15.5t-15.5 37.5t15.5 37.5t36.5 15.5q22 0 37.5 -15.5t15.5 -37.5z" />
    <glyph glyph-name="dagger" unicode="&#x2020;" horiz-adv-x="519" 
d="M449 388q-25 0 -81.5 7.5t-70.5 7.5q-1 -20 3 -97.5t4 -140.5v-211h-87v211q0 64 3.5 141t2.5 97q-14 0 -70.5 -7.5t-81.5 -7.5v96q24 0 82 -8t71 -9q1 20 -5.5 78t-6.5 79h97q0 -21 -7.5 -79t-6.5 -78q13 1 71.5 9t82.5 8v-96z" />
    <glyph glyph-name="degree" unicode="&#xb0;" horiz-adv-x="388" 
d="M348 506q0 -65 -44.5 -109t-110.5 -44t-109.5 44t-43.5 109t44 109t110 44t110 -44t44 -109zM276 506q0 37 -23.5 62t-58.5 25t-59 -25t-24 -62t24 -62t59 -25t58.5 25t23.5 62z" />
    <glyph glyph-name="cent" unicode="&#xa2;" 
d="M443 143q-46 -32 -121 -40v-96h-75v99q-77 15 -124 75t-47 146q0 83 46.5 146t126.5 83v96h75v-88q65 -1 102 -23v-76q-43 25 -108 25q-71 0 -112 -46.5t-41 -111.5q0 -70 41 -112.5t106 -42.5q64 0 109 30z" />
    <glyph glyph-name="sterling" unicode="&#xa3;" 
d="M464 642l-19 -70q-34 20 -78 20q-53 0 -89.5 -33.5t-36.5 -113.5v-69h189l-29 -76h-160q-2 -176 -61 -226v-1q31 6 100 6h180v-79h-396v66q89 26 89 234h-74v76h74v74q0 53 15 93.5t37 62.5t51.5 36t53.5 18t48 4q60 0 106 -22z" />
    <glyph glyph-name="section" unicode="&#xa7;" horiz-adv-x="519" 
d="M479 256q0 -88 -93 -142q51 -49 51 -114q0 -77 -58 -121t-148 -44q-106 0 -176 51l38 69q63 -44 137 -44q47 0 81 21t34 63q0 36 -29.5 63.5t-71.5 48t-84.5 44t-72 63t-29.5 93.5q0 91 90 140q-49 47 -49 119q0 69 51 113t135 44q86 0 146 -32v-87q-67 42 -142 42
q-46 0 -75 -19t-29 -56q0 -34 30.5 -62t73.5 -50t86 -46.5t73.5 -64.5t30.5 -92zM390 244q0 30 -20.5 55.5t-44.5 39.5t-67 36t-64 36q-53 -37 -53 -89q0 -24 12 -44t34.5 -37t45 -30t55 -31t52.5 -31q50 40 50 95z" />
    <glyph glyph-name="bullet" unicode="&#x2022;" horiz-adv-x="307" 
d="M255 318q0 -44 -29 -74t-73 -30q-43 0 -72 30t-29 74t29 74.5t72 30.5q44 0 73 -30t29 -75z" />
    <glyph glyph-name="paragraph" unicode="&#xb6;" horiz-adv-x="598" 
d="M518 -160h-82v751h-107v-751h-81v427h-12q-79 0 -132.5 57.5t-53.5 138.5q0 82 53.5 139t132.5 57h17h265v-819z" />
    <glyph glyph-name="germandbls" unicode="&#xdf;" horiz-adv-x="576" 
d="M543 151q0 -82 -52.5 -121.5t-132.5 -39.5t-145 38l32 67q51 -36 114 -36q93 0 93 83q0 28 -17 52t-42 42t-49.5 37.5t-41.5 48t-17 64.5q0 89 103 126q-2 55 -32.5 89.5t-82.5 34.5q-54 0 -88.5 -35t-34.5 -109v-633h-88v629q0 63 20 108.5t53 68.5t67.5 33t72.5 10
q81 0 141 -52.5t60 -159.5q0 -19 -1 -29q-100 -22 -100 -73q0 -20 17.5 -40t42 -38.5t49 -40.5t42 -54t17.5 -70z" />
    <glyph glyph-name="registered" unicode="&#xae;" horiz-adv-x="589" 
d="M527 429q0 -100 -67.5 -168t-166.5 -68q-102 0 -167 67t-65 169t65 169t168 67q100 0 166.5 -67.5t66.5 -168.5zM472 429q0 81 -51 135.5t-128 54.5t-128 -54.5t-51 -135.5t51 -135.5t128 -54.5t128 54.5t51 135.5zM399 300h-56q-10 16 -21.5 36t-18 31t-13.5 21.5
t-11.5 15t-7.5 4.5h-12v-108h-48v264h74q42 0 65.5 -20t23.5 -52q0 -51 -56 -70v-1q14 -5 81 -121zM324 487q0 37 -47 37h-18v-77h16q21 0 35 10.5t14 29.5z" />
    <glyph glyph-name="copyright" unicode="&#xa9;" horiz-adv-x="787" 
d="M725 327q0 -145 -95.5 -241t-238.5 -96q-147 0 -238 95t-91 242q0 146 92 241.5t239 95.5q143 0 237.5 -96t94.5 -241zM661 327q0 122 -77 202.5t-191 80.5t-190.5 -80.5t-76.5 -202.5t76.5 -202.5t190.5 -80.5t191 80.5t77 202.5zM518 156q-56 -32 -121 -32
q-81 0 -133.5 56t-52.5 143t55.5 146t142.5 59q63 0 101 -23v-66q-50 31 -103 31q-59 0 -95 -40.5t-36 -103.5q0 -64 35.5 -104.5t94.5 -40.5q45 0 92 27z" />
    <glyph glyph-name="trademark" unicode="&#x2122;" horiz-adv-x="819" 
d="M751 264h-71v228q0 34 2 55h-1q-7 -18 -28 -50l-80 -124h-40l-85 124q-21 32 -28 50h-1q2 -21 2 -55v-228h-71v395h69l104 -155q15 -22 29 -49h2q13 27 27 49l99 155h71v-395zM329 659l-22 -64h-103v-331h-71v331h-110v64h306z" />
    <glyph glyph-name="acute" unicode="&#xb4;" horiz-adv-x="542" 
d="M352 678l-94 -147h-74l58 147h110z" />
    <glyph glyph-name="dieresis" unicode="&#xa8;" horiz-adv-x="383" 
d="M332 609q0 -22 -15 -37.5t-37 -15.5t-37 15.5t-15 37.5t15 37.5t37 15.5t37 -15.5t15 -37.5zM157 609q0 -22 -15.5 -37.5t-37.5 -15.5q-21 0 -36.5 15.5t-15.5 37.5t15.5 37.5t36.5 15.5q22 0 37.5 -15.5t15.5 -37.5z" />
    <glyph glyph-name="notequal" unicode="&#x2260;" horiz-adv-x="615" 
d="M233 200l53 107h-215v79h254l42 84h98l-42 -84h121v-79h-160l-53 -107h213v-79h-252l-44 -89h-98l44 89h-123v79h162z" />
    <glyph glyph-name="AE" unicode="&#xc6;" horiz-adv-x="802" 
d="M752 0h-288l-30 172h-236l-91 -172h-91l346 659h388l-30 -79h-266l34 -204h231v-78h-216l38 -219h211v-79zM418 249l-29 195q-2 13 -5 40t-6 46h-1q-7 -18 -40 -86l-98 -195h179z" />
    <glyph glyph-name="Oslash" unicode="&#xd8;" horiz-adv-x="743" 
d="M550 504l-306 -402q54 -34 127 -34q107 0 170.5 70t63.5 188q0 109 -55 178zM604 576q97 -97 97 -249q0 -153 -97 -248q-92 -89 -233 -89q-100 0 -177 46l-50 -67l-62 45l52 69q-92 94 -92 242q0 149 93 245q94 94 236 94q95 0 171 -42l52 69l63 -45zM491 555
q-53 29 -120 29q-107 0 -170.5 -70t-63.5 -188q0 -106 51 -172z" />
    <glyph glyph-name="plusminus" unicode="&#xb1;" horiz-adv-x="613" 
d="M544 278h-192v-144h-87v144h-194v79h194v145h87v-145h192v-79zM544 0h-473v79h473v-79z" />
    <glyph glyph-name="lessequal" unicode="&#x2264;" horiz-adv-x="613" 
d="M544 0h-473v79h473v-79zM192 320v-2l332 -119v-82l-434 164v76l434 164v-82z" />
    <glyph glyph-name="greaterequal" unicode="&#x2265;" horiz-adv-x="613" 
d="M71 0v79h473v-79h-473zM423 320l-332 119v82l434 -164v-76l-434 -164v82l332 119v2z" />
    <glyph glyph-name="yen" unicode="&#xa5;" 
d="M523 659l-178 -324h125v-70h-165v-77h165v-70h-165v-118h-89v118h-168v70h168v77h-168v70h129l-179 324h98l110 -204q38 -70 56 -106h2q20 43 54 105l111 205h94z" />
    <glyph glyph-name="mu" unicode="&#x3bc;" horiz-adv-x="530" 
d="M462 0h-73l-19 48q-65 -58 -139 -58q-55 0 -74 24h-1q3 -33 3 -110v-140h-89v709h89v-304q0 -105 89 -105q67 0 115 55v354h88v-311q0 -129 11 -162z" />
    <glyph glyph-name="ordfeminine" unicode="&#xaa;" horiz-adv-x="397" 
d="M329 351h-55l-11 30q-38 -36 -97 -36q-42 0 -70.5 26t-28.5 69q0 46 32 72.5t88 28.5l66 2v10q0 53 -62 53q-41 0 -81 -27l-24 48q55 37 118 37q52 0 85 -25t33 -81v-102q0 -84 7 -105zM253 426v64l-56 -1q-59 -1 -59 -44q0 -45 46 -45q41 0 69 26z" />
    <glyph glyph-name="ordmasculine" unicode="&#xba;" horiz-adv-x="429" 
d="M363 504q0 -77 -48 -123q-37 -36 -104 -36q-60 0 -100 38q-44 44 -44 121q0 73 44 119q41 41 105 41q67 0 107 -43q40 -45 40 -117zM291 504q0 48 -20 74.5t-55 26.5q-34 0 -55 -26.5t-21 -73.5t21 -74.5t56 -27.5q34 0 54 26.5t20 74.5z" />
    <glyph glyph-name="ae" unicode="&#xe6;" horiz-adv-x="754" 
d="M716 220h-304q0 -67 40.5 -111t109.5 -44q59 0 115 33l25 -59q-65 -49 -157 -49q-109 0 -171 81q-27 -25 -45.5 -39t-55.5 -28t-79 -14q-67 0 -111 40t-44 107q0 72 51.5 112t149.5 40h85v23q0 100 -100 100q-65 0 -123 -41l-32 59q75 55 172 55q103 0 142 -65
q58 65 136 65q92 0 144 -66t52 -178v-21zM622 289q-1 50 -28.5 87.5t-75.5 37.5t-77 -36.5t-29 -88.5h210zM344 122q-19 42 -22 98h-66q-129 0 -129 -77q0 -35 23 -57t68 -22q68 0 126 58z" />
    <glyph glyph-name="oslash" unicode="&#xf8;" horiz-adv-x="521" 
d="M478 469l-47 -63q53 -64 53 -169q0 -116 -67 -185q-59 -62 -157 -62q-70 0 -120 33l-44 -59l-51 39l47 63q-53 67 -53 170q0 114 67 186q61 63 155 63q70 0 122 -35l44 55zM336 388q-30 24 -76 24q-62 0 -96.5 -47.5t-34.5 -126.5q0 -57 20 -99zM394 238q0 56 -18 96
l-187 -247q30 -24 73 -24q62 0 97 48t35 127z" />
    <glyph glyph-name="questiondown" unicode="&#xbf;" horiz-adv-x="462" 
d="M306 424q0 -26 -17 -44t-42 -18t-42.5 18t-17.5 44t17.5 43.5t42.5 17.5t42 -17.5t17 -43.5zM403 -125q-79 -79 -187 -79q-75 0 -118 39t-43 105q0 40 21 76t51.5 61.5t61 47.5t51.5 43.5t21 39.5q0 23 -26 55l67 42q45 -45 45 -99q0 -31 -20.5 -59.5t-49.5 -50.5
t-58.5 -44t-50 -50t-20.5 -58q0 -34 22.5 -54t58.5 -20q68 0 132 61z" />
    <glyph glyph-name="exclamdown" unicode="&#xa1;" horiz-adv-x="276" 
d="M198 424q0 -26 -17 -44t-42 -18t-42 18t-17 44t17 43.5t42 17.5t42 -17.5t17 -43.5zM184 -187h-90v58q0 184 4.5 260.5t19.5 167.5h42q15 -94 19.5 -170.5t4.5 -256.5v-59z" />
    <glyph glyph-name="logicalnot" unicode="&#xac;" horiz-adv-x="615" 
d="M544 84h-87v213h-386v79h473v-292z" />
    <glyph glyph-name="florin" unicode="&#x192;" 
d="M508 681l-36 -66q-29 20 -68 20q-90 0 -102 -136l-11 -113h132l-27 -72h-111l-25 -273q-11 -117 -66 -170q-45 -41 -121 -41q-61 0 -106 27l36 66q29 -20 68 -20q89 0 102 136l25 275h-99v72h105l12 123q18 199 189 199q58 0 103 -27z" />
    <glyph glyph-name="guillemotleft" unicode="&#xab;" horiz-adv-x="560" 
d="M492 52l-70 -42l-166 231l166 232l70 -42l-138 -190zM283 52l-70 -42l-166 231l166 232l70 -42l-138 -190z" />
    <glyph glyph-name="guillemotright" unicode="&#xbb;" horiz-adv-x="560" 
d="M515 241l-166 -231l-70 42l138 189l-138 190l70 42zM306 241l-166 -231l-70 42l138 189l-138 190l70 42z" />
    <glyph glyph-name="ellipsis" unicode="&#x2026;" horiz-adv-x="858" 
d="M748 49q0 -26 -17 -43.5t-42 -17.5t-42 17.5t-17 43.5t17 44t42 18t42 -18t17 -44zM489 49q0 -26 -17 -43.5t-42 -17.5t-42.5 17.5t-17.5 43.5t17.5 44t42.5 18t42 -18t17 -44zM228 49q0 -26 -17 -43.5t-42 -17.5t-42 17.5t-17 43.5t17 44t42 18t42 -18t17 -44z" />
    <glyph glyph-name="nbspace" unicode="&#xa0;" horiz-adv-x="246" 
 />
    <glyph glyph-name="Agrave" unicode="&#xc0;" horiz-adv-x="595" 
d="M583 0h-93l-67 172h-255l-62 -172h-90l253 661h57zM393 249l-69 199q-17 47 -25 82h-1q-9 -35 -26 -81l-73 -200h194zM176 843h110l58 -147h-74z" />
    <glyph glyph-name="Atilde" unicode="&#xc3;" horiz-adv-x="595" 
d="M583 0h-93l-67 172h-255l-62 -172h-90l253 661h57zM393 249l-69 199q-17 47 -25 82h-1q-9 -35 -26 -81l-73 -200h194zM434 797q0 -33 -20 -54t-50 -21q-27 0 -57 15l-30 13q-26 12 -39 12q-23 0 -23 -25v-9h-54v23q0 33 20 54t51 21q24 0 56 -14l29 -13q28 -13 40 -13
q22 0 22 25v10h55v-24z" />
    <glyph glyph-name="Otilde" unicode="&#xd5;" horiz-adv-x="743" 
d="M42 325q0 149 93 245q94 94 236 94q155 0 247 -103q83 -94 83 -234q0 -153 -97 -248q-92 -89 -233 -89q-136 0 -226 82q-103 95 -103 253zM605 326q0 115 -62 186.5t-172 71.5q-107 0 -170.5 -70t-63.5 -188t63.5 -188t170.5 -70t170.5 70t63.5 188zM507 796
q0 -33 -20 -54t-50 -21q-27 0 -57 15l-30 13q-26 12 -39 12q-23 0 -23 -25v-9h-54v23q0 33 20 54t51 21q24 0 56 -14l29 -13q28 -13 40 -13q22 0 22 25v10h55v-24z" />
    <glyph glyph-name="OE" unicode="&#x152;" horiz-adv-x="862" 
d="M812 0h-262q-22 0 -91.5 -5.5t-88.5 -5.5q-137 0 -226 84q-102 94 -102 253q0 146 93.5 242t237.5 96q8 0 62.5 -2.5t75.5 -2.5h299l-30 -79h-219v-204h217v-78h-217v-219h251v-79zM472 77v498q-60 10 -103 10q-107 0 -170 -70t-63 -186q0 -118 64 -190t172 -72
q28 0 100 10z" />
    <glyph glyph-name="oe" unicode="&#x153;" horiz-adv-x="821" 
d="M783 218h-303q0 -65 40 -109t109 -44q59 0 115 33l25 -59q-65 -49 -157 -49q-116 0 -178 91q-60 -92 -175 -92q-92 0 -153 59q-68 68 -68 188q0 116 67 186q61 63 155 63q113 0 173 -88q54 88 154 88q92 0 144 -66t52 -178v-23zM690 287q-1 50 -28 88t-76 38
q-48 0 -77 -36.5t-29 -89.5h210zM259 412q-63 0 -97 -47t-34 -127t35.5 -127.5t97.5 -47.5q61 0 96 48t35 127q0 80 -35 127t-98 47z" />
    <glyph glyph-name="endash" unicode="&#x2013;" horiz-adv-x="500" 
d="M500 214h-500v71h500v-71z" />
    <glyph glyph-name="emdash" unicode="&#x2014;" horiz-adv-x="1000" 
d="M1000 214h-1000v71h1000v-71z" />
    <glyph glyph-name="quotedblleft" unicode="&#x201c;" horiz-adv-x="394" 
d="M126 438q-83 123 -12 281l55 -11q-15 -81 -6.5 -127t41.5 -99zM294 438q-83 123 -12 281l55 -11q-15 -81 -6.5 -127t41.5 -99z" />
    <glyph glyph-name="quotedblright" unicode="&#x201d;" horiz-adv-x="405" 
d="M168 716q41 -142 -75 -271l-49 27q38 63 45 119t-9 107zM336 716q41 -142 -75 -271l-49 27q38 63 45 119t-9 107z" />
    <glyph glyph-name="quoteleft" unicode="&#x2018;" horiz-adv-x="226" 
d="M126 438q-83 123 -12 281l55 -11q-15 -81 -6.5 -127t41.5 -99z" />
    <glyph glyph-name="quoteright" unicode="&#x2019;" horiz-adv-x="237" 
d="M168 716q41 -142 -75 -271l-49 27q38 63 45 119t-9 107z" />
    <glyph glyph-name="divide" unicode="&#xf7;" horiz-adv-x="615" 
d="M366 427q0 -25 -16.5 -42t-41.5 -17q-24 0 -40.5 17t-16.5 42t16.5 42.5t40.5 17.5q25 0 41.5 -17t16.5 -43zM544 213h-473v79h473v-79zM366 78q0 -25 -16.5 -42t-41.5 -17q-24 0 -40.5 17t-16.5 42t16.5 42t40.5 17q25 0 41.5 -17t16.5 -42z" />
    <glyph glyph-name="ydieresis" unicode="&#xff;" horiz-adv-x="492" 
d="M479 473l-181 -509q-42 -119 -94 -160t-121 -41q-50 0 -95 19l22 68q32 -16 71 -16q94 0 141 164l-214 475h94l162 -370h3l124 370h88zM388 609q0 -22 -15 -37.5t-37 -15.5t-37 15.5t-15 37.5t15 37.5t37 15.5t37 -15.5t15 -37.5zM213 609q0 -22 -15.5 -37.5t-37.5 -15.5
q-21 0 -36.5 15.5t-15.5 37.5t15.5 37.5t36.5 15.5q22 0 37.5 -15.5t15.5 -37.5z" />
    <glyph glyph-name="Ydieresis" unicode="&#x178;" horiz-adv-x="551" 
d="M540 659l-217 -396v-263h-89v265l-221 394h98l113 -204q55 -104 56 -106h2q21 45 53 105l111 205h94zM417 759q0 -22 -15 -37.5t-37 -15.5t-37 15.5t-15 37.5t15 37.5t37 15.5t37 -15.5t15 -37.5zM242 759q0 -22 -15.5 -37.5t-37.5 -15.5q-21 0 -36.5 15.5t-15.5 37.5
t15.5 37.5t36.5 15.5q22 0 37.5 -15.5t15.5 -37.5z" />
    <glyph glyph-name="fraction" unicode="&#x2044;" horiz-adv-x="440" 
d="M491 676l-446 -696h-89l446 696h89z" />
    <glyph glyph-name="Euro" unicode="&#x20ac;" horiz-adv-x="590" 
d="M181 372q-2 -28 -2 -45q0 -29 3 -56h293l-27 -67h-251q46 -136 186 -136q75 0 146 43l25 -72q-80 -49 -184 -49q-108 0 -177 55.5t-94 158.5h-78v67h67q-2 34 -2 51q0 26 3 50h-68v67h79q27 106 100.5 165.5t182.5 59.5q102 0 159 -38v-86q-71 49 -160 49q-70 0 -118 -40
t-69 -110h308l-27 -67h-295z" />
    <glyph glyph-name="guilsinglleft" unicode="&#x2039;" horiz-adv-x="351" 
d="M283 52l-70 -42l-166 231l166 232l70 -42l-138 -190z" />
    <glyph glyph-name="guilsinglright" unicode="&#x203a;" horiz-adv-x="351" 
d="M306 241l-166 -231l-70 42l138 189l-138 190l70 42z" />
    <glyph glyph-name="fi" unicode="&#xfb01;" horiz-adv-x="556" 
d="M323 690l-18 -68q-26 13 -58 13q-61 0 -61 -76v-86h124l-28 -72h-96v-401h-89v401h-62v72h62v78q0 46 14 78.5t37.5 48.5t47 23t49.5 7q43 0 78 -18zM436 680q24 0 41.5 -17t17.5 -41t-17.5 -41.5t-41.5 -17.5q-25 0 -42 17t-17 42q0 24 17.5 41t41.5 17zM480 0h-88v473
h88v-473z" />
    <glyph glyph-name="fl" unicode="&#xfb02;" horiz-adv-x="563" 
d="M323 690l-18 -68q-26 13 -58 13q-61 0 -61 -76v-86h124l-28 -72h-96v-401h-89v401h-62v72h62v78q0 46 14 78.5t37.5 48.5t47 23t49.5 7q43 0 78 -18zM543 9q-35 -19 -73 -19q-46 0 -68.5 25.5t-22.5 67.5v625h88v-586q0 -30 8 -41t29 -11q15 0 28 4z" />
    <glyph glyph-name="daggerdbl" unicode="&#x2021;" horiz-adv-x="519" 
d="M449 94q-24 0 -82.5 8t-71.5 9q-1 -20 6.5 -78t7.5 -79h-97q0 21 6.5 79t5.5 78q-13 -1 -71 -9t-82 -8v96q25 0 81.5 -7.5t70.5 -7.5q1 12 -2 49t-2 65q-1 29 2 66t2 48q-14 0 -70.5 -7.5t-81.5 -7.5v96q24 0 82 -8t71 -9q1 20 -5.5 78t-6.5 79h97q0 -21 -7.5 -79
t-6.5 -78q13 1 71.5 9t82.5 8v-96q-25 0 -81.5 7.5t-70.5 7.5q0 -11 2 -48.5t2 -65.5q0 -27 -2 -64.5t-2 -49.5q14 0 70.5 7.5t81.5 7.5v-96z" />
    <glyph glyph-name="periodcentered" unicode="&#xb7;" horiz-adv-x="209" 
d="M165 254q0 -26 -17 -43.5t-42 -17.5t-42 17.5t-17 43.5t17 43.5t42 17.5t42 -17.5t17 -43.5z" />
    <glyph glyph-name="quotesinglbase" unicode="&#x201a;" horiz-adv-x="237" 
d="M168 116q41 -142 -75 -271l-49 27q38 63 45 119t-9 107z" />
    <glyph glyph-name="quotedblbase" unicode="&#x201e;" horiz-adv-x="405" 
d="M168 116q41 -142 -75 -271l-49 27q38 63 45 119t-9 107zM336 116q41 -142 -75 -271l-49 27q38 63 45 119t-9 107z" />
    <glyph glyph-name="perthousand" unicode="&#x2030;" horiz-adv-x="1204" 
d="M1141 169q0 -85 -44.5 -131.5t-112.5 -46.5t-110.5 46t-42.5 131t44.5 131.5t112.5 46.5q67 0 110 -46t43 -131zM780 169q0 -85 -44.5 -131.5t-112.5 -46.5t-110.5 46t-42.5 131t44.5 131.5t112.5 46.5t110.5 -46t42.5 -131zM375 491q0 -85 -44.5 -131.5t-113.5 -46.5
q-67 0 -110 46t-43 130q0 85 44.5 132t112.5 47t111 -46.5t43 -130.5zM1059 168q0 118 -75 118q-35 0 -53.5 -30.5t-18.5 -85.5q0 -119 76 -119q71 0 71 117zM699 168q0 118 -76 118q-35 0 -53.5 -30.5t-18.5 -85.5q0 -119 76 -119q72 0 72 117zM293 489q0 118 -76 118
q-34 0 -52.5 -30.5t-18.5 -84.5q0 -119 75 -119q72 0 72 116zM688 676l-446 -696h-89l446 696h89z" />
    <glyph glyph-name="Acircumflex" unicode="&#xc2;" horiz-adv-x="595" 
d="M583 0h-93l-67 172h-255l-62 -172h-90l253 661h57zM393 249l-69 199q-17 47 -25 82h-1q-9 -35 -26 -81l-73 -200h194zM443 696h-82l-62 91l-61 -91h-81l103 147h78z" />
    <glyph glyph-name="Ecircumflex" unicode="&#xca;" horiz-adv-x="468" 
d="M418 0h-339v659h337l-29 -79h-219v-204h217v-78h-217v-219h250v-79zM388 696h-82l-62 91l-61 -91h-81l103 147h78z" />
    <glyph glyph-name="Aacute" unicode="&#xc1;" horiz-adv-x="595" 
d="M583 0h-93l-67 172h-255l-62 -172h-90l253 661h57zM393 249l-69 199q-17 47 -25 82h-1q-9 -35 -26 -81l-73 -200h194zM427 843l-94 -147h-74l58 147h110z" />
    <glyph glyph-name="Edieresis" unicode="&#xcb;" horiz-adv-x="468" 
d="M418 0h-339v659h337l-29 -79h-219v-204h217v-78h-217v-219h250v-79zM386 759q0 -22 -15 -37.5t-37 -15.5t-37 15.5t-15 37.5t15 37.5t37 15.5t37 -15.5t15 -37.5zM211 759q0 -22 -15.5 -37.5t-37.5 -15.5q-21 0 -36.5 15.5t-15.5 37.5t15.5 37.5t36.5 15.5
q22 0 37.5 -15.5t15.5 -37.5z" />
    <glyph glyph-name="Egrave" unicode="&#xc8;" horiz-adv-x="468" 
d="M418 0h-339v659h337l-29 -79h-219v-204h217v-78h-217v-219h250v-79zM125 843h110l58 -147h-74z" />
    <glyph glyph-name="Iacute" unicode="&#xcd;" horiz-adv-x="247" 
d="M169 0h-89v659h89v-659zM249 843l-94 -147h-74l58 147h110z" />
    <glyph glyph-name="Icircumflex" unicode="&#xce;" horiz-adv-x="247" 
d="M169 0h-89v659h89v-659zM267 696h-82l-62 91l-61 -91h-81l103 147h78z" />
    <glyph glyph-name="Idieresis" unicode="&#xcf;" horiz-adv-x="247" 
d="M169 0h-89v659h89v-659zM265 759q0 -22 -15 -37.5t-37 -15.5t-37 15.5t-15 37.5t15 37.5t37 15.5t37 -15.5t15 -37.5zM90 759q0 -22 -15.5 -37.5t-37.5 -15.5q-21 0 -36.5 15.5t-15.5 37.5t15.5 37.5t36.5 15.5q22 0 37.5 -15.5t15.5 -37.5z" />
    <glyph glyph-name="Igrave" unicode="&#xcc;" horiz-adv-x="247" 
d="M169 0h-89v659h89v-659zM0 843h110l58 -147h-74z" />
    <glyph glyph-name="Oacute" unicode="&#xd3;" horiz-adv-x="743" 
d="M42 325q0 149 93 245q94 94 236 94q155 0 247 -103q83 -94 83 -234q0 -153 -97 -248q-92 -89 -233 -89q-136 0 -226 82q-103 95 -103 253zM605 326q0 115 -62 186.5t-172 71.5q-107 0 -170.5 -70t-63.5 -188t63.5 -188t170.5 -70t170.5 70t63.5 188zM501 843l-94 -147
h-74l58 147h110z" />
    <glyph glyph-name="Ocircumflex" unicode="&#xd4;" horiz-adv-x="743" 
d="M42 325q0 149 93 245q94 94 236 94q155 0 247 -103q83 -94 83 -234q0 -153 -97 -248q-92 -89 -233 -89q-136 0 -226 82q-103 95 -103 253zM605 326q0 115 -62 186.5t-172 71.5q-107 0 -170.5 -70t-63.5 -188t63.5 -188t170.5 -70t170.5 70t63.5 188zM513 696h-82l-62 91
l-61 -91h-81l103 147h78z" />
    <glyph glyph-name="currency" unicode="&#xa4;" 
d="M510 127l-56 -56l-64 64q-60 -40 -129 -40q-71 0 -129 41l-65 -66l-56 56l65 65q-41 61 -41 130q0 71 41 129l-66 64l56 56l64 -64q61 41 131 41q72 0 130 -41l64 64l56 -56l-64 -64q40 -60 40 -129q0 -72 -41 -130zM415 321q0 66 -44.5 112.5t-109.5 46.5
q-66 0 -110.5 -46.5t-44.5 -112.5t44.5 -112.5t110.5 -46.5q65 0 109.5 46.5t44.5 112.5z" />
    <glyph glyph-name="Ograve" unicode="&#xd2;" horiz-adv-x="743" 
d="M42 325q0 149 93 245q94 94 236 94q155 0 247 -103q83 -94 83 -234q0 -153 -97 -248q-92 -89 -233 -89q-136 0 -226 82q-103 95 -103 253zM605 326q0 115 -62 186.5t-172 71.5q-107 0 -170.5 -70t-63.5 -188t63.5 -188t170.5 -70t170.5 70t63.5 188zM246 843h110l58 -147
h-74z" />
    <glyph glyph-name="Uacute" unicode="&#xda;" horiz-adv-x="669" 
d="M586 229q0 -108 -62 -171q-66 -68 -196 -68q-121 0 -184 60q-64 63 -64 189v420h89v-418q0 -85 44 -130q41 -43 117 -43q87 0 128 43q39 42 39 124v424h89v-430zM463 843l-94 -147h-74l58 147h110z" />
    <glyph glyph-name="Ucircumflex" unicode="&#xdb;" horiz-adv-x="669" 
d="M586 229q0 -108 -62 -171q-66 -68 -196 -68q-121 0 -184 60q-64 63 -64 189v420h89v-418q0 -85 44 -130q41 -43 117 -43q87 0 128 43q39 42 39 124v424h89v-430zM477 696h-82l-62 91l-61 -91h-81l103 147h78z" />
    <glyph glyph-name="Ugrave" unicode="&#xd9;" horiz-adv-x="669" 
d="M586 229q0 -108 -62 -171q-66 -68 -196 -68q-121 0 -184 60q-64 63 -64 189v420h89v-418q0 -85 44 -130q41 -43 117 -43q87 0 128 43q39 42 39 124v424h89v-430zM211 844h110l58 -147h-74z" />
    <glyph glyph-name="dotlessi" unicode="&#x131;" horiz-adv-x="240" 
d="M164 0h-88v473h88v-473z" />
    <glyph glyph-name="circumflex" unicode="&#x2c6;" horiz-adv-x="411" 
d="M350 531h-82l-62 91l-61 -91h-81l103 147h78z" />
    <glyph glyph-name="tilde" unicode="&#x2dc;" horiz-adv-x="395" 
d="M335 623q0 -33 -20 -54t-50 -21q-27 0 -57 15l-30 13q-26 12 -39 12q-23 0 -23 -25v-9h-54v23q0 33 20 54t51 21q24 0 56 -14l29 -13q28 -13 40 -13q22 0 22 25v10h55v-24z" />
    <glyph glyph-name="macron" unicode="&#xaf;" horiz-adv-x="386" 
d="M323 571h-258v71h258v-71z" />
    <glyph glyph-name="breve" unicode="&#x2d8;" horiz-adv-x="342" 
d="M300 655q0 -52 -31 -81t-87 -29h-6q-53 0 -82 28.5t-29 81.5h54q2 -23 17.5 -36.5t40.5 -13.5h10q27 0 42 13.5t17 36.5h54z" />
    <glyph glyph-name="dotaccent" unicode="&#x2d9;" horiz-adv-x="381" 
d="M191 680q24 0 41.5 -17t17.5 -41t-17.5 -41.5t-41.5 -17.5q-25 0 -42 17t-17 42q0 24 17 41t42 17z" />
    <glyph glyph-name="ring" unicode="&#x2da;" horiz-adv-x="406" 
d="M303 619q0 -43 -28 -69.5t-71 -26.5q-44 0 -71 26.5t-27 69.5q0 42 27.5 68t71.5 26q43 0 70.5 -26t27.5 -68zM251 620q0 24 -12.5 38.5t-34.5 14.5t-35 -14.5t-13 -38.5q0 -25 13 -39.5t35 -14.5q47 0 47 54z" />
    <glyph glyph-name="cedilla" unicode="&#xb8;" horiz-adv-x="509" 
d="M326 -106q0 -35 -31.5 -54.5t-69.5 -19.5t-64 13l15 42q21 -12 46 -12q16 0 27.5 8t11.5 21q0 24 -45 26l-29 1l25 81h60l-14 -45q68 -5 68 -61z" />
    <glyph glyph-name="hungarumlaut" unicode="&#x2dd;" horiz-adv-x="685" 
d="M340 678l-94 -147h-74l58 147h110zM498 678l-94 -147h-74l58 147h110z" />
    <glyph glyph-name="ogonek" unicode="&#x2db;" horiz-adv-x="509" 
d="M341 0q-106 -53 -106 -117q0 -39 38 -39q17 0 38 7l11 -52q-33 -11 -67 -11q-44 0 -68.5 23t-24.5 58q0 33 19 63t38.5 46t49.5 35z" />
    <glyph glyph-name="caron" unicode="&#x2c7;" horiz-adv-x="411" 
d="M351 678l-103 -147h-78l-105 147h82l63 -91l60 91h81z" />
    <glyph glyph-name="eth" unicode="&#xf0;" horiz-adv-x="546" 
d="M500 298q0 -153 -64 -230.5t-170 -77.5q-97 0 -159 62q-69 69 -69 187q0 108 60.5 177t153.5 69q118 0 161 -92h1q-11 127 -88 200l-139 -60l-24 58l103 44q-57 27 -140 35l23 69q125 -16 204 -68l119 50l23 -58l-89 -38q94 -103 94 -327zM266 413q-65 0 -101.5 -46
t-36.5 -126t37.5 -128.5t102.5 -48.5q66 0 101.5 49t35.5 129q0 73 -38 122t-101 49z" />
    <glyph glyph-name="Lslash" unicode="&#x141;" horiz-adv-x="429" 
d="M25 198v87l59 34v340h89v-289l161 93v-86l-161 -93v-205h245v-79h-334v232z" />
    <glyph glyph-name="lslash" unicode="&#x142;" horiz-adv-x="253" 
d="M224 444v-87l-65 -37v-198q0 -30 8 -41t29 -11q15 0 28 4l11 -65q-35 -19 -73 -19q-46 0 -68.5 25.5t-22.5 67.5v185l-51 -30v88l51 30v352h88v-301z" />
    <glyph glyph-name="Scaron" unicode="&#x160;" horiz-adv-x="486" 
d="M446 167q0 -79 -61.5 -128t-154.5 -49q-106 0 -188 55l40 69q64 -48 145 -48q49 0 86.5 23.5t37.5 68.5q0 37 -27 67.5t-62 48.5t-80 46t-70 56q-46 49 -46 119q0 73 53 121t145 48q86 0 152 -33l-1 -88q-70 44 -147 44q-49 0 -80.5 -21t-31.5 -62q0 -38 30 -68
t72.5 -53.5t85 -49.5t72.5 -68.5t30 -97.5zM398 843l-103 -147h-78l-105 147h82l63 -91l60 91h81z" />
    <glyph glyph-name="scaron" unicode="&#x161;" horiz-adv-x="388" 
d="M355 132q0 -72 -51 -107t-133 -35q-87 0 -151 39l31 67q59 -37 119 -37q42 0 68 17t26 47q0 29 -22 48t-54 32t-64 28.5t-54 46.5t-22 77q0 57 42.5 93.5t121.5 36.5q67 0 126 -25v-76q-70 29 -122 29q-81 0 -81 -54q0 -26 22.5 -44.5t55 -31.5t65 -29.5t55 -47
t22.5 -74.5zM351 678l-103 -147h-78l-105 147h82l63 -91l60 91h81z" />
    <glyph glyph-name="Yacute" unicode="&#xdd;" horiz-adv-x="551" 
d="M540 659l-217 -396v-263h-89v265l-221 394h98l113 -204q55 -104 56 -106h2q21 45 53 105l111 205h94zM401 853l-94 -147h-74l58 147h110z" />
    <glyph glyph-name="yacute" unicode="&#xfd;" horiz-adv-x="492" 
d="M479 473l-181 -509q-42 -119 -94 -160t-121 -41q-50 0 -95 19l22 68q32 -16 71 -16q94 0 141 164l-214 475h94l162 -370h3l124 370h88zM375 678l-94 -147h-74l58 147h110z" />
    <glyph glyph-name="Wcircumflex" unicode="&#x174;" horiz-adv-x="922" 
d="M911 659l-225 -662h-69l-116 323q-24 69 -33 100h-2q-16 -56 -33 -99l-120 -324h-69l-231 662h98l141 -426q23 -72 30 -99h2q7 25 33 98l108 299l-45 128h92l145 -420q33 -94 35 -101h2q14 56 28 98l136 423h93zM596 696h-82l-62 91l-61 -91h-81l103 147h78z" />
    <glyph glyph-name="wcircumflex" unicode="&#x175;" horiz-adv-x="714" 
d="M709 473l-162 -476h-74l-114 362h-3l-114 -362h-73l-162 476h90l111 -357h3l112 357h75l114 -358h3l109 358h85zM502 531h-82l-62 91l-61 -91h-81l103 147h78z" />
    <glyph glyph-name="Thorn" unicode="&#xde;" horiz-adv-x="488" 
d="M79 659h89v-110h57q105 0 166 -55t61 -153q0 -94 -60 -155.5t-183 -61.5h-41v-124h-89v659zM359 341q0 59 -36.5 94t-105.5 35h-49v-267h54q69 0 103 37t34 101z" />
    <glyph glyph-name="thorn" unicode="&#xfe;" horiz-adv-x="505" 
d="M62 708h88v-232q40 9 76 9q113 0 177 -65t64 -177q0 -118 -70 -185.5t-171 -67.5q-39 0 -76 14v-241h-88v945zM376 240q0 83 -43 125.5t-110 42.5q-36 0 -73 -11v-317q32 -16 72 -16q71 0 112.5 47.5t41.5 128.5z" />
    <glyph glyph-name="Zcaron" unicode="&#x17d;" horiz-adv-x="558" 
d="M528 0h-485l332 582l-301 -3l-26 80h468l-328 -581l340 2v-80zM428 843l-103 -147h-78l-105 147h82l63 -91l60 91h81z" />
    <glyph glyph-name="zcaron" unicode="&#x17e;" horiz-adv-x="420" 
d="M392 0h-363l226 401l-199 -2l-22 74h353l-220 -400l225 2v-75zM351 678l-103 -147h-78l-105 147h82l63 -91l60 91h81z" />
    <glyph glyph-name="onehalf" unicode="&#xbd;" horiz-adv-x="832" 
d="M672 676l-446 -696h-89l446 696h89zM230 266h-77v315l-90 -39l-24 62l126 60h65v-398zM791 0h-272q4 58 24.5 102t48 68t54 42.5t45 37.5t18.5 40q0 19 -13 32t-37 13q-36 0 -102 -35l-23 61q76 39 141 39q56 0 87 -29.5t31 -77.5q0 -32 -15.5 -57t-38.5 -41.5
t-47.5 -32.5t-45.5 -40t-29 -54l174 4v-72z" />
    <glyph glyph-name="onequarter" unicode="&#xbc;" horiz-adv-x="832" 
d="M672 676l-446 -696h-89l446 696h89zM232 266h-77v315l-90 -39l-24 62l126 60h65v-398zM763 88h-53v-88h-77v88h-187v53l185 257h79v-245h53v-65zM634 288l-98 -137q46 2 74 2h23v41q0 64 1 94z" />
    <glyph glyph-name="onesuperior" unicode="&#xb9;" horiz-adv-x="372" 
d="M248 266h-77v315l-90 -39l-24 62l126 60h65v-398z" />
    <glyph glyph-name="threequarters" unicode="&#xbe;" horiz-adv-x="832" 
d="M693 676l-446 -696h-89l446 696h89zM311 381q0 -53 -41 -86.5t-118 -33.5q-68 0 -120 23l24 61q51 -19 94 -19q77 0 77 55q0 35 -39 48q-15 5 -46 5h-58v65l50 1q81 1 81 56q0 45 -56 45q-41 0 -93 -25l-21 60q65 30 131 30q60 0 91 -28t31 -72q0 -33 -19.5 -57.5
t-48.5 -34.5v-2q35 -5 58 -29t23 -62zM780 88h-53v-88h-77v88h-187v53l185 257h79v-245h53v-65zM651 288l-98 -137q46 2 74 2h23v41q0 64 1 94z" />
    <glyph glyph-name="threesuperior" unicode="&#xb3;" horiz-adv-x="372" 
d="M319 381q0 -53 -41 -86.5t-118 -33.5q-68 0 -120 23l24 61q51 -19 94 -19q77 0 77 55q0 35 -39 48q-15 5 -46 5h-58v65l50 1q81 1 81 56q0 45 -56 45q-41 0 -93 -25l-21 60q65 30 131 30q60 0 91 -28t31 -72q0 -33 -19.5 -57.5t-48.5 -34.5v-2q35 -5 58 -29t23 -62z" />
    <glyph glyph-name="twosuperior" unicode="&#xb2;" horiz-adv-x="372" 
d="M312 266h-272q4 58 24.5 102t48 68t54 42.5t45 37.5t18.5 40q0 19 -13 32t-37 13q-36 0 -102 -35l-23 61q76 39 141 39q56 0 87 -29.5t31 -77.5q0 -32 -15.5 -57t-38.5 -41.5t-47.5 -32.5t-45.5 -40t-29 -54l174 4v-72z" />
    <glyph glyph-name="brokenbar" unicode="&#xa6;" horiz-adv-x="252" 
d="M168 425h-84v355h84v-355zM168 -237h-84v355h84v-355z" />
    <glyph glyph-name="minus" unicode="&#x2212;" horiz-adv-x="615" 
d="M544 213h-473v79h473v-79z" />
    <glyph glyph-name="multiply" unicode="&#xd7;" horiz-adv-x="628" 
d="M571 45l-56 -56l-201 202l-201 -202l-56 56l201 202l-202 201l56 56l202 -201l202 200l55 -56l-201 -200z" />
    <glyph glyph-name="Ycircumflex" unicode="&#x176;" horiz-adv-x="551" 
d="M540 659l-217 -396v-263h-89v265l-221 394h98l113 -204q55 -104 56 -106h2q21 45 53 105l111 205h94zM416 696h-82l-62 91l-61 -91h-81l103 147h78z" />
    <glyph glyph-name="ycircumflex" unicode="&#x177;" horiz-adv-x="492" 
d="M479 473l-181 -509q-42 -119 -94 -160t-121 -41q-50 0 -95 19l22 68q32 -16 71 -16q94 0 141 164l-214 475h94l162 -370h3l124 370h88zM387 531h-82l-62 91l-61 -91h-81l103 147h78z" />
    <glyph glyph-name="Eth" unicode="&#xd0;" horiz-adv-x="644" 
d="M603 336q0 -148 -93 -242t-268 -94h-162v292h-78v79h78v288h162q178 0 269.5 -88.5t91.5 -234.5zM510 336q0 108 -66.5 176t-194.5 68h-80v-209h164v-79h-164v-213h79q70 0 122 20.5t82 57t44 81.5t14 98z" />
  </font>
</defs>
</svg>
